<svg xmlns="http://www.w3.org/2000/svg" viewBox="0 0 29.86 29.91"><title>cart-black</title><g id="Layer_2" data-name="Layer 2"><g id="Layer_1-2" data-name="Layer 1"><rect x="19.66" y="25.01" width="5.15" height="4.9" rx="1.82"/><rect x="7.07" y="25.01" width="5.15" height="4.9" rx="1.82"/><path d="M23.48,22.07H7.22a2,2,0,0,1-1.46-.63L.54,15.88A2,2,0,0,1,0,14.51v-9a2,2,0,0,1,2-2H17.94a1.17,1.17,0,0,1,1.17,1.18V5a1.17,1.17,0,0,1-1.17,1.18H4.72a2,2,0,0,0-2,2v5.38a2,2,0,0,0,.54,1.37l3.72,4a2,2,0,0,0,1.46.63H20.76a2,2,0,0,0,2-2V4a1.18,1.18,0,0,1,.58-1L28.09.16a1.18,1.18,0,0,1,1.77,1V1.5a1.19,1.19,0,0,1-.57,1l-3.24,1.9a1.2,1.2,0,0,0-.57,1V20.07A2,2,0,0,1,23.48,22.07Z"/></g></g></svg>