<svg xmlns="http://www.w3.org/2000/svg" viewBox="0 0 26.08 26.12"><defs><style>.cls-1{fill:#fff;}</style></defs><title>Asset 3</title><g id="Layer_2" data-name="Layer 2"><g id="Layer_1-2" data-name="Layer 1"><path class="cls-1" d="M20.1,21.84H18.73a1.56,1.56,0,0,0-1.56,1.57v1.15a1.56,1.56,0,0,0,1.56,1.56H20.1a1.56,1.56,0,0,0,1.56-1.56V23.41a1.56,1.56,0,0,0-1.56-1.57Z"/><path class="cls-1" d="M9.1,21.84H7.74a1.57,1.57,0,0,0-1.57,1.57v1.15a1.56,1.56,0,0,0,1.57,1.56H9.1a1.56,1.56,0,0,0,1.57-1.56V23.41A1.57,1.57,0,0,0,9.1,21.84Z"/><path class="cls-1" d="M20.5,19.28H6.31A1.75,1.75,0,0,1,5,18.73L.47,13.87A1.76,1.76,0,0,1,0,12.67V4.84A1.74,1.74,0,0,1,1.75,3.1H15.67a1,1,0,0,1,1,1v.21a1,1,0,0,1-1,1H4.12A1.75,1.75,0,0,0,2.37,7.1v4.71A1.76,1.76,0,0,0,2.85,13l3.24,3.45A1.75,1.75,0,0,0,7.37,17H18.13a1.75,1.75,0,0,0,1.75-1.74V3.48a1,1,0,0,1,.5-.88L24.53.14A1,1,0,0,1,26.08,1v.28a1,1,0,0,1-.51.88L22.75,3.86a1,1,0,0,0-.5.88V17.53A1.75,1.75,0,0,1,20.5,19.28Z"/></g></g></svg>