<svg xmlns="http://www.w3.org/2000/svg" viewBox="0 0 71.05 57.38"><defs><style>.cls-1,.cls-2{fill:none;stroke:#000;stroke-miterlimit:10;}.cls-1{stroke-width:0.91px;}.cls-2{stroke-width:0.46px;}</style></defs><g id="Layer_2" data-name="Layer 2"><g id="Layer_1-2" data-name="Layer 1"><path d="M64.24,40.28v-36A4.25,4.25,0,0,0,60,0H11.06A4.25,4.25,0,0,0,6.81,4.25v36L0,52.91v.22a4.26,4.26,0,0,0,4.25,4.25H66.79a4.26,4.26,0,0,0,4.26-4.25v-.22Zm4.53,12H2.27L8.16,41.34H62.89ZM8.51,4.25A2.55,2.55,0,0,1,11.06,1.7H60a2.56,2.56,0,0,1,2.56,2.55V39.64h-54ZM66.79,55.68H4.25A2.56,2.56,0,0,1,1.85,54H69.19A2.54,2.54,0,0,1,66.79,55.68Z"/><path class="cls-1" d="M57.65,4H13.4a1.71,1.71,0,0,0-1.7,1.71V35.54a1.7,1.7,0,0,0,1.7,1.7H57.65a1.7,1.7,0,0,0,1.7-1.7V5.73A1.71,1.71,0,0,0,57.65,4Z"/><polygon class="cls-2" points="45.53 48.64 43.83 44.38 28.09 44.38 26.39 48.64 45.53 48.64"/></g></g></svg>