<svg xmlns="http://www.w3.org/2000/svg" viewBox="0 0 37.25 37.09"><defs><style>.cls-1{stroke:#000;stroke-miterlimit:10;stroke-width:0.25px;fill-rule:evenodd;}</style></defs><title>description</title><g id="Layer_2" data-name="Layer 2"><g id="Layer_1-2" data-name="Layer 1"><path class="cls-1" d="M26.18,6.22l-4-4v4Zm8.37,9.4h0l.88-.79L31.31,10.7l-.78.86Zm-.74.85h0l-4.14-4.13L16.58,25.51l4.05,4Zm-4.09-5.72h0l1.59-1.58,5.76,5.66-1.66,1.62,0,0L35,16.9l-6.87,6.81V37H.13V.13H21.49l.07,0a.47.47,0,0,1,.36.16L23.1,1.53l5,4.69v6c.52-.5,1-1,1.53-1.55Zm-12.15,20h0L15.4,28.57,15.19,31ZM15.4,26.83h0l4.67,4.8-6.21.64L14.51,26Zm11.53-1.91h0l-6.3,6.25-5.69-5.66q6-6,12-12V7.42H21.6A.59.59,0,0,1,21,6.89V1.33H1.23V35.87h25.7Z"/></g></g></svg>