<svg xmlns="http://www.w3.org/2000/svg" viewBox="0 0 297.89 86.53"><title>footer-logo</title><g id="Layer_2" data-name="Layer 2"><g id="Layer_1-2" data-name="Layer 1"><path d="M44.36,43H32.51l-2.74-8H14.39l-2.71,8H0L15.59,1.19H28.77Zm-26.5-18.1H26.3L22.09,12.55Z"/><polygon points="57.55 22.64 59.28 22.64 65.17 13.41 77.76 13.41 67.55 27.4 77.76 43.02 65.22 43.02 58.99 32 57.55 32 57.55 43.02 47.07 43.02 47.07 0 57.55 0 57.55 22.64"/><path d="M107.85,43H97.79v-2.6a10,10,0,0,1-7.94,3.38c-7.79,0-13.27-7-13.27-15.63s5.48-15.56,13.3-15.56a9.89,9.89,0,0,1,7.91,3.46V13.41h10.06ZM87.38,28.2c0,3.32,2.18,5.71,5.18,5.71s5.17-2.39,5.17-5.71-2.17-5.7-5.17-5.7-5.18,2.39-5.18,5.7"/><path d="M159.05,23.75V43H148.57V27.1c0-3-1.38-4.54-3.67-4.54-2,0-3.65,1.34-3.65,4.6V43H130.77V27.1c0-3-1.38-4.54-3.67-4.54-2,0-3.65,1.34-3.65,4.6V43H113V13.41h10v3.05c1.65-2.57,4.24-3.85,7.88-3.85a9.86,9.86,0,0,1,8.65,4.57c1.77-3,4.68-4.57,8.68-4.57,6.74,0,10.89,4.33,10.89,11.14"/><path d="M187.65,29.85V43H176.47V1.19h18.35c10.48,0,16,5.86,16,14.46,0,8.43-5.5,14.2-15.83,14.2Zm0-18.47V19.9h7.06c2.76,0,4.79-1.53,4.79-4.25s-2-4.27-4.79-4.27Z"/><path d="M243.51,43H233.45v-2.6a10,10,0,0,1-7.94,3.38c-7.8,0-13.27-7-13.27-15.63s5.47-15.56,13.3-15.56a9.89,9.89,0,0,1,7.91,3.46V13.41h10.06ZM223,28.2c0,3.32,2.18,5.71,5.18,5.71s5.17-2.39,5.17-5.71-2.17-5.7-5.17-5.7S223,24.89,223,28.2"/><path d="M269,12.91l-.58,10.63a18.19,18.19,0,0,0-4.59-.69c-2.92,0-4.68,1-4.68,4.31V43h-10.5V13.41h10v3c1.62-2.63,4.18-3.79,7.74-3.79a12.8,12.8,0,0,1,2.61.3"/><path d="M294.53,23.21A31.31,31.31,0,0,0,284.71,21c-2,0-2.53.42-2.53,1.11,0,1.07,2,1.13,4.64,1.58l1.77.3c6.21,1.05,9.3,4.15,9.3,9.08,0,6.84-5,10.7-13.57,10.7-5.79,0-10.91-1-13.85-2.84l3.35-8.31a21.49,21.49,0,0,0,10.56,2.69c2.3,0,3-.39,3-1.25S286.21,33,283,32.44l-1.15-.17c-7.2-1.14-10.44-4.07-10.44-9.56,0-6.52,4.68-10.1,12.83-10.1,4.79,0,7.35.48,12.82,2.3Z"/><polygon points="6.18 82.78 10.2 82.78 10.2 62.97 4.03 62.97 4.03 67.95 0.16 67.95 0.16 59.33 24.49 59.33 24.49 67.95 20.62 67.95 20.62 62.97 14.41 62.97 14.41 82.78 18.44 82.78 18.44 86.15 6.18 86.15 6.18 82.78"/><path d="M35.3,66.07A10,10,0,0,1,45.53,77.45H29.05a6.36,6.36,0,0,0,6.25,5.9,5.78,5.78,0,0,0,5.44-3.45h4.18a9.67,9.67,0,0,1-9.62,6.63,10.23,10.23,0,1,1,0-20.46m6.13,8.39a6.21,6.21,0,0,0-12.26,0Z"/><path d="M58.94,69.33c-3.48,0-6.13,3-6.13,7s2.65,6.94,6.13,6.94c2.76,0,4.56-1.57,5.52-4.06h4.1c-.8,4.25-4.71,7.35-9.62,7.35A9.93,9.93,0,0,1,48.75,76.3c0-5.86,3.91-10.23,9.27-10.23a8.69,8.69,0,0,1,6.9,3.3V66.46h3.64v7h-4.1c-1-2.49-2.76-4.1-5.52-4.1"/><path d="M71,82.89h3.25V61.05H71V57.8h7.16V69.25a8.14,8.14,0,0,1,14.6,4.87v8.77H96v3.26H88.87V74.58a5.35,5.35,0,0,0-10.69,0v8.27h3.26v3.26H71Z"/><path d="M118.61,69.06c-2.8,0-4.22,1.19-4.22,2.76,0,4.94,13.11.23,13.11,8.93,0,3.25-2.76,5.78-7.7,5.78-2.84,0-4.91-.88-6.21-2.45v2.07H110v-6h4c.34,2,1.87,3.41,4.94,3.41,3.33,0,4.75-1.18,4.75-2.75,0-5-13.1-.31-13.1-8.93,0-3.26,2.72-5.79,7.16-5.79a7,7,0,0,1,5.67,2.38v-2H127v6H123c-.35-2-1.88-3.41-4.41-3.41"/><path d="M133.67,60.86h3.91v5.6h6.51v3.25h-6.51v9.05c0,3.48,1.88,5.24,6.51,3.87v3.29c-7.28,1.92-10.42-1.69-10.42-7.16V69.71h-3.76V66.46h3.76Z"/><path d="M156.85,66.07A10.23,10.23,0,1,1,146.51,76.3a10,10,0,0,1,10.34-10.23m0,17.17c3.57,0,6.29-2.95,6.29-6.94s-2.72-7-6.29-7-6.28,3-6.28,7,2.72,6.94,6.28,6.94"/><path d="M170,82.89h3.25V69.71H170V66.46h7.16v2.91a7,7,0,0,1,7.24-3.18v3.68c-4.21-.73-7.24,1.41-7.24,5v8h3.26v3.26H170Z"/><path d="M196,66.07a10,10,0,0,1,10.23,11.38H189.73a6.36,6.36,0,0,0,6.25,5.9,5.78,5.78,0,0,0,5.44-3.45h4.18A9.67,9.67,0,0,1,196,86.53a10.23,10.23,0,1,1,0-20.46m6.13,8.39a6.21,6.21,0,0,0-12.26,0Z"/></g></g></svg>