<svg xmlns="http://www.w3.org/2000/svg" viewBox="0 0 71.78 75.34"><defs><style>.cls-1{fill:none;stroke:#000;stroke-linecap:round;stroke-linejoin:round;stroke-width:1.54px;}</style></defs><g id="Layer_2" data-name="Layer 2"><g id="Layer_1-2" data-name="Layer 1"><path class="cls-1" d="M32.07,28.79,1.06,58a1,1,0,0,0-.29.66.94.94,0,0,0,.27.66l5,5a1,1,0,0,0,.67.27.93.93,0,0,0,.65-.29l29.18-31a.91.91,0,0,0,0-1.28l-3.12-3.13A.92.92,0,0,0,32.07,28.79Z"/><path class="cls-1" d="M61.87,63.6a1,1,0,0,0-.71-.29H30.47a1,1,0,0,0-1,1v3.42H26v3.42H20.63v3.42H71V71.15H65.67V67.73H62.16V64.31A1,1,0,0,0,61.87,63.6Z"/><path class="cls-1" d="M27.5,19.39,45.32,37.21,57.53,25a3.79,3.79,0,0,1,.39-.31L40,6.79a3.79,3.79,0,0,1-.31.39Z"/><path class="cls-1" d="M57.92,24.69a3.79,3.79,0,0,0-.39.31L45.32,37.21l-.17.17a3.75,3.75,0,0,0,5.31,5.31L62.84,30.31a3.74,3.74,0,0,0-4.92-5.62Z"/><path class="cls-1" d="M34.4,1.87,22,14.25a3.75,3.75,0,1,0,5.31,5.31l.17-.17L39.71,7.18A3.79,3.79,0,0,0,40,6.79,3.74,3.74,0,0,0,34.4,1.87Z"/></g></g></svg>