<svg xmlns="http://www.w3.org/2000/svg" viewBox="0 0 69.91 75.78"><defs><style>.cls-1,.cls-2{fill:none;stroke:#fff;stroke-linejoin:round;stroke-width:2.53px;}.cls-2{stroke-linecap:round;}</style></defs><title>gift</title><g id="Layer_2" data-name="Layer 2"><g id="Layer_1-2" data-name="Layer 1"><polyline class="cls-1" points="35.19 61.07 35.19 74.5 35.19 74.51 66.24 74.51 66.25 74.5 66.25 61.07"/><polyline class="cls-1" points="54.33 55.54 68.64 55.54 68.65 55.53 68.65 47.91 68.64 47.91 32.79 47.91 32.79 47.91 32.79 55.53 32.79 55.54 47.11 55.54"/><line class="cls-1" x1="47.11" y1="48.09" x2="47.11" y2="74.4"/><line class="cls-1" x1="54.32" y1="48.09" x2="54.32" y2="74.4"/><path class="cls-2" d="M50.73,47.78c.93-6.27,3.49-10.21,6.93-10.68a5.48,5.48,0,0,1,6.1,5.14,5.42,5.42,0,0,1-5.41,5.67"/><path class="cls-2" d="M50.7,47.78c-.93-6.27-3.49-10.21-6.93-10.68a5.43,5.43,0,1,0-.68,10.81"/><path class="cls-2" d="M19.12,16V12.42a11.1,11.1,0,1,1,22.2,0V16"/><path class="cls-1" d="M29.55,74.51H8a6.74,6.74,0,0,1-6.73-7.06l1.92-39.7a6.74,6.74,0,0,1,6.73-6.41H50.53a6.74,6.74,0,0,1,6.73,6.41l.21,4.5"/></g></g></svg>