<svg xmlns="http://www.w3.org/2000/svg" viewBox="0 0 24.09 22.99"><defs><style>.cls-1{fill:#08f0ab;}</style></defs><title>Asset 4</title><g id="Layer_2" data-name="Layer 2"><g id="Layer_1-2" data-name="Layer 1"><path class="cls-1" d="M6.32,1.3a4.37,4.37,0,0,1,1.88.4,5.07,5.07,0,0,1,2.56,3.37A1.3,1.3,0,0,0,12,6.1h0a1.3,1.3,0,0,0,1.27-1A5.14,5.14,0,0,1,15.89,1.7a4.34,4.34,0,0,1,1.88-.4A4.89,4.89,0,0,1,19,1.44a5.08,5.08,0,0,1,3.83,5.12c.11,6.77-7.9,13.15-10.75,15C9.2,19.71,1.18,13.33,1.3,6.56A5.08,5.08,0,0,1,5.13,1.44,4.73,4.73,0,0,1,6.32,1.3m0-1.3A6.73,6.73,0,0,0,4.83.17,6.35,6.35,0,0,0,0,6.54c-.16,9,11.79,16.39,11.91,16.43L12,23l.14,0c.12,0,12.06-7.43,11.91-16.43A6.35,6.35,0,0,0,19.25.17,6.53,6.53,0,0,0,17.77,0a5.85,5.85,0,0,0-2.43.52A6.4,6.4,0,0,0,12,4.8,6.34,6.34,0,0,0,8.75.52,5.89,5.89,0,0,0,6.32,0Z"/></g></g></svg>