<svg xmlns="http://www.w3.org/2000/svg" viewBox="0 0 26.59 25.49"><defs><style>.cls-1{fill:none;stroke:#fff;stroke-linecap:square;stroke-linejoin:round;stroke-width:2.5px;}</style></defs><title>Asset 4</title><g id="Layer_2" data-name="Layer 2"><g id="Layer_1-2" data-name="Layer 1"><path class="cls-1" d="M20.5,1.42a6.15,6.15,0,0,0-3.91.35,6.34,6.34,0,0,0-3.3,4.28A6.4,6.4,0,0,0,10,1.77a6.18,6.18,0,0,0-3.92-.35A6.35,6.35,0,0,0,1.25,7.79C1.09,16.8,13,24.18,13.16,24.22l.13,0,.14,0c.12,0,12.06-7.43,11.91-16.43A6.35,6.35,0,0,0,20.5,1.42Z"/></g></g></svg>