<svg xmlns="http://www.w3.org/2000/svg" viewBox="0 0 28.24 28.24"><defs><style>.cls-1{fill:#08f0ab;}</style></defs><title>instargam-green</title><g id="Layer_2" data-name="Layer 2"><g id="Layer_1-2" data-name="Layer 1"><path class="cls-1" d="M3.63,0h21a3.63,3.63,0,0,1,3.62,3.62v21a3.63,3.63,0,0,1-3.62,3.62h-21A3.63,3.63,0,0,1,0,24.62v-21A3.63,3.63,0,0,1,3.63,0ZM20.57,3.14A1.27,1.27,0,0,0,19.3,4.41v3a1.27,1.27,0,0,0,1.27,1.27h3.19A1.28,1.28,0,0,0,25,7.45v-3a1.28,1.28,0,0,0-1.28-1.27Zm4.48,8.8H22.56a8.12,8.12,0,0,1,.37,2.43,8.65,8.65,0,0,1-8.78,8.5,8.65,8.65,0,0,1-8.78-8.5,8.45,8.45,0,0,1,.36-2.43H3.14V23.87A1.12,1.12,0,0,0,4.26,25H23.93a1.12,1.12,0,0,0,1.12-1.12ZM14.15,8.56a5.59,5.59,0,0,0-5.67,5.5,5.58,5.58,0,0,0,5.67,5.49,5.58,5.58,0,0,0,5.67-5.49A5.59,5.59,0,0,0,14.15,8.56Z"/></g></g></svg>