<svg xmlns="http://www.w3.org/2000/svg" viewBox="0 0 87.76 98.54"><defs><style>.cls-1{fill:none;stroke:#fff;stroke-linecap:round;stroke-linejoin:round;stroke-width:4.11px;}.cls-2{fill:#fff;}</style></defs><title>Asset 6</title><g id="Layer_2" data-name="Layer 2"><g id="Layer_1-2" data-name="Layer 1"><path class="cls-1" d="M25,20.69V16.13a14,14,0,1,1,28,0v4.56"/><polyline class="cls-1" points="38.17 94.47 2.06 94.47 5.3 27.38 72.73 27.38 73.4 41.15"/><path class="cls-2" d="M48.38,51.59h0a8.74,8.74,0,0,1,3.7.79c3.9,1.81,5,6.2,5.06,6.7a4,4,0,0,0,3.91,3.15h0A4,4,0,0,0,65,59.09c.11-.5,1.18-4.9,5.1-6.71a8.75,8.75,0,0,1,3.71-.79,10.13,10.13,0,0,1,2.37.28c4.61,1.07,7.53,5,7.62,10.28.26,14.8-17.2,28-22.69,31.77-5.49-3.77-23-17-22.69-31.77.09-5.27,3-9.21,7.62-10.28a10.16,10.16,0,0,1,2.38-.28m0-4a13.89,13.89,0,0,0-3.29.39c-6.38,1.48-10.59,7-10.71,14.1C34,82.05,60.51,98.42,60.77,98.5a1.14,1.14,0,0,0,.6,0c.26-.08,26.74-16.47,26.39-36.42C87.64,55,83.43,49.46,77.05,48a13.86,13.86,0,0,0-3.28-.39,12.91,12.91,0,0,0-5.39,1.15c-5.72,2.65-7.16,8.73-7.33,9.49-.16-.76-1.59-6.84-7.29-9.48a12.76,12.76,0,0,0-5.38-1.16Z"/></g></g></svg>