<svg xmlns="http://www.w3.org/2000/svg" viewBox="0 0 93.4 67.04"><defs><style>.cls-1{fill:none;stroke:#000;stroke-linecap:round;stroke-linejoin:round;stroke-width:3px;}</style></defs><title>lap top</title><g id="Layer_2" data-name="Layer 2"><g id="Layer_1-2" data-name="Layer 1"><path class="cls-1" d="M15.06,1.5H78.33A3.66,3.66,0,0,1,82,5.15V46.69a3.66,3.66,0,0,1-3.65,3.65H15.06a3.66,3.66,0,0,1-3.65-3.65V5.15A3.66,3.66,0,0,1,15.06,1.5Zm64.7,49.08,12,13.6m0,0c.42.6-.63,1.36-1.37,1.36m0,0H3c-.73,0-1.87-.8-1.37-1.36l12.05-13.6m3.2-43.21H76.53V44.24H16.87V7.37Z"/></g></g></svg>