<svg xmlns="http://www.w3.org/2000/svg" viewBox="0 0 195.26 59.02"><defs><style>.cls-1{fill:#07efac;}</style></defs><title>Asset 5</title><g id="Layer_2" data-name="Layer 2"><g id="Layer_1-2" data-name="Layer 1"><path d="M88.38,26.89h-5l-1.16-3.37H75.75l-1.14,3.37H69.68L76.26,9.26h5.55ZM77.21,19.25h3.56L79,14Z"/><polygon points="93.94 18.3 94.67 18.3 97.15 14.41 102.46 14.41 98.16 20.3 102.46 26.89 97.18 26.89 94.55 22.24 93.94 22.24 93.94 26.89 89.53 26.89 89.53 8.75 93.94 8.75 93.94 18.3"/><path d="M115.15,26.89h-4.24v-1.1a4.24,4.24,0,0,1-3.35,1.42c-3.29,0-5.59-3-5.59-6.58s2.3-6.56,5.6-6.56a4.17,4.17,0,0,1,3.34,1.46V14.41h4.24Zm-8.63-6.25a2.19,2.19,0,1,0,4.36,0,2.19,2.19,0,1,0-4.36,0"/><path d="M136.73,18.76v8.13h-4.42V20.17c0-1.24-.58-1.91-1.55-1.91s-1.53.57-1.53,1.94v6.69h-4.42V20.17c0-1.24-.58-1.91-1.55-1.91s-1.54.57-1.54,1.94v6.69h-4.41V14.41h4.2v1.28a3.66,3.66,0,0,1,3.33-1.62A4.16,4.16,0,0,1,128.48,16a3.92,3.92,0,0,1,3.66-1.92,4.31,4.31,0,0,1,4.59,4.69"/><path d="M148.79,21.33v5.56h-4.72V9.26h7.74c4.42,0,6.74,2.46,6.74,6.09s-2.32,6-6.68,6Zm0-7.78v3.59h3a1.81,1.81,0,1,0,0-3.59Z"/><path d="M172.34,26.89H168.1v-1.1a4.26,4.26,0,0,1-3.35,1.42c-3.29,0-5.6-3-5.6-6.58s2.31-6.56,5.61-6.56a4.18,4.18,0,0,1,3.34,1.46V14.41h4.24Zm-8.63-6.25a2.19,2.19,0,1,0,4.36,0,2.19,2.19,0,1,0-4.36,0"/><path d="M183.08,14.19l-.25,4.49a7.62,7.62,0,0,0-1.93-.29c-1.23,0-2,.44-2,1.81v6.69H174.5V14.41h4.21v1.26a3.49,3.49,0,0,1,3.26-1.6,5.46,5.46,0,0,1,1.11.12"/><path d="M193.84,18.54a13.1,13.1,0,0,0-4.14-.92c-.85,0-1.07.17-1.07.46,0,.46.85.48,2,.67l.75.13c2.61.44,3.92,1.75,3.92,3.83,0,2.88-2.12,4.5-5.72,4.5A12.14,12.14,0,0,1,183.7,26l1.41-3.5a9.17,9.17,0,0,0,4.45,1.13c1,0,1.28-.16,1.28-.53s-.51-.48-1.87-.69l-.48-.08c-3-.48-4.41-1.71-4.41-4,0-2.74,2-4.25,5.41-4.25a14.33,14.33,0,0,1,5.41,1Z"/><polygon points="72.29 43.65 73.98 43.65 73.98 35.3 71.38 35.3 71.38 37.4 69.75 37.4 69.75 33.76 80.01 33.76 80.01 37.4 78.38 37.4 78.38 35.3 75.76 35.3 75.76 43.65 77.46 43.65 77.46 45.07 72.29 45.07 72.29 43.65"/><path d="M84.56,36.6a4.23,4.23,0,0,1,4.32,4.8H81.93a2.68,2.68,0,0,0,2.63,2.49,2.45,2.45,0,0,0,2.3-1.45h1.76a4.09,4.09,0,0,1-4.06,2.79,4.32,4.32,0,1,1,0-8.63m2.59,3.54a2.62,2.62,0,0,0-5.17,0Z"/><path d="M94.53,38A2.71,2.71,0,0,0,92,40.92a2.7,2.7,0,0,0,2.58,2.92,2.4,2.4,0,0,0,2.33-1.71h1.73a4,4,0,0,1-4.06,3.1,4.19,4.19,0,0,1-4.3-4.31,4,4,0,0,1,3.91-4.32A3.68,3.68,0,0,1,97.05,38V36.77h1.54v2.94H96.86A2.42,2.42,0,0,0,94.53,38"/><path d="M99.62,43.7H101V34.49H99.62V33.12h3v4.82A3.44,3.44,0,0,1,108.8,40v3.7h1.37v1.37h-3V40.19a2.26,2.26,0,0,0-4.51,0V43.7H104v1.37H99.62Z"/><path d="M119.68,37.86c-1.18,0-1.77.51-1.77,1.17,0,2.08,5.52.09,5.52,3.76,0,1.37-1.16,2.44-3.25,2.44a3.23,3.23,0,0,1-2.61-1v.87H116V42.53h1.67c.14.84.79,1.44,2.08,1.44s2-.5,2-1.16c0-2.09-5.52-.13-5.52-3.77,0-1.37,1.15-2.44,3-2.44a2.94,2.94,0,0,1,2.39,1v-.84h1.53V39.3h-1.66a1.71,1.71,0,0,0-1.86-1.44"/><path d="M126,34.41h1.65v2.36h2.75v1.37h-2.75V42c0,1.47.79,2.21,2.75,1.63V45c-3.07.81-4.4-.71-4.4-3V38.14h-1.58V36.77H126Z"/><path d="M135.81,36.6a4.32,4.32,0,1,1-4.37,4.32,4.23,4.23,0,0,1,4.37-4.32m0,7.24a2.94,2.94,0,1,0-2.65-2.92,2.72,2.72,0,0,0,2.65,2.92"/><path d="M141.36,43.7h1.38V38.14h-1.38V36.77h3V38a3,3,0,0,1,3.06-1.34V38.2c-1.78-.3-3.06.6-3.06,2.12V43.7h1.38v1.37h-4.4Z"/><path d="M152.3,36.6a4.23,4.23,0,0,1,4.31,4.8h-6.94a2.67,2.67,0,0,0,2.63,2.49,2.43,2.43,0,0,0,2.29-1.45h1.76a4.07,4.07,0,0,1-4,2.79,4.32,4.32,0,1,1,0-8.63m2.58,3.54a2.62,2.62,0,0,0-5.17,0Z"/><path class="cls-1" d="M45.75,0H13.27A13.27,13.27,0,0,0,0,13.27V45.75A13.27,13.27,0,0,0,13.27,59H45.75A13.28,13.28,0,0,0,59,45.75V13.27A13.27,13.27,0,0,0,45.75,0m-25,44.53H9l8.76-15.18H29.51Zm17.57,0L29.53,29.32h0L23.66,19.19,29.53,9,50,44.53Z"/></g></g></svg>