<svg xmlns="http://www.w3.org/2000/svg" viewBox="0 0 64.12 104.57"><defs><style>.cls-1{fill:none;stroke:#000;stroke-miterlimit:10;stroke-width:0.95px;}</style></defs><g id="Layer_2" data-name="Layer 2"><g id="Layer_1-2" data-name="Layer 1"><path class="cls-1" d="M35.47,95.07V89s6-4.53,6-10.06v-6"/><path class="cls-1" d="M19.37,44.75,9.31,54.82c-2.85,2.6-4,4.09-4,8v32.2"/><path class="cls-1" d="M13.33,68.9l16.1-16.1c3.71-3.7,9.47,5.53,5.06,11.05L29.43,68.9v6c0,7.89-6.86,8-8,8"/><path class="cls-1" d="M19.37,62.87V4.5a4,4,0,0,1,4-4H59.62a4,4,0,0,1,4,4V68.9a4,4,0,0,1-4,4H29.43"/><line class="cls-1" x1="39.5" y1="66.89" x2="45.53" y2="66.89"/><line class="cls-1" x1="35.47" y1="60.85" x2="63.65" y2="60.85"/><path class="cls-1" d="M46.17,18.77a6,6,0,0,0-9.32,0"/><path class="cls-1" d="M52.33,13.59a14.08,14.08,0,0,0-21.64,0"/><path class="cls-1" d="M43.34,23.58a2.14,2.14,0,0,0-3.29,0"/><rect class="cls-1" x="0.47" y="95.89" width="39.41" height="8.21"/></g></g></svg>