<svg xmlns="http://www.w3.org/2000/svg" viewBox="0 0 105.78 67.04"><defs><style>.cls-1{fill:none;stroke:#000;stroke-miterlimit:10;stroke-width:0.95px;}</style></defs><g id="Layer_2" data-name="Layer 2"><g id="Layer_1-2" data-name="Layer 1"><path class="cls-1" d="M11.87,39.22h6.84s5.12,6.83,11.39,6.83h9.12"/><path class="cls-1" d="M66.57,21,57.45,9.59C54.5,6.37,52.81,5,48.33,5H11.87"/><rect class="cls-1" x="0.47" y="0.47" width="11.4" height="43.3"/><path class="cls-1" d="M41.5,14.15,59.73,32.38c4.2,4.2-6.26,10.72-12.51,5.72L41.5,32.38H34.66c-8.94,0-9.12-7.78-9.12-9.12"/><path class="cls-1" d="M50.61,21h50.14a4.56,4.56,0,0,1,4.56,4.55V62a4.56,4.56,0,0,1-4.56,4.56h-57A4.56,4.56,0,0,1,39.22,62V32.38"/><line class="cls-1" x1="105.31" y1="55.17" x2="39.22" y2="55.17"/></g></g></svg>