<svg xmlns="http://www.w3.org/2000/svg" viewBox="0 0 25.89 23.17"><defs><style>.cls-1{fill:none;stroke:#fff;stroke-miterlimit:10;stroke-width:0.89px;}</style></defs><title>Asset 3</title><g id="Layer_2" data-name="Layer 2"><g id="Layer_1-2" data-name="Layer 1"><path class="cls-1" d="M20.55,8.6V1.53A1.08,1.08,0,0,0,19.47.44H1.53A1.09,1.09,0,0,0,.44,1.53V12.4a1.09,1.09,0,0,0,1.09,1.09H4.25"/><line class="cls-1" x1="20.55" y1="3.16" x2="0.44" y2="3.16"/><line class="cls-1" x1="20.55" y1="6.42" x2="0.44" y2="6.42"/><rect class="cls-1" x="5.33" y="9.68" width="20.11" height="13.04" rx="1.09"/><line class="cls-1" x1="7.51" y1="18.92" x2="10.23" y2="18.92"/><line class="cls-1" x1="11.86" y1="18.92" x2="14.57" y2="18.92"/><line class="cls-1" x1="16.2" y1="18.92" x2="18.92" y2="18.92"/><line class="cls-1" x1="20.55" y1="18.92" x2="23.27" y2="18.92"/><path class="cls-1" d="M22.73,14.3a1.91,1.91,0,0,1-1.91,1.9h-.54a1.9,1.9,0,0,1-1.9-1.9h0a1.9,1.9,0,0,1,1.9-1.9h.54a1.91,1.91,0,0,1,1.91,1.9Z"/></g></g></svg>