<svg xmlns="http://www.w3.org/2000/svg" viewBox="0 0 23.76 23.29"><defs><style>.cls-1{fill:#fff;}</style></defs><title>Asset 1</title><g id="Layer_2" data-name="Layer 2"><g id="Layer_1-2" data-name="Layer 1"><path class="cls-1" d="M22.68,23.29H1.08A1.08,1.08,0,0,1,0,22.21V14.32a1.1,1.1,0,0,1,.38-.82L5.3,9.27A1.09,1.09,0,0,1,6,9h5.92A1.08,1.08,0,0,1,13,10.09V18A1.07,1.07,0,0,1,11.93,19h-.11A1.07,1.07,0,0,1,10.75,18V12.24a1.09,1.09,0,0,0-1.08-1.08H6.88a1.15,1.15,0,0,0-.71.26l-3.53,3a1.08,1.08,0,0,0-.38.82v4.77a1.08,1.08,0,0,0,1.08,1.08H20.42a1.07,1.07,0,0,0,1.07-1.08v-4.8a1.08,1.08,0,0,0-.35-.8l-3.32-3a1.07,1.07,0,0,0-.72-.28h-.64a1.07,1.07,0,0,1-1.08-1.07h0A1.08,1.08,0,0,1,16.46,9H18a1,1,0,0,1,.72.28l4.68,4.23a1.05,1.05,0,0,1,.36.8v7.89A1.08,1.08,0,0,1,22.68,23.29Z"/><path class="cls-1" d="M14.74,6.73H9a.57.57,0,0,1-.57-.57V.57A.57.57,0,0,1,9,0h5.72a.58.58,0,0,1,.57.57V6.16A.58.58,0,0,1,14.74,6.73ZM11.28,4.57h1.2A.57.57,0,0,0,13.05,4V2.73a.57.57,0,0,0-.57-.57h-1.2a.57.57,0,0,0-.57.57V4A.57.57,0,0,0,11.28,4.57Z"/></g></g></svg>