<?xml version="1.0" standalone="no"?>
<!DOCTYPE svg PUBLIC "-//W3C//DTD SVG 20010904//EN"
 "http://www.w3.org/TR/2001/REC-SVG-20010904/DTD/svg10.dtd">
<svg version="1.0" xmlns="http://www.w3.org/2000/svg"
 width="500.000000pt" height="500.000000pt" viewBox="0 0 500.000000 500.000000"
 preserveAspectRatio="xMidYMid meet">
<metadata>
Created by potrace 1.16, written by Peter Selinger 2001-2019
</metadata>
<g transform="translate(0.000000,500.000000) scale(0.100000,-0.100000)"
fill="#000000" stroke="none">
<path d="M2332 4205 c-94 -17 -201 -50 -282 -86 -68 -31 -158 -85 -175 -104
-5 -6 -35 -29 -65 -52 -112 -82 -215 -209 -295 -364 -131 -254 -134 -683 -5
-939 91 -182 182 -294 319 -393 25 -18 46 -37 48 -44 2 -6 -33 -30 -79 -53
-125 -63 -236 -141 -352 -248 -146 -135 -248 -266 -343 -442 -71 -132 -146
-414 -159 -603 l-7 -97 157 0 c127 0 156 3 156 14 0 63 26 237 45 306 83 297
247 532 490 705 109 78 282 154 430 188 335 79 722 7 1000 -187 292 -204 491
-544 527 -901 l12 -125 154 0 155 0 -6 99 c-9 125 -28 221 -79 391 -66 220
-184 415 -358 589 -151 152 -258 232 -424 317 -42 21 -76 42 -76 46 0 4 21 22
47 40 123 85 262 258 336 419 113 242 108 667 -9 900 -78 158 -184 294 -286
372 -30 23 -70 54 -89 69 -57 44 -179 105 -274 137 -176 58 -356 74 -513 46z
m352 -320 c289 -76 503 -293 577 -585 23 -89 18 -288 -9 -383 -39 -137 -133
-292 -227 -374 -75 -65 -203 -138 -300 -170 -72 -24 -94 -27 -225 -27 -132 0
-152 2 -225 28 -143 49 -296 148 -361 233 -92 121 -126 184 -159 298 -31 109
-40 218 -26 319 51 359 319 625 686 680 54 8 209 -3 269 -19z"/>
</g>
</svg>
