<svg xmlns="http://www.w3.org/2000/svg" viewBox="0 0 28.53 28.53"><defs><style>.cls-1{fill:#08f0ab;}</style></defs><title>pintrest-green</title><g id="Layer_2" data-name="Layer 2"><g id="Layer_1-2" data-name="Layer 1"><path class="cls-1" d="M14.26,0A14.26,14.26,0,0,0,8.54,27.33a12.39,12.39,0,0,1,.25-3.28c.27-1.16,1.83-7.77,1.83-7.77A5.54,5.54,0,0,1,10.17,14c0-2.11,1.22-3.69,2.75-3.69a1.91,1.91,0,0,1,1.92,2.14c0,1.31-.83,3.26-1.26,5.06a2.21,2.21,0,0,0,2.25,2.75c2.7,0,4.52-3.47,4.52-7.58,0-3.13-2.1-5.47-5.93-5.47a6.75,6.75,0,0,0-7,6.83,4.08,4.08,0,0,0,.94,2.8.68.68,0,0,1,.2.79c-.06.27-.22.9-.29,1.15a.49.49,0,0,1-.71.36c-2-.82-2.92-3-2.92-5.45C4.62,9.66,8,4.8,14.81,4.8c5.45,0,9,3.94,9,8.17,0,5.59-3.11,9.77-7.69,9.77A4.1,4.1,0,0,1,12.66,21s-.83,3.28-1,3.92a11.76,11.76,0,0,1-1.44,3.05A14.26,14.26,0,1,0,14.26,0Z"/></g></g></svg>