<svg xmlns="http://www.w3.org/2000/svg" viewBox="0 0 36.29 36.29"><defs><style>.cls-1{fill:#08f0ab;fill-rule:evenodd;}</style></defs><title>plus-small</title><g id="Layer_2" data-name="Layer 2"><g id="Layer_1-2" data-name="Layer 1"><path class="cls-1" d="M18.16,36.25h0a1.52,1.52,0,0,1-1.77-1.77V19.9H1.8c-1.18,0-2-.76-1.76-1.77C0,17,.79,16.2,1.75,16.42H16.44L16.38,1.8c0-1.18.76-1.94,1.76-1.77,1-.2,1.79.6,1.77,1.77l0,14.6,14.61,0a1.56,1.56,0,0,1,1.77,1.77c.14,1-.63,1.73-1.77,1.76L20,19.93l-.09,14.61c.19.92-.57,1.68-1.71,1.71Z"/></g></g></svg>