<svg xmlns="http://www.w3.org/2000/svg" viewBox="0 0 258.89 38.06"><g id="Layer_2" data-name="Layer 2"><g id="Layer_1-2" data-name="Layer 1"><path d="M38.56,37.39H28.25l-2.38-6.93H12.5l-2.35,6.93H0L13.55,1H25Zm-23-15.74h7.34L19.2,10.9Z"/><polygon points="50.01 19.68 51.52 19.68 56.63 11.66 67.58 11.66 58.7 23.81 67.58 37.39 56.69 37.39 51.26 27.81 50.01 27.81 50.01 37.39 40.91 37.39 40.91 0 50.01 0 50.01 19.68"/><path d="M93.73,37.39H85V35.13a8.76,8.76,0,0,1-6.9,2.93c-6.78,0-11.53-6.1-11.53-13.58S71.31,11,78.11,11A8.6,8.6,0,0,1,85,14V11.66h8.74ZM75.94,24.51c0,2.88,1.89,5,4.5,5s4.5-2.08,4.5-5-1.89-5-4.5-5-4.5,2.08-4.5,5"/><path d="M138.22,20.64V37.39h-9.1V23.55c0-2.57-1.2-3.95-3.19-3.95-1.77,0-3.17,1.17-3.17,4V37.39h-9.11V23.55c0-2.57-1.2-3.95-3.19-3.95-1.77,0-3.17,1.17-3.17,4V37.39H98.18V11.66h8.67v2.65c1.43-2.24,3.68-3.35,6.85-3.35a8.57,8.57,0,0,1,7.52,4c1.54-2.65,4.07-4,7.54-4,5.86,0,9.46,3.76,9.46,9.68"/><path d="M163.08,25.94V37.39h-9.72V1h16c9.1,0,13.88,5.09,13.88,12.56s-4.78,12.34-13.76,12.34Zm0-16v7.4h6.13c2.41,0,4.17-1.32,4.17-3.69s-1.76-3.71-4.17-3.71Z"/><path d="M211.63,37.39h-8.74V35.13a8.76,8.76,0,0,1-6.9,2.93c-6.78,0-11.53-6.1-11.53-13.58S189.21,11,196,11a8.6,8.6,0,0,1,6.88,3V11.66h8.74ZM193.84,24.51c0,2.88,1.89,5,4.5,5s4.5-2.08,4.5-5-1.89-5-4.5-5-4.5,2.08-4.5,5"/><path d="M233.78,11.22l-.52,9.24a15.52,15.52,0,0,0-4-.6c-2.53,0-4.07.91-4.07,3.74V37.39h-9.13V11.66h8.7v2.59C226.18,12,228.41,11,231.5,11a11.09,11.09,0,0,1,2.28.26"/><path d="M256,20.17a27.09,27.09,0,0,0-8.54-1.89c-1.76,0-2.2.36-2.2,1,0,.93,1.74,1,4,1.38l1.54.26c5.39.9,8.08,3.6,8.08,7.89,0,5.94-4.38,9.29-11.79,9.29-5,0-9.49-.91-12-2.46L238,28.38a18.71,18.71,0,0,0,9.18,2.34c2,0,2.63-.34,2.63-1.1s-1-1-3.86-1.42l-1-.16c-6.27-1-9.08-3.53-9.08-8.31,0-5.66,4.07-8.77,11.15-8.77a29.41,29.41,0,0,1,11.14,2Z"/></g></g></svg>