<svg xmlns="http://www.w3.org/2000/svg" viewBox="0 0 89.95 112.82"><defs><style>.cls-1{fill:none;stroke:#000;stroke-miterlimit:10;stroke-width:0.95px;}</style></defs><g id="Layer_2" data-name="Layer 2"><g id="Layer_1-2" data-name="Layer 1"><path class="cls-1" d="M84.91,42.47H76.5V33.35C76.5,15.21,63.67.47,47.87.47H43.53C27.72.47,14.88,15.21,14.88,33.35v9.12H5.05A4.56,4.56,0,0,0,.47,47v60.77a4.58,4.58,0,0,0,4.58,4.56H84.91a4.56,4.56,0,0,0,4.56-4.56V47A4.54,4.54,0,0,0,84.91,42.47ZM48.3,77l1,14.53H42.53l1-14.53a7,7,0,1,1,4.75,0ZM26.49,42.47V33.35c0-11.73,7.64-21.29,17-21.29h4.34c9.41,0,17,9.56,17,21.29v9.12Z"/></g></g></svg>