<svg xmlns="http://www.w3.org/2000/svg" viewBox="0 0 74.91 100.2"><defs><style>.cls-1{fill:#07efac;}</style></defs><title>question-sign</title><g id="Layer_2" data-name="Layer 2"><g id="Layer_1-2" data-name="Layer 1"><path class="cls-1" d="M27.66,68.57V58.14a8,8,0,0,1,1.18-4.21,23.19,23.19,0,0,1,3.34-4.31c1.41-1.47,2.94-2.92,4.52-4.32a65.12,65.12,0,0,0,4.75-4.63,27.54,27.54,0,0,0,3.8-5.19,13,13,0,0,0,1.62-6.37,13.61,13.61,0,0,0-.74-4.44,11.32,11.32,0,0,0-2.25-3.85,11.51,11.51,0,0,0-3.58-2.66,11.11,11.11,0,0,0-4.83-1,11.37,11.37,0,0,0-5.74,1.31,9.69,9.69,0,0,0-3.51,3.39,12.71,12.71,0,0,0-1.63,4.56,30.73,30.73,0,0,0-.38,4.82s0,2.21,0,2.32H.27c0-.45-.09-.88-.14-1.31C.05,31.4,0,30.52,0,29.62A26.1,26.1,0,0,1,2.84,17.39a28,28,0,0,1,8-9.31A37.53,37.53,0,0,1,23,2.1,56,56,0,0,1,38.72,0,51,51,0,0,1,53.65,2.06,34.53,34.53,0,0,1,65.06,7.84a25.89,25.89,0,0,1,7.27,9,26.43,26.43,0,0,1,2.58,11.73,18.81,18.81,0,0,1-1.72,8.24,28.62,28.62,0,0,1-4.43,6.66,40.92,40.92,0,0,1-5.83,5.38q-3.24,2.44-6,4.5A42.08,42.08,0,0,0,52,57.41a7.1,7.1,0,0,0-2.36,5v6.17Z"/><rect class="cls-1" x="27.74" y="79.65" width="22.25" height="20.55"/></g></g></svg>