<svg xmlns="http://www.w3.org/2000/svg" viewBox="0 0 114.99 125.1"><defs><style>.cls-1{fill:none;stroke:#000;stroke-miterlimit:10;stroke-width:0.95px;}</style></defs><g id="Layer_2" data-name="Layer 2"><g id="Layer_1-2" data-name="Layer 1"><path class="cls-1" d="M15.08,23.43A25.69,25.69,0,0,1,61.42,11.08l3,4.15,5.55-4,0,23.3L47.8,27.31l5.55-4-3-4.16-3-4.15a13.7,13.7,0,0,0-19.14-3"/><path class="cls-1" d="M46.84,74.94l-9,9a6.32,6.32,0,0,1,0,9l13.5,13.49a6.31,6.31,0,0,1,9,0l36-36a6.32,6.32,0,0,1,0-9L82.83,48a6.32,6.32,0,0,1-9,0c-1,1-5.62,5.61-11.25,11.25"/><line class="cls-1" x1="76.08" y1="68.19" x2="80.58" y2="63.69"/><line class="cls-1" x1="51.34" y1="92.94" x2="55.83" y2="88.44"/><polyline class="cls-1" points="40.09 70.44 19.84 90.69 53.59 124.43 114.32 63.69 80.58 29.95 55.79 54.74"/><circle class="cls-1" cx="65.96" cy="78.31" r="7.87"/><path class="cls-1" d="M8.6,68.19h6.75s5.06,6.75,11.24,6.75h9"/><path class="cls-1" d="M62.58,48l-9-9c-2.92-3.18-4.58-4.5-9-4.5H8.6"/><path class="cls-1" d="M37.84,43.45l18,18C60,65.59,49.66,72,43.48,67.09l-5.64-5.65H31.09c-8.82,0-9-7.67-9-9"/><rect class="cls-1" x="0.47" y="30.99" width="7.69" height="42.28"/></g></g></svg>