<svg xmlns="http://www.w3.org/2000/svg" viewBox="0 0 141.34 157.86"><defs><style>.cls-1,.cls-2{fill:none;stroke:#000;stroke-miterlimit:10;}.cls-1{stroke-width:0.93px;}.cls-2{stroke-width:0.88px;}</style></defs><g id="Layer_2" data-name="Layer 2"><g id="Layer_1-2" data-name="Layer 1"><path class="cls-1" d="M58.89,82.8l9.44,2.38a2.89,2.89,0,0,0,3.51-2.09l3.52-13.92a2.89,2.89,0,0,1,3.51-2.09L90,69.89a2.89,2.89,0,0,1,2.1,3.51l-8.6,34.16a2.84,2.84,0,0,1-2,2.08,26.08,26.08,0,0,0-13.3,8.06,2.86,2.86,0,0,1-2.81.83l-43-10.84a2.89,2.89,0,0,1-2.1-3.51L31.83,58.24a2.88,2.88,0,0,1,3.5-2.1l8.49,2.11,14.4,3.63a2.89,2.89,0,0,1,2.1,3.51L56.8,79.29A2.88,2.88,0,0,0,58.89,82.8Z"/><path class="cls-1" d="M73.36,65.93l-15-3.8-14.4-3.62A2.89,2.89,0,0,1,41.82,55L52,14.58a2.89,2.89,0,0,1,3.51-2.1L61,13.86a2.89,2.89,0,0,1,2.09,3.51L60.46,27.88a2.9,2.9,0,0,0,2.1,3.51l6.8,1.72A2.89,2.89,0,0,0,72.87,31L75.51,20.5A2.89,2.89,0,0,1,79,18.4l19.92,5a2.9,2.9,0,0,1,2.1,3.52L90.84,67.34a2.89,2.89,0,0,1-3.51,2.1Z"/><path class="cls-1" d="M.55,120,3,110.27a2.89,2.89,0,0,1,3.51-2.1L67,123.42a2.85,2.85,0,0,0,3-1.08,22,22,0,0,1,14.69-8.9,2.86,2.86,0,0,0,2.33-2.14L113.48,6.41A7.88,7.88,0,0,1,123,.71l17.24,4a15.21,15.21,0,0,1-4.43,15.52l-6.18-1.55a2.91,2.91,0,0,0-3.51,2.1L102.1,116.24a2.83,2.83,0,0,0,.81,2.78,22.1,22.1,0,1,1-36.29,22,2.84,2.84,0,0,0-2.06-2L2.65,123.5A2.89,2.89,0,0,1,.55,120Z"/><circle class="cls-2" cx="88.3" cy="135.4" r="14.9"/></g></g></svg>