<svg xmlns="http://www.w3.org/2000/svg" viewBox="0 0 64.23 65.99"><defs><style>.cls-1{fill:none;stroke:#000;stroke-linecap:round;stroke-linejoin:round;stroke-width:3px;}</style></defs><title>stationary</title><g id="Layer_2" data-name="Layer 2"><g id="Layer_1-2" data-name="Layer 1"><line class="cls-1" x1="28.51" y1="64.49" x2="60.58" y2="64.49"/><path class="cls-1" d="M22.74,11.62l9.16,5.29c6,3.44,6.48,13.83,1.13,23.08l-.67,1.18L1.5,23.35l.68-1.17c5.34-9.26,14.59-14,20.56-10.56Z"/><path class="cls-1" d="M31.86,1.84l4,2.28c2.57,1.48,1.93,7.44-1.42,13.24L34,18.1,20.68,10.43l.42-.74c3.35-5.8,8.19-9.33,10.76-7.85Z"/><path class="cls-1" d="M57.35,21.4A5.38,5.38,0,1,1,52,26.78a5.38,5.38,0,0,1,5.38-5.38Z"/><line class="cls-1" x1="36.5" y1="12.7" x2="53.54" y2="22.98"/><line class="cls-1" x1="54.55" y1="31.98" x2="44.54" y2="64.49"/><path class="cls-1" d="M8.8,28.82a10.12,10.12,0,0,0-.2,2,9.89,9.89,0,0,0,9.89,9.89,10,10,0,0,0,2-.2,9.58,9.58,0,0,0,1.86-.58c.29-.12.58-.26.86-.41s.56-.32.82-.5.52-.37.76-.57"/></g></g></svg>