<?xml version="1.0" encoding="utf-8"?>
<!-- Generator: Adobe Illustrator 23.0.0, SVG Export Plug-In . SVG Version: 6.00 Build 0)  -->
<svg version="1.1" id="Layer_1" xmlns="http://www.w3.org/2000/svg" xmlns:xlink="http://www.w3.org/1999/xlink" x="0px" y="0px"
	 viewBox="0 0 83.3 82.6" style="enable-background:new 0 0 83.3 82.6;" xml:space="preserve">
<style type="text/css">
	.st0{fill:#404040;}
</style>
<g>
	<g>
		<g>
			<g>
				<g>
					<path class="st0" d="M9.5,69.1L7,67.9c0.2-0.4,4.6-9.1,12.2-10.6l9.6-2.8c1.6-0.7,3.3-2.1,3.3-2.9v-7h2.8v7
						c0,3.1-4.2,5.1-5,5.5c-0.1,0-0.1,0-0.2,0.1L19.9,60C13.5,61.3,9.5,69,9.5,69.1z"/>
				</g>
				<g>
					<path class="st0" d="M74.4,69.1c0-0.1-4-7.8-10.3-9.1l-9.9-2.8c-0.1,0-0.1,0-0.2-0.1c-0.8-0.4-5-2.4-5-5.5v-7h2.8v7
						c0,0.9,1.9,2.3,3.3,2.9l9.7,2.8c7.5,1.5,11.9,10.2,12.1,10.6L74.4,69.1z"/>
				</g>
				<g>
					<path class="st0" d="M41.9,50.2c-9.6,0-14-10.9-14-21.1v-4.2c0-2.6,1.8-4.8,4.2-5.4v-3c0-0.5,0.3-0.9,0.7-1.2s0.9-0.3,1.4-0.1
						l8.1,4.1h8.1c3.1,0,5.6,2.5,5.6,5.6v4.2C56,39.3,51.6,50.2,41.9,50.2z M34.9,18.8v1.9c0,0.8-0.6,1.4-1.4,1.4
						c-1.5,0-2.8,1.3-2.8,2.8v4.2c0,8.8,3.5,18.3,11.2,18.3S53.2,38,53.2,29.2V25c0-1.5-1.3-2.8-2.8-2.8H42c-0.2,0-0.4-0.1-0.6-0.1
						L34.9,18.8z"/>
				</g>
				<g>
					<path class="st0" d="M44.8,62.9h-5.6c-0.4,0-0.7-0.1-1-0.4L33,57.3h-3.6v-2.8h4.2c0.4,0,0.7,0.1,1,0.4l5.2,5.2h4.5l5.2-5.2
						c0.3-0.3,0.6-0.4,1-0.4h4.2v2.8H51l-5.2,5.2C45.5,62.7,45.1,62.9,44.8,62.9z"/>
				</g>
				<g>
					<rect x="40.5" y="72.7" class="st0" width="2.8" height="2.8"/>
				</g>
				<g>
					<rect x="40.5" y="67.1" class="st0" width="2.8" height="2.8"/>
				</g>
				<g>
					<rect x="49" y="69.9" class="st0" width="11.2" height="2.8"/>
				</g>
				<g>
					<path class="st0" d="M61.6,22.1h-2.8v-1.4c0-6.5-4.9-11.9-11.2-12.6v1.3c0,0.5-0.2,0.9-0.6,1.1c-0.4,0.3-0.8,0.3-1.3,0.2
						L37.5,8c-6.9,0.1-12.4,5.7-12.4,12.6V22h-2.8v-1.4c0-8.5,6.9-15.4,15.4-15.4c0.2,0,0.3,0,0.4,0.1l6.6,2.2V6.7
						c0-0.8,0.6-1.4,1.4-1.4c8.5,0,15.4,6.9,15.4,15.4L61.6,22.1L61.6,22.1z"/>
				</g>
			</g>
			<g>
				<path class="st0" d="M27.9,39c-5.4,0-9.8-4.4-9.8-9.8s4.4-9.8,9.8-9.8v2.8c-3.9,0-7,3.2-7,7s3.2,7,7,7
					C27.9,36.2,27.9,39,27.9,39z"/>
			</g>
			<g>
				<path class="st0" d="M56,39v-2.8c3.9,0,7-3.2,7-7s-3.2-7-7-7v-2.8c5.4,0,9.8,4.4,9.8,9.8S61.4,39,56,39z"/>
			</g>
			<g>
				<path class="st0" d="M58.8,44.6H43.4c-2.3,0-4.2-1.9-4.2-4.2H42c0,0.8,0.6,1.4,1.4,1.4h15.4c0.8,0,1.4-0.6,1.4-1.4v-5.6H63v5.6
					C63,42.7,61.1,44.6,58.8,44.6z"/>
			</g>
		</g>
	</g>
</g>
</svg>
