<svg xmlns="http://www.w3.org/2000/svg" viewBox="0 0 31.37 26.42"><defs><style>.cls-1{fill:#08f0ab;}</style></defs><title>telegram-green</title><g id="Layer_2" data-name="Layer 2"><g id="Layer_1-2" data-name="Layer 1"><path class="cls-1" d="M29.35.1.67,11.28a1,1,0,0,0,.08,2L8,15.41l2.72,8.64a1.25,1.25,0,0,0,2.09.49l3.77-3.85L24,26.13a1.55,1.55,0,0,0,2.43-.93L31.33,1.78a1.48,1.48,0,0,0-2-1.68ZM25.76,5.3,12.43,17.08a.74.74,0,0,0-.24.46l-.51,4.56a.14.14,0,0,1-.27,0L9.3,15.32a.73.73,0,0,1,.31-.82L25.34,4.75a.35.35,0,0,1,.42.55Z"/></g></g></svg>