<svg xmlns="http://www.w3.org/2000/svg" viewBox="0 0 17.21 14.5"><defs><style>.cls-1{fill:#c8c8c8;}</style></defs><title>telegram</title><g id="Layer_2" data-name="Layer 2"><g id="Layer_1-2" data-name="Layer 1"><path class="cls-1" d="M16.1.06.37,6.19a.57.57,0,0,0,0,1.08l4,1.18L5.9,13.19a.69.69,0,0,0,1.15.27l2.07-2.11,4.05,3a.85.85,0,0,0,1.33-.51L17.19,1A.81.81,0,0,0,16.1.06Zm-2,2.85L6.82,9.37a.41.41,0,0,0-.13.25l-.28,2.5c0,.08-.13.1-.15,0L5.1,8.41A.4.4,0,0,1,5.27,8L13.9,2.6a.19.19,0,0,1,.23.31Z"/></g></g></svg>