<svg xmlns="http://www.w3.org/2000/svg" viewBox="0 0 72.65 66.78"><defs><style>.cls-1{fill:none;stroke:#000;stroke-linecap:round;stroke-linejoin:round;stroke-width:1.5px;}</style></defs><g id="Layer_2" data-name="Layer 2"><g id="Layer_1-2" data-name="Layer 1"><path class="cls-1" d="M67.33,2A1.33,1.33,0,0,0,66,.75H6.63A1.33,1.33,0,0,0,5.31,2L.75,64.61A1.33,1.33,0,0,0,2.08,66H70.57a1.32,1.32,0,0,0,1.32-1.42ZM53.77,14.34V24.7c-.06,11.11-7.88,20.14-17.45,20.14s-17.38-9-17.44-20.13V14.35a3.61,3.61,0,1,1,2.65,0V24.7c.06,9.64,6.69,17.48,14.79,17.48S51.07,34.34,51.11,24.7V14.35a3.6,3.6,0,1,1,2.66,0Z"/></g></g></svg>