<svg xmlns="http://www.w3.org/2000/svg" viewBox="0 0 303.55 303.55"><defs><style>.cls-1{fill:#fff;}.cls-2,.cls-3{fill:none;stroke:#fff;stroke-miterlimit:10;stroke-width:3px;}.cls-3{stroke-linecap:square;}</style></defs><g id="Layer_2" data-name="Layer 2"><g id="Layer_1-2" data-name="Layer 1"><path d="M25,0H303.55a0,0,0,0,1,0,0V278.55a25,25,0,0,1-25,25H0a0,0,0,0,1,0,0V25A25,25,0,0,1,25,0Z"/><path class="cls-1" d="M112.31,139.6h-.37a10.25,10.25,0,0,1-2-.19,7.59,7.59,0,0,1-1.78-.59,5.8,5.8,0,0,1-1.46-1,5.16,5.16,0,0,1-1-1.46,3.45,3.45,0,0,1-.83.88,5.38,5.38,0,0,1-1.09.64,6.4,6.4,0,0,1-1.22.38,6.48,6.48,0,0,1-1.21.13,5.51,5.51,0,0,1-2-.38,5.22,5.22,0,0,1-1.69-1.07,5.17,5.17,0,0,1-1.15-1.68A5.7,5.7,0,0,1,96,133a5.64,5.64,0,0,1,.55-2.56A6.7,6.7,0,0,1,98,128.52a9,9,0,0,1,2.11-1.41,20.51,20.51,0,0,1,2.46-1l-.32-1.28,3.27-.77,2.45,9.51a3.12,3.12,0,0,0,.69,1.4,3.84,3.84,0,0,0,1.06.82,4.24,4.24,0,0,0,1.17.39,7.1,7.1,0,0,0,1,.1h.37ZM104,132.93a2.79,2.79,0,0,0,.06-.76,4.86,4.86,0,0,0-.13-.81q-.09-.44-.24-.93t-.33-1.11a10.43,10.43,0,0,0-3.26,1.55A2.61,2.61,0,0,0,99,133a1.7,1.7,0,0,0,.23.88,2,2,0,0,0,.57.65,2.44,2.44,0,0,0,.8.37,2.17,2.17,0,0,0,.88,0,3.84,3.84,0,0,0,1.67-.59A2.08,2.08,0,0,0,104,132.93Z"/><path class="cls-1" d="M119.35,128.32c0,.07.05.21.11.45s.13.51.2.85.14.71.22,1.12.15.83.21,1.24.12.82.16,1.22.06.74.06,1a5.91,5.91,0,0,1-.45,2.4,4.86,4.86,0,0,1-2.85,2.65,5.72,5.72,0,0,1-1.85.32h-3.57v-3.34h3.66a3.59,3.59,0,0,0,.47,0,1.4,1.4,0,0,0,.6-.25,1.7,1.7,0,0,0,.53-.61,2.34,2.34,0,0,0,.23-1.12,7.07,7.07,0,0,0,0-.72c0-.28-.07-.58-.13-.9s-.11-.66-.18-1-.13-.65-.19-1-.13-.58-.19-.82-.11-.44-.15-.57Zm-5.79,16,2.42-2.44,2.47,2.47L116,146.74Z"/><path class="cls-1" d="M137.14,146.82a8.27,8.27,0,0,1-2.07-.25,8,8,0,0,1-1.87-.73,7.75,7.75,0,0,1-2.92-2.69,9.21,9.21,0,0,1-1-2.33,10.31,10.31,0,0,1-.35-2.68,13.68,13.68,0,0,1,.11-1.72,14,14,0,0,1,.34-1.71,17.84,17.84,0,0,1,.62-1.82q.39-1,.93-2.1l3,1.44c-.32.65-.59,1.24-.8,1.76a12.49,12.49,0,0,0-.52,1.47,7.58,7.58,0,0,0-.29,1.33,9.48,9.48,0,0,0-.09,1.33,6.79,6.79,0,0,0,.23,1.76,5.85,5.85,0,0,0,.63,1.51,4.72,4.72,0,0,0,1.7,1.52,4.81,4.81,0,0,0,2.33.57h2.72a7.82,7.82,0,0,0,2.32-.29,3.28,3.28,0,0,0,1.39-.84,3,3,0,0,0,.68-1.31,7.42,7.42,0,0,0,.18-1.69v-9h3.34v9a7.37,7.37,0,0,1-2,5.61q-2,1.86-5.93,1.86Zm-.27-17.56,2.41-2.44,2.48,2.47-2.45,2.44Z"/><path class="cls-1" d="M157.17,139.6a15.42,15.42,0,0,1-2.54-.18,6.35,6.35,0,0,1-1.78-.54,3.27,3.27,0,0,1-1.17-.9,3.94,3.94,0,0,1-.66-1.29,7.91,7.91,0,0,1-.3-1.67c-.05-.63-.08-1.31-.08-2.07V120.24H154V133a15.76,15.76,0,0,0,.07,1.72,1.76,1.76,0,0,0,.39,1,1.56,1.56,0,0,0,1,.47,10.18,10.18,0,0,0,1.77.12Z"/><path class="cls-1" d="M173.88,139.6h-.4a8.25,8.25,0,0,1-2-.22,6.2,6.2,0,0,1-1.58-.62,6.54,6.54,0,0,1-1.28-.95c-.39-.37-.78-.79-1.19-1.24a3.37,3.37,0,0,1-1,1.43,6,6,0,0,1-1.61,1,8.64,8.64,0,0,1-1.94.51,10.87,10.87,0,0,1-2,.13h-4.19v-3.34H161a13.76,13.76,0,0,0,1.64-.1,4.92,4.92,0,0,0,1.3-.34,2.32,2.32,0,0,0,.88-.62,1.7,1.7,0,0,0,.36-1,3.19,3.19,0,0,0-.49-1.46,18.92,18.92,0,0,0-1.28-2q-.78-1.09-1.77-2.31l-2-2.46.56-2.72,11.65-5.66,1.37,3.06L163,125.44c.85,1.12,1.68,2.25,2.52,3.36s1.68,2.24,2.52,3.36c.49.66.94,1.24,1.36,1.74a8.94,8.94,0,0,0,1.24,1.28,4.62,4.62,0,0,0,1.31.8,4,4,0,0,0,1.54.28h.4Zm-13.57-20.33,10.23-4.44.7,1.5-11.11,4.85Z"/><path class="cls-1" d="M183.39,128.32c0,.07.05.21.11.45s.12.51.2.85.14.71.22,1.12.15.83.21,1.24.12.82.16,1.22.06.74.06,1a5.91,5.91,0,0,1-.45,2.4,5.08,5.08,0,0,1-1.2,1.67,4.9,4.9,0,0,1-1.66,1,5.61,5.61,0,0,1-1.84.32h-5.79v-3.34h5.88a3.77,3.77,0,0,0,.47,0,1.4,1.4,0,0,0,.6-.25,1.7,1.7,0,0,0,.53-.61,2.34,2.34,0,0,0,.23-1.12,7.07,7.07,0,0,0-.05-.72c0-.28-.07-.58-.13-.9s-.11-.66-.18-1-.13-.65-.19-1-.13-.58-.19-.82-.11-.44-.15-.57Zm-7.25,18.6-2.26-2.28,2.22-2.31,2.31,2.31Zm5.62,0-2.25-2.28,2.23-2.31,2.31,2.31Z"/><path class="cls-1" d="M190.23,139.6h-3.34V120.24h3.34Z"/><path class="cls-1" d="M198.08,138.78a10.17,10.17,0,0,1-.69,3.34,7.38,7.38,0,0,1-1.66,2.52,7.29,7.29,0,0,1-2.57,1.61,9.72,9.72,0,0,1-3.39.56H188.1v-3.34h1.67a8.08,8.08,0,0,0,2.22-.27,3.6,3.6,0,0,0,1.55-.86,3.66,3.66,0,0,0,.9-1.54,8.05,8.05,0,0,0,.29-2.3v-8.18h3.35Z"/><path class="cls-1" d="M213.35,147a7.75,7.75,0,0,1-1.82-.22,6.63,6.63,0,0,1-1.64-.63,7.35,7.35,0,0,1-1.41-1,6.64,6.64,0,0,1-1.13-1.34,7.29,7.29,0,0,1-.41-.76,6.93,6.93,0,0,1-.37-1,11.8,11.8,0,0,1-.26-1.22,8.45,8.45,0,0,1-.11-1.47q0-.66.06-1.35a10.87,10.87,0,0,1,.26-1.47,14.33,14.33,0,0,1,.52-1.68c.23-.61.52-1.28.88-2l3,1.43c-.27.56-.5,1.07-.68,1.53a10.5,10.5,0,0,0-.44,1.3c-.1.41-.18.8-.23,1.16a8.32,8.32,0,0,0-.08,1.12,6,6,0,0,0,.17,1.43,4.28,4.28,0,0,0,.5,1.2v0a3.93,3.93,0,0,0,1.36,1.19,3.86,3.86,0,0,0,1.82.45H214a7.67,7.67,0,0,0,2.3-.29,3.32,3.32,0,0,0,1.4-.84,2.72,2.72,0,0,0,.68-1.3,7.43,7.43,0,0,0,.19-1.7V120.24h3.3v19.31q0,7.44-7.87,7.48Z"/><path class="cls-1" d="M231.57,139.6a15.29,15.29,0,0,1-2.53-.18,6.43,6.43,0,0,1-1.79-.54,3.32,3.32,0,0,1-1.16-.9,4.16,4.16,0,0,1-.67-1.29,7.91,7.91,0,0,1-.3-1.67c-.05-.63-.07-1.31-.07-2.07V120.24h3.34V133c0,.72,0,1.29.07,1.72a1.76,1.76,0,0,0,.39,1,1.56,1.56,0,0,0,1,.47,10,10,0,0,0,1.76.12Z"/><path class="cls-1" d="M241.21,139.57a5.64,5.64,0,0,1-3.89-1.27,4.57,4.57,0,0,1-1.64,1,5.57,5.57,0,0,1-1.85.31h-3v-3.34h3a2.61,2.61,0,0,0,.46-.06,1.43,1.43,0,0,0,.6-.26,1.75,1.75,0,0,0,.54-.62,2.36,2.36,0,0,0,.22-1.13v-3.87H239v3.82a2.16,2.16,0,0,0,.51,1.6,2.37,2.37,0,0,0,1.7.5,2.7,2.7,0,0,0,.47-.06,1.6,1.6,0,0,0,.6-.27,1.82,1.82,0,0,0,.53-.64,2.41,2.41,0,0,0,.23-1.13v-3.82h3.33v3.82a2.13,2.13,0,0,0,.53,1.61,2.38,2.38,0,0,0,1.72.52,2,2,0,0,0,.48-.07,1.69,1.69,0,0,0,.6-.3,2,2,0,0,0,.51-.64,2.48,2.48,0,0,0,.21-1.12,5,5,0,0,0,0-.72c0-.27-.07-.57-.12-.87s-.1-.63-.16-.94-.13-.62-.19-.91-.13-.55-.18-.78-.11-.42-.14-.55l3.15-1c0,.06.05.2.11.43s.12.5.19.83.16.7.24,1.1.15.81.22,1.21.12.81.17,1.2a10.19,10.19,0,0,1,.06,1,5.89,5.89,0,0,1-.45,2.39,5.08,5.08,0,0,1-1.17,1.71,4.73,4.73,0,0,1-1.64,1,5.4,5.4,0,0,1-1.84.35,5.66,5.66,0,0,1-3.94-1.31,4.62,4.62,0,0,1-1.64,1A5.66,5.66,0,0,1,241.21,139.57Z"/><path class="cls-1" d="M262,138.78a9.92,9.92,0,0,1-.68,3.34,7.26,7.26,0,0,1-1.67,2.52,7.16,7.16,0,0,1-2.56,1.61,9.74,9.74,0,0,1-3.4.56H252v-3.34h1.66a8.1,8.1,0,0,0,2.23-.27,3.36,3.36,0,0,0,2.45-2.4,8.05,8.05,0,0,0,.29-2.3v-8.18H262Z"/><path class="cls-1" d="M267.77,139.6h-3.34V120.24h3.34Z"/><path class="cls-1" d="M152.94,182.27a8.27,8.27,0,0,1-2.07-.26,8.62,8.62,0,0,1-1.87-.72,7.88,7.88,0,0,1-2.92-2.7,8.7,8.7,0,0,1-1-2.33,9.85,9.85,0,0,1-.35-2.68,11.94,11.94,0,0,1,.45-3.42,16.34,16.34,0,0,1,.61-1.83c.26-.63.57-1.33.94-2.09l3,1.43c-.33.66-.59,1.24-.81,1.76a14.61,14.61,0,0,0-.52,1.47,8.87,8.87,0,0,0-.29,1.33,9.62,9.62,0,0,0-.09,1.34,6.72,6.72,0,0,0,.23,1.75,5.85,5.85,0,0,0,.63,1.51,4.83,4.83,0,0,0,4,2.09h2.72a7.46,7.46,0,0,0,2.32-.29,3.22,3.22,0,0,0,1.39-.84,2.89,2.89,0,0,0,.68-1.31,7.36,7.36,0,0,0,.18-1.69v-9h3.34v9q0,3.75-2,5.61c-1.32,1.25-3.29,1.87-5.93,1.87Zm-.27-17.56,2.42-2.45,2.47,2.47-2.45,2.45Z"/><path class="cls-1" d="M168.86,175h-3.34V155.69h3.34Z"/><path class="cls-1" d="M178.45,175h-.51a8.45,8.45,0,0,1-1-.06,2.3,2.3,0,0,1-1-.38,9.92,9.92,0,0,1-.79,3.14,7.63,7.63,0,0,1-1.69,2.41,7.18,7.18,0,0,1-2.52,1.55,9.19,9.19,0,0,1-3.29.55H166v-3.34h1.67a8.1,8.1,0,0,0,2.23-.27,3.55,3.55,0,0,0,1.55-.86,3.62,3.62,0,0,0,.9-1.53,8.08,8.08,0,0,0,.29-2.31v-8.17H176v4a1.69,1.69,0,0,0,.26,1,1.94,1.94,0,0,0,.6.58,2,2,0,0,0,.67.27,2.17,2.17,0,0,0,.44.07h.51Z"/><path class="cls-1" d="M187.74,163.77c0,.06.06.21.11.44s.13.52.2.85.14.71.22,1.12.15.83.21,1.25.12.82.17,1.21.06.74.06,1a5.84,5.84,0,0,1-.46,2.4,4.84,4.84,0,0,1-1.2,1.67,4.79,4.79,0,0,1-1.65,1,5.46,5.46,0,0,1-1.85.32h-5.79V171.7h5.88a3.26,3.26,0,0,0,.47,0,1.71,1.71,0,0,0,.6-.25,1.79,1.79,0,0,0,.53-.61,2.38,2.38,0,0,0,.23-1.13,7.09,7.09,0,0,0-.05-.71c0-.29-.07-.59-.12-.91s-.12-.65-.19-1-.13-.65-.19-.95-.13-.57-.19-.82-.11-.43-.15-.57Zm-7.25,18.59-2.26-2.28,2.22-2.31,2.31,2.31Zm5.62,0-2.25-2.28,2.23-2.31,2.31,2.31Z"/><path class="cls-1" d="M193.85,175H190.5V155.69h3.35Z"/><path class="cls-1" d="M209.56,175h-.51A8.74,8.74,0,0,1,208,175a2.41,2.41,0,0,1-1-.38,9.66,9.66,0,0,1-.79,3.14,7.45,7.45,0,0,1-1.68,2.41,7.27,7.27,0,0,1-2.52,1.55,9.23,9.23,0,0,1-3.29.55h-1.68v-3.34h1.68a8.15,8.15,0,0,0,2.23-.27,3.38,3.38,0,0,0,2.44-2.39,7.71,7.71,0,0,0,.3-2.31v-8.17h3.34v4a1.77,1.77,0,0,0,.26,1,2.09,2.09,0,0,0,.61.58,2,2,0,0,0,.66.27,2.24,2.24,0,0,0,.45.07h.51Z"/><path class="cls-1" d="M219.07,175a5.66,5.66,0,0,1-3.89-1.28,4.59,4.59,0,0,1-1.64,1,5.78,5.78,0,0,1-1.85.3h-3V171.7h3a3.47,3.47,0,0,0,.46,0,1.61,1.61,0,0,0,.61-.26,1.83,1.83,0,0,0,.53-.62,2.37,2.37,0,0,0,.23-1.14v-3.86h3.34v3.81a2.17,2.17,0,0,0,.52,1.61,2.39,2.39,0,0,0,1.69.5,2.59,2.59,0,0,0,.47-.06,1.48,1.48,0,0,0,.6-.28,1.78,1.78,0,0,0,.53-.63,2.45,2.45,0,0,0,.23-1.14v-3.81h3.33v3.81a2.21,2.21,0,0,0,.53,1.62,2.42,2.42,0,0,0,1.72.52,2.15,2.15,0,0,0,.48-.08,1.84,1.84,0,0,0,.6-.29,1.76,1.76,0,0,0,.51-.64,2.53,2.53,0,0,0,.21-1.13,6.58,6.58,0,0,0,0-.71c0-.28-.07-.57-.12-.88s-.11-.62-.17-.94-.13-.62-.19-.91-.12-.54-.18-.77-.11-.42-.14-.56l3.15-1c0,.06.06.21.11.43s.12.5.19.83.16.7.24,1.1.15.81.22,1.22.12.8.17,1.19.07.74.07,1a6,6,0,0,1-.45,2.4,5,5,0,0,1-1.18,1.7,4.91,4.91,0,0,1-1.64,1,5.35,5.35,0,0,1-1.84.34,5.62,5.62,0,0,1-3.94-1.31,4.61,4.61,0,0,1-1.63,1A5.77,5.77,0,0,1,219.07,175Z"/><path class="cls-1" d="M237.1,175h-3.34V155.69h3.34Z"/><path class="cls-1" d="M246.69,175h-.51a8.57,8.57,0,0,1-1-.06,2.3,2.3,0,0,1-1-.38,9.92,9.92,0,0,1-.79,3.14,7.33,7.33,0,0,1-1.69,2.41,7.23,7.23,0,0,1-2.51,1.55,9.27,9.27,0,0,1-3.29.55h-1.68v-3.34h1.68a8.15,8.15,0,0,0,2.23-.27,3.52,3.52,0,0,0,1.54-.86,3.62,3.62,0,0,0,.9-1.53,7.74,7.74,0,0,0,.29-2.31v-8.17h3.35v4a1.69,1.69,0,0,0,.26,1,2.06,2.06,0,0,0,.6.58,2,2,0,0,0,.67.27,2.17,2.17,0,0,0,.44.07h.51Z"/><path class="cls-1" d="M256.21,175a5.67,5.67,0,0,1-3.9-1.28,4.55,4.55,0,0,1-1.63,1,5.84,5.84,0,0,1-1.86.3h-3V171.7h3a3.59,3.59,0,0,0,.47,0,1.57,1.57,0,0,0,.6-.26,1.83,1.83,0,0,0,.53-.62,2.37,2.37,0,0,0,.23-1.14v-3.86H254v3.81a2.21,2.21,0,0,0,.52,1.61,2.4,2.4,0,0,0,1.7.5,2.51,2.51,0,0,0,.46-.06,1.58,1.58,0,0,0,.61-.28,1.88,1.88,0,0,0,.53-.63,2.46,2.46,0,0,0,.22-1.14v-3.81h3.33v3.81a2.21,2.21,0,0,0,.53,1.62,2.45,2.45,0,0,0,1.73.52,2.24,2.24,0,0,0,.48-.08,1.71,1.71,0,0,0,.59-.29,1.76,1.76,0,0,0,.51-.64,2.39,2.39,0,0,0,.22-1.13,6.9,6.9,0,0,0-.05-.71c0-.28-.07-.57-.12-.88s-.1-.62-.17-.94-.12-.62-.19-.91-.12-.54-.18-.77-.1-.42-.14-.56l3.16-1c0,.06,0,.21.11.43s.11.5.19.83.15.7.24,1.1.15.81.22,1.22.12.8.16,1.19a8.2,8.2,0,0,1,.07,1,6,6,0,0,1-.45,2.4,5.14,5.14,0,0,1-1.17,1.7,5,5,0,0,1-1.64,1,5.39,5.39,0,0,1-1.84.34,5.64,5.64,0,0,1-3.95-1.31,4.53,4.53,0,0,1-1.63,1A5.66,5.66,0,0,1,256.21,175Z"/><path class="cls-1" d="M119.75,212.1c-.17-.78-.44-1.14-.7-1.14a2.69,2.69,0,0,0-1.46.65c-.51.4-.89.85-.89,1.18,0,.82,2.38.72,3,1.24a1.27,1.27,0,0,1,.41,1,2.77,2.77,0,0,1-.76,1.69,5.58,5.58,0,0,1-3.54,1.52c-2.13,0-3.17-1.44-3.17-3.36a5.52,5.52,0,0,1,.49-2.27l.35.12a5.19,5.19,0,0,0-.28,1.61,2.52,2.52,0,0,0,2.7,2.67,5.39,5.39,0,0,0,2.47-.76c.59-.35,1.14-.78,1.14-.92s-.67-.49-1.43-.6a3.17,3.17,0,0,1-1.68-.56,1.17,1.17,0,0,1-.34-.82,3.37,3.37,0,0,1,1-2.36,4.09,4.09,0,0,1,2.27-1.3.71.71,0,0,1,.67.48,2.1,2.1,0,0,1,.22.87,3.61,3.61,0,0,1-.37,1Z"/><path class="cls-1" d="M124.33,215.62h-.1a2,2,0,0,1-1.57-.53c-.56-.57-.57-1.22-.57-2.57,0-1.74-.1-3.56-.24-5.51a8.45,8.45,0,0,1,.87-.85l.06,0c.15,2,.15,4.38.15,6.64v.52a1,1,0,0,0,.68,1,1.94,1.94,0,0,0,.59.1h.13Z"/><path class="cls-1" d="M124.5,214.44a4.63,4.63,0,0,0,1.63-.26,3.54,3.54,0,0,1-.2-1.26,2.8,2.8,0,0,1,.57-1.67,3,3,0,0,1,.9-.85,5.11,5.11,0,0,1,.17-.92h.07a37.35,37.35,0,0,0,3.23,2.45,2.29,2.29,0,0,1,1.14,2,1.66,1.66,0,0,1-1.83,1.72,11.46,11.46,0,0,1-3.13-.63,6.65,6.65,0,0,1-2.51.63h-.21a.59.59,0,0,1-.64-.62.57.57,0,0,1,.64-.56Zm4.34-1.56c0-.77-.55-1.46-.94-1.46a1.94,1.94,0,0,0-1.51,1.45c0,.3.33.73,1,1.07C127.84,213.78,128.84,213.39,128.84,212.88Zm1.62,1.71c.51,0,1-.18,1-.41,0-.6-.82-1.25-2-2a5.47,5.47,0,0,1-.71,2.14A5.17,5.17,0,0,0,130.46,214.59Z"/><path class="cls-1" d="M139.75,215.62h-.17a1.81,1.81,0,0,1-1.87-1.5h-.05a1.31,1.31,0,0,1-.66.88,3.64,3.64,0,0,1-1.84.62,1.5,1.5,0,0,1-1.6-1.7c0-.23,0-.45,0-.68l.36,0a1.14,1.14,0,0,0,1.29,1.23,3.24,3.24,0,0,0,1.49-.46c.34-.19.6-.46.6-.69a18.22,18.22,0,0,0-.76-3.41,10.44,10.44,0,0,1,.65-.94l.05,0c.34,1.32.63,2.73.87,4.08a1.51,1.51,0,0,0,1.45,1.38h.16Z"/><path class="cls-1" d="M139.91,214.44a6.23,6.23,0,0,0,1.81-.17c.32-.12.52-.25.52-.41a7.5,7.5,0,0,0-.92-2.26,7.22,7.22,0,0,1,.69-1h.05a6.48,6.48,0,0,1,.91,2.8,2.74,2.74,0,0,1-.64,1.71c-.41.41-1.06.55-2.47.55h-.11a.59.59,0,0,1-.64-.62.57.57,0,0,1,.64-.56Zm.9,4.83c-.38-.35-.71-.65-1.08-1a8.55,8.55,0,0,1,.73-.87,8.67,8.67,0,0,1,1,1A4.85,4.85,0,0,1,140.81,219.27Zm1.77-.11c-.38-.36-.71-.66-1.07-1a7.4,7.4,0,0,1,.72-.87,8.6,8.6,0,0,1,1,1A4.87,4.87,0,0,1,142.58,219.16Z"/><path class="cls-1" d="M147.59,212.46c.52,1.26,1,2,2.06,2h.16v1.18h-.19a1.28,1.28,0,0,1-.92-.3h0c0,.11,0,.22,0,.32a3,3,0,0,1-.37,1.42c-.72,1.28-1.51,1.83-2.19,1.83a5.24,5.24,0,0,1-2.29-.72l.13-.31a2.43,2.43,0,0,0,1.06.2,3.61,3.61,0,0,0,3-2.75,2.11,2.11,0,0,0-.24-.41,8.44,8.44,0,0,1-.8-1.37c.18-.42.35-.76.5-1.06Z"/><path class="cls-1" d="M150.38,214.44a9.42,9.42,0,0,0,4.89-1.66v0a8.47,8.47,0,0,0-2.88-.65,1.48,1.48,0,0,0-1.16.46l.11.46-.28.83H151l-.45-1.22a1.83,1.83,0,0,1,2-1.65,8.78,8.78,0,0,1,3,.8,4.43,4.43,0,0,0,1.57.3h.77l-.49,1a2.73,2.73,0,0,0-1.58.34l-1.53,1a7.26,7.26,0,0,1-4,1.23h-.47a.59.59,0,0,1-.64-.62.57.57,0,0,1,.64-.56Zm2.61-6.63a9,9,0,0,1,1.1,1,3.79,3.79,0,0,1-.76.9c-.36-.34-.72-.63-1.08-.94C152.5,208.42,152.74,208.1,153,207.81Z"/><path class="cls-1" d="M168.57,216.83a3.41,3.41,0,0,1-3,1.85,2.62,2.62,0,0,1-2.67-2.91,4.86,4.86,0,0,1,.7-2.57l.35.17a4.17,4.17,0,0,0-.44,1.71,2.15,2.15,0,0,0,2.23,2.31,3.12,3.12,0,0,0,2.58-1.71,6.17,6.17,0,0,0-1-2.92,6,6,0,0,1,.68-1h.07a5.3,5.3,0,0,1,.76,2.26h0a11.58,11.58,0,0,1,1.88-2.33,3.55,3.55,0,0,1,2.2-1,1.86,1.86,0,0,1,1.72,1,2.32,2.32,0,0,1,.22,1.09,2.36,2.36,0,0,1-.18.85,2.68,2.68,0,0,1-1.9,1.66,7.42,7.42,0,0,1-2.29.29,9.36,9.36,0,0,1-1.56-.21A7.1,7.1,0,0,1,168.57,216.83Zm2.46-2.39a5.88,5.88,0,0,0,2.38-.52c.44-.21.75-.41.75-.66a1.61,1.61,0,0,0-1.58-1.4c-1.08,0-2.32,1-3.27,2.39A5.89,5.89,0,0,0,171,214.44Z"/><path class="cls-1" d="M181.56,214.44v1.18h-.76a4.31,4.31,0,0,1-.7,1.88,3.26,3.26,0,0,1-2.21,1.56,5.35,5.35,0,0,1-2.64-.92l.15-.31a2.72,2.72,0,0,0,1.35.33,3.56,3.56,0,0,0,2.55-1.26,2.87,2.87,0,0,0,.86-1.28h-.44c-1.88,0-2.83-.6-2.83-1.88a2.44,2.44,0,0,1,.47-1.48,1.76,1.76,0,0,1,1.41-.88c.84,0,1.72,1.18,2,3.06Zm-2.08-1.34a1.36,1.36,0,0,0-1-.51c-.51,0-1,.44-1,.81s.43.74,1,.9a6.2,6.2,0,0,0,1.65.14A2.84,2.84,0,0,0,179.48,213.1Z"/><path class="cls-1" d="M181.76,214.44c.78,0,1.41-.26,1.52-.81.07-.35.14-.7.24-1a5,5,0,0,1,.6-.48l.06.06a2.94,2.94,0,0,0-.15.86,1.06,1.06,0,0,0,.5,1,10.7,10.7,0,0,1,1.9-2.31,3.12,3.12,0,0,1,2.06-1,2,2,0,0,1,2.07,2,3.74,3.74,0,0,1-.47,1.62h1.22v1.18h-.24a11.45,11.45,0,0,1-2.74-.33,6.53,6.53,0,0,1-2.14.33,3,3,0,0,1-2.59-1h0a2.17,2.17,0,0,1-1.9,1h-.11a.59.59,0,0,1-.64-.62.57.57,0,0,1,.64-.56Zm5,0a7.21,7.21,0,0,0,2.39-.41c.45-.18.75-.42.75-.69a1.72,1.72,0,0,0-1.71-1.37c-1.09,0-2.09.89-3.1,2.28A5.54,5.54,0,0,0,186.72,214.44Z"/><path class="cls-1" d="M196.78,212.75a8.52,8.52,0,0,0-2.88-.65,1.47,1.47,0,0,0-1.16.46l.11.46-.28.83h-.09l-.45-1.22a1.82,1.82,0,0,1,2-1.65,9.11,9.11,0,0,1,3,.79,4.22,4.22,0,0,0,1.57.31h.81l-.57.95a2.9,2.9,0,0,0-1.55.35l-1.53,1a7.2,7.2,0,0,1-4,1.23h-.43a.59.59,0,0,1-.64-.62.57.57,0,0,1,.64-.56h.56a9.45,9.45,0,0,0,4.9-1.66Zm-2.29-4.94a9.8,9.8,0,0,1,1.1,1,3.79,3.79,0,0,1-.76.9c-.36-.34-.72-.63-1.09-.94C194,208.42,194.24,208.1,194.49,207.81Zm3.32,5.56h0c0,.78.68,1.06,1.63,1.06h.24v1.18h-.28c-1.18,0-2-.42-2-1.52a4.36,4.36,0,0,1,0-.51Z"/><path class="cls-1" d="M199.91,214.44c.68,0,1.21-.47,1.54-1.62a2.78,2.78,0,0,1,.68-1.11,1.73,1.73,0,0,1,1.15-.53c1.12,0,1.78,1.54,1.93,3.14-.19.84-.53,1.18-1,1.18a4.66,4.66,0,0,1-2.72-1.08h-.07a1.51,1.51,0,0,1-1.59,1.2h-.15a.59.59,0,0,1-.64-.62.57.57,0,0,1,.64-.56Zm3.21-.37a2.82,2.82,0,0,0,1.09.27c.14,0,.26,0,.29-.1-.26-1.39-.87-2-1.44-2a1.31,1.31,0,0,0-1.23.9A2.7,2.7,0,0,0,203.12,214.07Z"/><path class="cls-1" d="M216,210.31a7.75,7.75,0,0,1,1,3.76,3.94,3.94,0,0,1-.65,2.33,4.41,4.41,0,0,1-3.05,1.4,2.65,2.65,0,0,1-2.82-2.78,4.88,4.88,0,0,1,.79-2.67l.35.19a4.31,4.31,0,0,0-.51,1.72,2,2,0,0,0,.61,1.59,2.62,2.62,0,0,0,1.73.62,4,4,0,0,0,2.22-.8c.41-.31.64-.59.64-.76a5.33,5.33,0,0,0-.29-1.62,7.51,7.51,0,0,0-.77-1.81c.22-.39.44-.77.71-1.16Zm-2.49-3a9.8,9.8,0,0,1,1.1,1,3.43,3.43,0,0,1-.76.9c-.36-.34-.72-.63-1.09-.94C213,208,213.23,207.63,213.48,207.34Z"/><path class="cls-1" d="M221,215.62h-.1a2,2,0,0,1-1.57-.53c-.56-.57-.57-1.22-.57-2.57,0-1.74-.1-3.56-.24-5.51a8.45,8.45,0,0,1,.87-.85l.06,0c.15,2,.15,4.38.15,6.64v.52a1,1,0,0,0,.68,1,1.94,1.94,0,0,0,.59.1H221Z"/><path class="cls-1" d="M228.08,215.62h-.18a2.88,2.88,0,0,1-2.38-1.49c-.3-.39-.58-.77-.8-1h0c0,1.43-.82,2.51-3.41,2.51H221a.59.59,0,0,1-.64-.62.57.57,0,0,1,.64-.56h.37a4.2,4.2,0,0,0,2.22-.53c.18-.12.45-.32.45-.45a1.62,1.62,0,0,0-.19-.62,10.21,10.21,0,0,0-2.17-2.49c-.25-.26-.51-.48-.63-.63a1.93,1.93,0,0,1,0-.42,1.55,1.55,0,0,1,.25-.79,1.06,1.06,0,0,1,.33-.3,29.45,29.45,0,0,1,5.58-2.12l0,0a5.81,5.81,0,0,1-.65,1.09c-.55.14-1.33.41-2.09.68-1.1.42-2.17.84-2.82,1.18v0a12.84,12.84,0,0,0,1.49.63l-.29.48a32,32,0,0,1,3.3,3.31,2.22,2.22,0,0,0,1.78.93h.15Zm-6.63-8.16a3.32,3.32,0,0,1,.22-.59,34.13,34.13,0,0,1,5-1.83v0l-.34.56a32.22,32.22,0,0,0-4.87,1.85Z"/><path class="cls-1" d="M228.24,214.44a6.23,6.23,0,0,0,1.81-.17c.32-.12.52-.25.52-.41a7.5,7.5,0,0,0-.92-2.26,7.22,7.22,0,0,1,.69-1h0a6.48,6.48,0,0,1,.91,2.8,2.74,2.74,0,0,1-.64,1.71c-.41.41-1.06.55-2.46.55h-.11a.6.6,0,0,1-.65-.62.58.58,0,0,1,.65-.56Zm.9,4.83c-.38-.35-.71-.65-1.07-1a8.54,8.54,0,0,1,.72-.87,8.67,8.67,0,0,1,1.05,1A4.44,4.44,0,0,1,229.14,219.27Zm1.77-.11c-.38-.36-.71-.66-1.07-1a8.54,8.54,0,0,1,.72-.87,8.67,8.67,0,0,1,1.05,1A4.88,4.88,0,0,1,230.91,219.16Z"/><path class="cls-1" d="M233.14,215.77a12.33,12.33,0,0,0,.1-1.83V213c0-1.68-.18-4.12-.33-5.71a8.4,8.4,0,0,1,.9-1l.08,0c.19,2,.24,4.32.24,6.46,0,.56,0,1.1-.06,1.51a2.38,2.38,0,0,1-.81,1.47Z"/><path class="cls-1" d="M237.87,210.88l.65,1.24a3.46,3.46,0,0,1,.46,1.74v1a4.22,4.22,0,0,1-1.15,2.55,2.18,2.18,0,0,1-1.52.84,5.38,5.38,0,0,1-2.35-.71l.1-.31a3.26,3.26,0,0,0,1,.16,4,4,0,0,0,3.22-2.47,1.09,1.09,0,0,0,.1-.41,1.72,1.72,0,0,0-.13-.48,14.28,14.28,0,0,0-1.1-2c.21-.39.42-.77.65-1.15Z"/><path class="cls-1" d="M250,206.22a4.09,4.09,0,0,0,.77,2.12,4.24,4.24,0,0,1-.62.52c0,1.18.11,2.64.11,3.82a7.3,7.3,0,0,1-.45,2.7,3.09,3.09,0,0,1-1.05,1,3.57,3.57,0,0,1-1.91.58,2.43,2.43,0,0,1-1.91-.79,3.07,3.07,0,0,1-.65-2.07,5.53,5.53,0,0,1,.61-2.31l.33.13a4,4,0,0,0-.38,1.59,2.17,2.17,0,0,0,.47,1.42,1.89,1.89,0,0,0,1.58.75,3.12,3.12,0,0,0,1.59-.44,2.34,2.34,0,0,0,1-.86q0-.3,0-.57c0-1.39-.1-3.08-.24-5.13,0-.38-.09-.8-.09-1.2a1.11,1.11,0,0,1,.2-.73,2.91,2.91,0,0,1,.55-.57Z"/><path class="cls-1" d="M254.63,215.62h-.1a2,2,0,0,1-1.57-.53c-.56-.57-.57-1.22-.57-2.57,0-1.74-.1-3.56-.24-5.51a8.46,8.46,0,0,1,.86-.85l.07,0c.14,2,.14,4.38.14,6.64v.52a1,1,0,0,0,.69,1,1.94,1.94,0,0,0,.59.1h.13Z"/><path class="cls-1" d="M262,211.69a10.79,10.79,0,0,1,.15,1.63,3.17,3.17,0,0,1-.33,1.26,1.77,1.77,0,0,1-1.36,1,1.56,1.56,0,0,1-1.15-.76h-.07a2.15,2.15,0,0,1-1.61.79.79.79,0,0,1-.88-.78h0a2.47,2.47,0,0,1-2,.78h-.15A.59.59,0,0,1,254,215a.57.57,0,0,1,.64-.56h.31a2.18,2.18,0,0,0,1.93-.85l.51-.73.7-.24,0,0a3.42,3.42,0,0,0-.62,1.32.43.43,0,0,0,.47.46,1.5,1.5,0,0,0,.82-.26c.32-.24.37-.51.65-1.46l.55-.32.06,0a3.78,3.78,0,0,0-.12.9,1,1,0,0,0,.95,1.06.44.44,0,0,0,.49-.42,8.29,8.29,0,0,0-.23-1.48,7.15,7.15,0,0,1,.82-.83Z"/><path class="cls-1" d="M265.3,210.88l.65,1.24a3.57,3.57,0,0,1,.45,1.74v1a4.17,4.17,0,0,1-1.15,2.55,2.19,2.19,0,0,1-1.51.84,5.38,5.38,0,0,1-2.36-.71l.1-.31a3.36,3.36,0,0,0,1,.16,4,4,0,0,0,3.22-2.47,1.09,1.09,0,0,0,.1-.41,1.72,1.72,0,0,0-.13-.48,14.28,14.28,0,0,0-1.1-2c.21-.39.42-.77.65-1.15Z"/><path class="cls-1" d="M268.17,215.77a12.33,12.33,0,0,0,.1-1.83V213c0-1.68-.18-4.12-.33-5.71a8.4,8.4,0,0,1,.9-1l.08,0c.19,2,.24,4.32.24,6.46a13.33,13.33,0,0,1-.07,1.51,2.31,2.31,0,0,1-.8,1.47Z"/><path class="cls-1" d="M136.65,241.22h-.18a1.81,1.81,0,0,1-1.87-1.49h0a1.31,1.31,0,0,1-.66.88,3.63,3.63,0,0,1-1.84.61,1.49,1.49,0,0,1-1.6-1.69c0-.23,0-.45,0-.68l.36,0a1.14,1.14,0,0,0,1.29,1.23,3.24,3.24,0,0,0,1.49-.46c.34-.19.6-.47.6-.69a18.22,18.22,0,0,0-.76-3.41,10.44,10.44,0,0,1,.65-.94l0,0c.34,1.33.63,2.74.87,4.09a1.51,1.51,0,0,0,1.45,1.38h.16Z"/><path class="cls-1" d="M144,237.3a10.79,10.79,0,0,1,.15,1.63,3.05,3.05,0,0,1-.33,1.26,1.75,1.75,0,0,1-1.36,1,1.56,1.56,0,0,1-1.14-.76h-.08a2.12,2.12,0,0,1-1.6.78.78.78,0,0,1-.88-.77h0a2.45,2.45,0,0,1-1.95.77h-.16a.59.59,0,0,1-.64-.61.57.57,0,0,1,.64-.56H137a2.19,2.19,0,0,0,1.94-.85l.5-.73.71-.24,0,0a3.49,3.49,0,0,0-.63,1.32.44.44,0,0,0,.48.46,1.5,1.5,0,0,0,.82-.26c.32-.24.36-.51.65-1.46L142,238l0,0a4.29,4.29,0,0,0-.12.9,1,1,0,0,0,1,1.06.43.43,0,0,0,.48-.42,8.29,8.29,0,0,0-.23-1.48,7.23,7.23,0,0,1,.83-.83Zm-3.15-.63c-.38-.36-.71-.65-1.07-1a8.54,8.54,0,0,1,.72-.87,9.54,9.54,0,0,1,1.05,1A4.88,4.88,0,0,1,140.89,236.67Zm.5-2c-.38-.35-.71-.65-1.08-1a8.55,8.55,0,0,1,.73-.87,8.55,8.55,0,0,1,1,1A5.25,5.25,0,0,1,141.39,234.71Zm1.27,1.84c-.38-.36-.71-.65-1.07-1a7.4,7.4,0,0,1,.72-.87,9.54,9.54,0,0,1,1.05,1A4.88,4.88,0,0,1,142.66,236.55Z"/><path class="cls-1" d="M148.24,241.22h-.1a2,2,0,0,1-1.57-.52c-.56-.57-.57-1.22-.57-2.57,0-1.74-.1-3.56-.24-5.51a8.46,8.46,0,0,1,.86-.85l.07,0c.15,2,.15,4.38.15,6.64V239a1,1,0,0,0,.68,1,1.94,1.94,0,0,0,.59.1h.13Z"/><path class="cls-1" d="M148.44,240.05c.71,0,1.44-.28,1.58-.81l.26-1,.64-.46.05.07a4.81,4.81,0,0,0-.2,1.06.9.9,0,0,0,.3.76,1.72,1.72,0,0,0,1.14.37h.17v1.17h-.22a1.83,1.83,0,0,1-1.88-.93h0a2,2,0,0,1-1.83.93h-.17a.59.59,0,0,1-.64-.61.57.57,0,0,1,.64-.56Zm1.69,2.91a8.16,8.16,0,0,1,1.1,1,3.79,3.79,0,0,1-.76.9c-.36-.34-.72-.64-1.08-1C149.63,243.56,149.88,243.24,150.13,243Z"/><path class="cls-1" d="M152.58,240.05c.71,0,1.44-.28,1.58-.81l.26-1,.64-.46.05.07a4.81,4.81,0,0,0-.2,1.06.9.9,0,0,0,.3.76,1.7,1.7,0,0,0,1.14.37h.16v1.17h-.21a1.84,1.84,0,0,1-1.89-.93h0a2,2,0,0,1-1.83.93h-.17a.58.58,0,0,1-.64-.61.57.57,0,0,1,.64-.56Zm1,4.83c-.38-.35-.71-.65-1.08-.95a8.55,8.55,0,0,1,.73-.87,9.41,9.41,0,0,1,1,1A4.42,4.42,0,0,1,153.62,244.88Zm1.77-.12c-.38-.35-.71-.65-1.08-.95a8.55,8.55,0,0,1,.73-.87,9.41,9.41,0,0,1,1,1A4.42,4.42,0,0,1,155.39,244.76Z"/><path class="cls-1" d="M156.72,240.05c.67,0,1.21-.47,1.54-1.62a2.72,2.72,0,0,1,.68-1.11,1.71,1.71,0,0,1,1.15-.53c1.12,0,1.78,1.54,1.93,3.14-.2.84-.53,1.18-1,1.18a4.71,4.71,0,0,1-2.73-1.08h-.06a1.5,1.5,0,0,1-1.59,1.19h-.15a.59.59,0,0,1-.65-.61.58.58,0,0,1,.65-.56Zm3.21-.37A2.78,2.78,0,0,0,161,240c.14,0,.25,0,.29-.1-.26-1.39-.87-2-1.45-2a1.32,1.32,0,0,0-1.23.9A2.86,2.86,0,0,0,159.93,239.68Z"/><path class="cls-1" d="M172.78,235.91a7.81,7.81,0,0,1,1,3.76,4,4,0,0,1-.65,2.34,4.41,4.41,0,0,1-3.05,1.4,2.65,2.65,0,0,1-2.82-2.78A4.88,4.88,0,0,1,168,238l.35.19a4.19,4.19,0,0,0-.52,1.72,2,2,0,0,0,.62,1.59,2.58,2.58,0,0,0,1.73.62,4,4,0,0,0,2.22-.8c.4-.31.63-.59.63-.76a5.35,5.35,0,0,0-.28-1.62,7.93,7.93,0,0,0-.77-1.81c.22-.39.44-.77.7-1.16Zm-2.5-3a9.07,9.07,0,0,1,1.11,1,3.65,3.65,0,0,1-.77.9c-.35-.34-.71-.63-1.08-.94C169.79,233.56,170,233.24,170.28,233Z"/><path class="cls-1" d="M177.83,241.22h-.1a2,2,0,0,1-1.57-.52c-.56-.57-.57-1.22-.57-2.57,0-1.74-.1-3.56-.24-5.51a8.46,8.46,0,0,1,.86-.85l.07,0c.14,2,.14,4.38.14,6.64V239a1,1,0,0,0,.69,1,1.94,1.94,0,0,0,.59.1h.13Z"/><path class="cls-1" d="M178,240.05c.68,0,1.21-.47,1.54-1.62a2.72,2.72,0,0,1,.68-1.11,1.71,1.71,0,0,1,1.15-.53c1.12,0,1.78,1.54,1.93,3.14-.19.84-.53,1.18-1,1.18a4.71,4.71,0,0,1-2.73-1.08h-.06a1.5,1.5,0,0,1-1.59,1.19h-.15a.58.58,0,0,1-.64-.61.57.57,0,0,1,.64-.56Zm3.21-.37a2.82,2.82,0,0,0,1.09.27c.14,0,.26,0,.29-.1-.26-1.39-.87-2-1.44-2a1.31,1.31,0,0,0-1.23.9A2.77,2.77,0,0,0,181.24,239.68Z"/><path class="cls-1" d="M189.88,240.05v1.17h-.76a4.22,4.22,0,0,1-.7,1.88,3.23,3.23,0,0,1-2.21,1.57,5.35,5.35,0,0,1-2.64-.92l.16-.31a2.65,2.65,0,0,0,1.34.33,3.54,3.54,0,0,0,2.55-1.26,3,3,0,0,0,.87-1.29H188c-1.87,0-2.83-.59-2.83-1.88a2.43,2.43,0,0,1,.47-1.47,1.76,1.76,0,0,1,1.41-.88c.85,0,1.72,1.18,2,3.06Zm-2.08-1.34a1.34,1.34,0,0,0-1-.51c-.52,0-1,.44-1,.8s.43.75,1,.91a6.2,6.2,0,0,0,1.65.14A2.84,2.84,0,0,0,187.8,238.71Z"/><path class="cls-1" d="M190,240.05a6.23,6.23,0,0,0,1.81-.17c.32-.12.52-.25.52-.41a7.5,7.5,0,0,0-.92-2.26,6.7,6.7,0,0,1,.69-1h0a6.36,6.36,0,0,1,.92,2.8,2.69,2.69,0,0,1-.64,1.7c-.41.42-1.06.55-2.47.55h-.11a.59.59,0,0,1-.64-.61.57.57,0,0,1,.64-.56Zm.69-4.67c-.38-.35-.71-.65-1.08-.95a8.55,8.55,0,0,1,.73-.87,7.88,7.88,0,0,1,1,1A4.77,4.77,0,0,1,190.73,235.38Zm1.77-.12c-.38-.35-.71-.65-1.08-.95a8.55,8.55,0,0,1,.73-.87,8.6,8.6,0,0,1,1,1A4.42,4.42,0,0,1,192.5,235.26Z"/><path class="cls-1" d="M201.52,236.49l.66,1.24a3.54,3.54,0,0,1,.45,1.74v1a4.22,4.22,0,0,1-1.15,2.55,2.19,2.19,0,0,1-1.51.84,5.38,5.38,0,0,1-2.36-.71l.1-.31a3.26,3.26,0,0,0,1,.16,4,4,0,0,0,3.22-2.47,1.09,1.09,0,0,0,.1-.41,1.72,1.72,0,0,0-.13-.48,14.28,14.28,0,0,0-1.1-2c.21-.39.42-.77.65-1.15Z"/><path class="cls-1" d="M204.4,241.38a12.33,12.33,0,0,0,.1-1.83v-.9c0-1.68-.19-4.12-.33-5.71a7.6,7.6,0,0,1,.9-1l.08,0c.19,2,.24,4.32.24,6.45a13.52,13.52,0,0,1-.07,1.52,2.31,2.31,0,0,1-.8,1.47Z"/><path class="cls-1" d="M208.81,238.07c.52,1.26,1,2,2.06,2H211v1.17h-.19a1.28,1.28,0,0,1-.93-.29h0c0,.11,0,.22,0,.32a3,3,0,0,1-.37,1.42c-.72,1.28-1.51,1.83-2.19,1.83a5.24,5.24,0,0,1-2.29-.72l.14-.31a2.35,2.35,0,0,0,1.05.2,3.64,3.64,0,0,0,3-2.75,2,2,0,0,0-.25-.41,8.88,8.88,0,0,1-.8-1.37c.18-.42.35-.76.51-1.06Zm-.8-3.19a7.59,7.59,0,0,1,1.1,1,3.79,3.79,0,0,1-.76.9c-.36-.34-.71-.63-1.08-.95C207.52,235.48,207.76,235.16,208,234.88Z"/><path class="cls-1" d="M211.2,240.05a4.89,4.89,0,0,0,1.64-.26,3.54,3.54,0,0,1-.2-1.26,2.8,2.8,0,0,1,.57-1.67,2.91,2.91,0,0,1,.9-.85,5.11,5.11,0,0,1,.17-.92h.07a35.88,35.88,0,0,0,3.23,2.45,2.29,2.29,0,0,1,1.14,2,1.65,1.65,0,0,1-1.83,1.71,11.32,11.32,0,0,1-3.13-.62,6.61,6.61,0,0,1-2.51.62H211a.59.59,0,0,1-.64-.61.57.57,0,0,1,.64-.56Zm4.35-1.56c0-.77-.55-1.46-.94-1.46a2,2,0,0,0-1.52,1.45c0,.3.34.73,1,1.07C214.55,239.39,215.55,239,215.55,238.49Zm1.62,1.71c.51,0,1-.18,1-.41,0-.6-.82-1.25-2-2a5.47,5.47,0,0,1-.71,2.14A5.13,5.13,0,0,0,217.17,240.2Z"/><path class="cls-1" d="M224.55,241.22v-.38c1.21-.08,1.3-.22,1.3-1.19v-5.07c0-.69-.06-.76-.63-.79l-.71,0v-.32a14.53,14.53,0,0,0,2.57-.7v6.91c0,1,.09,1.11,1.31,1.19v.38Z"/><path class="cls-1" d="M233,232.74c2.06,0,2.81,2.26,2.81,4.32s-.75,4.32-2.83,4.32-2.83-2.2-2.83-4.31c0-1.95.75-4.33,2.83-4.33Zm0,.47c-1.19,0-1.49,2-1.49,3.83s.36,3.87,1.52,3.87,1.48-2,1.48-3.87-.32-3.83-1.5-3.83Z"/><path class="cls-1" d="M239.64,232.74c2.07,0,2.81,2.26,2.81,4.32s-.74,4.32-2.82,4.32-2.84-2.2-2.84-4.31c0-1.95.75-4.33,2.84-4.33Zm0,.47c-1.19,0-1.5,2-1.5,3.83s.36,3.87,1.52,3.87,1.48-2,1.48-3.87-.32-3.83-1.49-3.83Z"/><path class="cls-1" d="M254.52,237.71c-.17-.78-.44-1.14-.69-1.14a2.63,2.63,0,0,0-1.46.65c-.52.4-.9.85-.9,1.18,0,.82,2.38.72,3,1.24a1.29,1.29,0,0,1,.4,1,2.81,2.81,0,0,1-.75,1.7,5.63,5.63,0,0,1-3.54,1.52c-2.14,0-3.18-1.44-3.18-3.36a5.68,5.68,0,0,1,.49-2.27l.36.12A5.24,5.24,0,0,0,248,240a2.53,2.53,0,0,0,2.7,2.67,5.34,5.34,0,0,0,2.48-.77c.58-.34,1.13-.77,1.13-.91s-.67-.49-1.43-.6a3.2,3.2,0,0,1-1.68-.56,1.18,1.18,0,0,1-.33-.82,3.36,3.36,0,0,1,1-2.36,4.14,4.14,0,0,1,2.28-1.3.71.71,0,0,1,.67.48,2.27,2.27,0,0,1,.22.87,3.37,3.37,0,0,1-.38,1Z"/><path class="cls-1" d="M261.51,231.83a1.36,1.36,0,0,0,0,.2,4,4,0,0,0,.74,1.86,4.19,4.19,0,0,1-.56.45c.05,1.12.07,2.17.07,3.29a6,6,0,0,1-.3,1.79,3,3,0,0,1-1,1.55,4.18,4.18,0,0,1-2.3.78,7.46,7.46,0,0,1-2.26-.42v-.11A11,11,0,0,0,260,240a7.28,7.28,0,0,0-1-1.87c-.59-.9-1.25-1.83-2-2.93a4.39,4.39,0,0,1-.91-1.71,2.73,2.73,0,0,1,.42-.88h.05a16.84,16.84,0,0,0,1.49,1.61l-.29.52c.84,1.32,1.64,2.51,2.18,3.47a3.3,3.3,0,0,1,.4,1.59h.05a1.93,1.93,0,0,0,.74-1.67c0-.93-.09-2.1-.24-3.7,0-.42-.11-1-.11-1.43a1,1,0,0,1,.19-.66,4.18,4.18,0,0,1,.54-.58Z"/><path class="cls-1" d="M266.1,241.22H266a2,2,0,0,1-1.57-.52c-.55-.57-.56-1.22-.56-2.57,0-1.74-.1-3.56-.24-5.51a7.55,7.55,0,0,1,.86-.85l.06,0c.15,2,.15,4.38.15,6.64V239a1,1,0,0,0,.69,1,1.93,1.93,0,0,0,.58.1h.13Z"/><path class="cls-1" d="M266.26,240.05a6.23,6.23,0,0,0,1.81-.17c.32-.12.52-.25.52-.41a7.5,7.5,0,0,0-.92-2.26,6.7,6.7,0,0,1,.69-1h.05a6.48,6.48,0,0,1,.91,2.8,2.69,2.69,0,0,1-.64,1.7c-.41.42-1.06.55-2.46.55h-.12a.59.59,0,0,1-.64-.61.57.57,0,0,1,.64-.56ZM268,243a7.1,7.1,0,0,1,1.1,1,3.79,3.79,0,0,1-.76.9c-.35-.34-.71-.64-1.08-1C267.5,243.56,267.75,243.24,268,243Z"/><path class="cls-1" d="M67.31,278.5a4,4,0,0,1-1.48-.25,2.75,2.75,0,0,1-1.07-.71,2.17,2.17,0,0,1-.51.45,3.64,3.64,0,0,1-.59.3,2.69,2.69,0,0,1-.62.16,4.28,4.28,0,0,1-.6.05A3.41,3.41,0,0,1,60.6,278v.72a4.39,4.39,0,0,1-1.2,3.36,5.1,5.1,0,0,1-3.58,1.11h-2a5.06,5.06,0,0,1-2.4-.57A4.6,4.6,0,0,1,49.67,281,4.88,4.88,0,0,1,49,279.4a7,7,0,0,1-.14-1.91,9.38,9.38,0,0,1,.38-2.13,14.1,14.1,0,0,1,.88-2.31l1.45.71a14.18,14.18,0,0,0-.76,1.9,9.15,9.15,0,0,0-.35,1.73,5.8,5.8,0,0,0,.07,1.52,3.66,3.66,0,0,0,.49,1.24,3.06,3.06,0,0,0,1.16,1.07,3.46,3.46,0,0,0,1.62.38h2a5.38,5.38,0,0,0,1.6-.2,2.16,2.16,0,0,0,1-.59,2,2,0,0,0,.47-.9,5.26,5.26,0,0,0,.12-1.17v-6H60.6v1.66a4.57,4.57,0,0,0,.15,1.31,2,2,0,0,0,.42.76,1.29,1.29,0,0,0,.59.35,2.58,2.58,0,0,0,.68.08,1.86,1.86,0,0,0,.49-.07,1.54,1.54,0,0,0,.51-.26,1.81,1.81,0,0,0,.41-.49,1.65,1.65,0,0,0,.16-.77v-2.57h1.61v2.65a1.57,1.57,0,0,0,.41,1.15,1.87,1.87,0,0,0,1.27.36,1.62,1.62,0,0,0,.38-.06,1.18,1.18,0,0,0,.45-.22,1.35,1.35,0,0,0,.38-.48,1.94,1.94,0,0,0,.16-.83,4.54,4.54,0,0,0,0-.47c0-.19,0-.39-.08-.6s-.06-.44-.1-.66-.08-.44-.11-.64l-.11-.53a2.31,2.31,0,0,0-.09-.36l1.54-.47.07.26c0,.15.07.33.11.54s.09.45.14.71.09.53.13.79.08.53.1.77a5.52,5.52,0,0,1,0,.66,3.5,3.5,0,0,1-.26,1.4,2.86,2.86,0,0,1-.68,1,2.68,2.68,0,0,1-1,.6A3.39,3.39,0,0,1,67.31,278.5Z"/><path class="cls-1" d="M69.54,283.24v-1.61h1.18a4.94,4.94,0,0,0,1.52-.21,2.57,2.57,0,0,0,1.07-.65,2.61,2.61,0,0,0,.62-1.11,5.42,5.42,0,0,0,.2-1.6v-5.33h1.62v5.33a7,7,0,0,1-.32,2.18,4.35,4.35,0,0,1-1,1.63,4.19,4.19,0,0,1-1.57,1,6.35,6.35,0,0,1-2.18.35Z"/><path class="cls-1" d="M82.15,278.5a8.89,8.89,0,0,1-1.39-.12,3.48,3.48,0,0,1-1-.34,1.75,1.75,0,0,1-.65-.54,2.41,2.41,0,0,1-.38-.77,3.71,3.71,0,0,1-.18-1c0-.36,0-.77,0-1.21v-8.22h1.62v8.22a9.91,9.91,0,0,0,.05,1.2,1.39,1.39,0,0,0,.24.72,1.1,1.1,0,0,0,.61.34,6.05,6.05,0,0,0,1.12.1Z"/><path class="cls-1" d="M87.85,271.55l.07.27c0,.15.07.33.11.55s.09.46.14.73.1.53.14.8.07.53.1.78a5.52,5.52,0,0,1,0,.66,3.51,3.51,0,0,1-.26,1.41,3,3,0,0,1-.7,1,2.82,2.82,0,0,1-1,.57,3.17,3.17,0,0,1-1.09.19H81.9v-1.61h3.53l.36,0a1.22,1.22,0,0,0,.88-.66,1.68,1.68,0,0,0,.18-.85,4.54,4.54,0,0,0,0-.47c0-.2,0-.4-.08-.62s-.06-.44-.1-.67-.08-.45-.12-.66-.08-.38-.12-.54-.06-.28-.08-.36Zm-2.43,10L84,282.92l-1.33-1.38,1.35-1.37Zm.31,3.7L84.5,284l1.2-1.19L86.91,284Zm3-3.72-1.38,1.39L86,281.52l1.35-1.36Z"/><path class="cls-1" d="M98.14,284.14H96.53v-8.85l1.56-.91.51.28.48.27c.18.1.35.19.51.26a13.13,13.13,0,0,1,.3-1.38,6.09,6.09,0,0,1,.41-1.12,2.73,2.73,0,0,1,2.61-1.66,3.1,3.1,0,0,1,1.43.32,2.94,2.94,0,0,1,1.09.93,3.79,3.79,0,0,1,.56,1.18,5.07,5.07,0,0,1,.19,1.42,5.88,5.88,0,0,1-.14,1.42,3.83,3.83,0,0,1-.36,1,2.38,2.38,0,0,1-.52.66,2.63,2.63,0,0,1-.57.37,2.2,2.2,0,0,1-.57.18,2.88,2.88,0,0,1-.47,0,2,2,0,0,1-.37,0,4.6,4.6,0,0,1-.62-.18c-.27-.09-.6-.22-1-.39s-.89-.41-1.47-.7c-.4-.19-.76-.38-1.11-.56l-.84-.44Zm3-8.19c.49.24.89.43,1.2.56s.56.23.74.29a1.91,1.91,0,0,0,.39.12l.12,0a1.76,1.76,0,0,0,.27,0,.68.68,0,0,0,.35-.22,1.89,1.89,0,0,0,.29-.62,4.47,4.47,0,0,0,.12-1.19c0-.06,0-.16,0-.3a2.6,2.6,0,0,0-.07-.45,3.84,3.84,0,0,0-.16-.52,2,2,0,0,0-.29-.48,1.72,1.72,0,0,0-.47-.36,1.48,1.48,0,0,0-.67-.14,1.38,1.38,0,0,0-.59.12,1.17,1.17,0,0,0-.49.48,4.44,4.44,0,0,0-.39,1A16.56,16.56,0,0,0,101.1,276Z"/><path class="cls-1" d="M112.62,278.5a8.89,8.89,0,0,1-1.39-.12,3.48,3.48,0,0,1-1-.34,1.83,1.83,0,0,1-.65-.54,2.64,2.64,0,0,1-.38-.77,4.72,4.72,0,0,1-.18-1c0-.36,0-.77,0-1.21v-8.22h1.61v8.22c0,.49,0,.9.05,1.2a1.39,1.39,0,0,0,.24.72,1.1,1.1,0,0,0,.61.34,6.14,6.14,0,0,0,1.12.1Z"/><path class="cls-1" d="M112.36,278.5v-1.61h5a3.37,3.37,0,0,0,1-.14.89.89,0,0,0,.52-.39.85.85,0,0,0,0-.61,3.33,3.33,0,0,0-.37-.81,7.52,7.52,0,0,0-.65-.92c-.25-.33-.53-.65-.82-1s-.61-.64-.92-1-.61-.6-.9-.86-.56-.5-.8-.7-.43-.36-.59-.47l.16-1.82,7.82-3.43.65,1.47-6.84,3,.66.64.87.87c.31.31.63.65.95,1s.64.72.93,1.07.54.72.77,1.06a5.18,5.18,0,0,1,.5.95,3.78,3.78,0,0,1,.2.7,3.3,3.3,0,0,1,0,.6,2.31,2.31,0,0,1-.07.48c0,.14-.08.26-.12.37a2.31,2.31,0,0,1-.29.47,2.23,2.23,0,0,1-.55.49,3.72,3.72,0,0,1-.89.38,4.79,4.79,0,0,1-1.3.15Z"/><path class="cls-1" d="M130.8,266.22h-4.13a7.6,7.6,0,0,0-.9,0,2,2,0,0,0-.62.17,1.12,1.12,0,0,0-.41.37,2.32,2.32,0,0,0-.28.63l-1.35-.4a2.82,2.82,0,0,1,1.43-1.89,2.75,2.75,0,0,1,1-.28,8.56,8.56,0,0,1,1.17-.07h4.13ZM128,278.5h-1.61V267.59H128Z"/><path class="cls-1" d="M149.49,278.5a3.28,3.28,0,0,1,.39,1.32,2.43,2.43,0,0,1-.2,1.15,2.72,2.72,0,0,1-.7.94,4.12,4.12,0,0,1-1.11.7,7.06,7.06,0,0,1-1.43.45,8.73,8.73,0,0,1-1.65.15h-2.44a4.87,4.87,0,0,1-2.42-.59,4.75,4.75,0,0,1-1.76-1.63,5,5,0,0,1-.66-1.62,6.63,6.63,0,0,1-.14-1.91,9.58,9.58,0,0,1,.38-2.13,13.71,13.71,0,0,1,.9-2.31l1.43.7a10.64,10.64,0,0,0-1.09,3.65,4.41,4.41,0,0,0,.56,2.75,2.86,2.86,0,0,0,1.17,1.09,3.52,3.52,0,0,0,1.63.37h2.44a5.86,5.86,0,0,0,.94-.07,5.42,5.42,0,0,0,.86-.2,5.54,5.54,0,0,0,.73-.3,2.89,2.89,0,0,0,.54-.39,1.3,1.3,0,0,0,.3-.46.78.78,0,0,0,0-.5,1,1,0,0,0-.48-.56,3.38,3.38,0,0,0-.9-.36,7.91,7.91,0,0,0-1.15-.18c-.41,0-.8-.06-1.18-.06l.06-1.61h7.36v1.61Z"/><path class="cls-1" d="M159.1,276.89v1.61h-1.41a3.9,3.9,0,0,1-1.37-.22,2.19,2.19,0,0,1-.95-.67,3.58,3.58,0,0,1-2.63.89h-2.82v-1.61h2.82a3.11,3.11,0,0,0,1-.13,1.37,1.37,0,0,0,.55-.31.86.86,0,0,0,.24-.41,2.18,2.18,0,0,0,.05-.43v-2.88h1.61v2.82a1.45,1.45,0,0,0,.09.54,1.27,1.27,0,0,0,.25.37,1.12,1.12,0,0,0,.33.24,3,3,0,0,0,.35.13l.31.05h1.61Zm-6.31-6.51L151.44,269l1.33-1.38,1.39,1.38Zm3.27,0L154.71,269l1.34-1.39,1.38,1.39Z"/><path class="cls-1" d="M163.46,271.55l.07.27c0,.15.07.33.11.55s.09.46.14.73.1.53.14.8.07.53.1.78a5.52,5.52,0,0,1,0,.66,3.51,3.51,0,0,1-.26,1.41,3,3,0,0,1-.7,1,2.82,2.82,0,0,1-1,.57,3.17,3.17,0,0,1-1.09.19h-2.18v-1.61H161l.36,0a1.22,1.22,0,0,0,.88-.66,1.68,1.68,0,0,0,.18-.85,4.54,4.54,0,0,0,0-.47c0-.2-.05-.4-.08-.62s-.06-.44-.1-.67-.08-.45-.12-.66-.08-.38-.11-.54l-.09-.36ZM160.6,268l1.45-1.47,1.49,1.49-1.47,1.47Z"/><path class="cls-1" d="M171.31,278.5h-.37a3.58,3.58,0,0,1-1.51-.32,6.44,6.44,0,0,1-.33,2.13,4.27,4.27,0,0,1-1,1.59,4.19,4.19,0,0,1-1.57,1,6.22,6.22,0,0,1-2.15.34h-1.18v-1.61h1.18a4.94,4.94,0,0,0,1.52-.21,2.57,2.57,0,0,0,1.07-.65,2.61,2.61,0,0,0,.62-1.11,5.42,5.42,0,0,0,.2-1.6v-5.33h1.62v2.82a1.19,1.19,0,0,0,.2.75,1.33,1.33,0,0,0,.46.4,1.86,1.86,0,0,0,.51.16l.34,0h.37Z"/><path class="cls-1" d="M180.13,276.89v1.61h-1.41a3.82,3.82,0,0,1-1.37-.22,2.14,2.14,0,0,1-.95-.67,3.58,3.58,0,0,1-2.63.89H171v-1.61h2.82a3.11,3.11,0,0,0,1-.13,1.26,1.26,0,0,0,.54-.31.86.86,0,0,0,.24-.41,1.65,1.65,0,0,0,.06-.43v-2.88h1.6v2.82a1.44,1.44,0,0,0,.1.54,1.48,1.48,0,0,0,.24.37,1.27,1.27,0,0,0,.33.24,2.6,2.6,0,0,0,.36.13l.31.05h1.61Zm-6.31-6.51L172.47,269l1.33-1.38,1.38,1.38Zm3.27,0L175.74,269l1.33-1.39,1.39,1.39Z"/><path class="cls-1" d="M187,276.89v1.61h-.67a3.86,3.86,0,0,1-1.37-.22,2.14,2.14,0,0,1-.95-.67,3.58,3.58,0,0,1-2.63.89h-1.64v-1.61h1.64a3.11,3.11,0,0,0,1-.13,1.26,1.26,0,0,0,.54-.31.73.73,0,0,0,.24-.41,1.65,1.65,0,0,0,.06-.43v-2.88h1.6v2.82a1.27,1.27,0,0,0,.1.54,1.08,1.08,0,0,0,.24.37,1.27,1.27,0,0,0,.33.24,3.17,3.17,0,0,0,.36.13l.31.05H187Zm-5-8.1,1.46-1.47,1.48,1.49-1.47,1.47Z"/><path class="cls-1" d="M192.65,271.55l.07.27c0,.15.07.33.11.55s.09.46.14.73.1.53.14.8.07.53.1.78a5.73,5.73,0,0,1,0,.66,3.35,3.35,0,0,1-.27,1.41,3,3,0,0,1-.7,1,2.73,2.73,0,0,1-1,.57,3.17,3.17,0,0,1-1.09.19H186.7v-1.61h3.53l.37,0a1.41,1.41,0,0,0,.47-.19,1.48,1.48,0,0,0,.41-.47,1.8,1.8,0,0,0,.17-.85,4.54,4.54,0,0,0,0-.47c0-.2,0-.4-.08-.62s-.06-.44-.1-.67-.08-.45-.12-.66-.08-.38-.11-.54l-.09-.36ZM190,281.77l-1.38,1.38-1.33-1.38,1.34-1.37Zm3.27,0-1.38,1.39-1.33-1.39,1.35-1.36Z"/><path class="cls-1" d="M197.67,278.49h-1.61V266.31h1.61Z"/><path class="cls-1" d="M209.82,278.5a4,4,0,0,1-1.41-.24,3.52,3.52,0,0,1-1.12-.64,3.14,3.14,0,0,1-.74-1,3,3,0,0,1-.26-1.23,4.4,4.4,0,0,1,.23-1.51,5.38,5.38,0,0,1,.57-1.18,6.61,6.61,0,0,1,.77-1c.28-.29.55-.57.8-.85l-.53-.59,1.2-1.09c.29.33.6.67.92,1s.62.67.92,1,.59.68.85,1a8.84,8.84,0,0,1,.7,1,5.16,5.16,0,0,1,.47,1,2.73,2.73,0,0,1,.17,1,3.28,3.28,0,0,1-.28,1.29,3.14,3.14,0,0,1-.78,1.07,3.56,3.56,0,0,1-1.11.63A4.1,4.1,0,0,1,209.82,278.5Zm-.11-6.45c-.21.25-.43.49-.65.73a6.2,6.2,0,0,0-.58.77,4.2,4.2,0,0,0-.42.85,3.18,3.18,0,0,0-.16,1,1.24,1.24,0,0,0,.17.66,1.46,1.46,0,0,0,.43.46,1.84,1.84,0,0,0,.62.28,2.8,2.8,0,0,0,.7.09,2.43,2.43,0,0,0,.79-.12,1.88,1.88,0,0,0,.61-.33,1.39,1.39,0,0,0,.39-.51,1.51,1.51,0,0,0,.14-.65,2.08,2.08,0,0,0-.18-.84,4.54,4.54,0,0,0-.47-.82,9,9,0,0,0-.65-.79Z"/><path class="cls-1" d="M219.81,278.5a9,9,0,0,1-1.4-.12,3.48,3.48,0,0,1-1-.34,1.83,1.83,0,0,1-.65-.54,2.64,2.64,0,0,1-.38-.77,4.72,4.72,0,0,1-.18-1c0-.36,0-.77,0-1.21v-8.22h1.61v8.22c0,.49,0,.9.05,1.2a1.31,1.31,0,0,0,.25.72,1,1,0,0,0,.6.34,6.27,6.27,0,0,0,1.13.1Z"/><path class="cls-1" d="M230.57,278.5h-.13a5.46,5.46,0,0,1-1.35-.15,4,4,0,0,1-1.08-.41,4.49,4.49,0,0,1-.9-.65,9.39,9.39,0,0,1-.8-.85.2.2,0,0,1,0,.08l0,.08a2.79,2.79,0,0,1-.67.84,3.71,3.71,0,0,1-1,.62,4.72,4.72,0,0,1-1.12.33,7.62,7.62,0,0,1-1.28.11h-2.51v-1.61h2.51a5.46,5.46,0,0,0,.93-.08,4.12,4.12,0,0,0,.77-.2,2.52,2.52,0,0,0,.59-.32,1.6,1.6,0,0,0,.37-.42,1.46,1.46,0,0,0,0-1,4.06,4.06,0,0,0-.7-1.32l-1.29-1.81-.86-1.21-.64-.9.31-1.2,7.84-3.62.67,1.48-7,3.2,3.39,4.71c.35.47.66.87.94,1.21a5.09,5.09,0,0,0,.83.84,2.82,2.82,0,0,0,.92.49,3.79,3.79,0,0,0,1.19.17h.13Zm-8.66-12.61,6.48-2.8.36.77-6.93,3Z"/><path class="cls-1" d="M236.92,278.48a4.15,4.15,0,0,1-1.42-.23,2.73,2.73,0,0,1-1.05-.68,2.7,2.7,0,0,1-1,.7,3.26,3.26,0,0,1-1.18.23h-1.88v-1.61h1.88l.36,0a1.14,1.14,0,0,0,.47-.2,1.28,1.28,0,0,0,.41-.47,1.77,1.77,0,0,0,.17-.87v-2.58h1.62v2.55a1.63,1.63,0,0,0,.39,1.21,1.74,1.74,0,0,0,1.27.39,2.24,2.24,0,0,0,.37-.05,1.29,1.29,0,0,0,.47-.21,1.52,1.52,0,0,0,.41-.48,1.87,1.87,0,0,0,.17-.86v-2.55H240v2.55a1.63,1.63,0,0,0,.4,1.22,1.81,1.81,0,0,0,1.29.39,1.51,1.51,0,0,0,.37-.05,1.21,1.21,0,0,0,.45-.23,1.37,1.37,0,0,0,.39-.48,1.9,1.9,0,0,0,.16-.85c0-.12,0-.28,0-.47s0-.39-.07-.61-.07-.43-.11-.66l-.12-.63c0-.2-.08-.37-.11-.53a1.73,1.73,0,0,0-.09-.34l1.53-.49a2.16,2.16,0,0,1,.07.27c0,.14.07.32.12.54s.09.45.14.71.09.52.14.79.08.52.11.77,0,.46,0,.65a3.41,3.41,0,0,1-.27,1.41,2.9,2.9,0,0,1-.68,1,2.81,2.81,0,0,1-1,.6,3.33,3.33,0,0,1-1.07.21,4,4,0,0,1-1.45-.24,2.91,2.91,0,0,1-1.06-.71,2.74,2.74,0,0,1-1,.7A3.06,3.06,0,0,1,236.92,278.48Zm.66-8.1L236.23,269l1.33-1.38L239,269Zm2.85-3.85-1.21,1.19L238,266.53l1.23-1.22Zm.42,3.86L239.5,269l1.34-1.39,1.38,1.39Z"/><path class="cls-1" d="M247.17,281.6a9.54,9.54,0,0,0,2.17-.2,3.38,3.38,0,0,0,1.39-.6,2.12,2.12,0,0,0,.66-.92,3.93,3.93,0,0,0,.21-1.38H250a4.33,4.33,0,0,1-1.21-.18,3.13,3.13,0,0,1-1.11-.59,3,3,0,0,1-.82-1.07,3.75,3.75,0,0,1-.31-1.62,4.53,4.53,0,0,1,.34-1.84,4,4,0,0,1,.33-.62,4.74,4.74,0,0,1,.35-.45,3.33,3.33,0,0,1,1.08-.73,3.27,3.27,0,0,1,1.3-.25,3.48,3.48,0,0,1,1.13.18,3,3,0,0,1,1,.57,4.41,4.41,0,0,1,1.15,3.37v3.23a5.71,5.71,0,0,1-.35,2.09,3.52,3.52,0,0,1-1.1,1.46,4.85,4.85,0,0,1-1.87.88,11.06,11.06,0,0,1-2.71.28Zm2.8-8.84a1.57,1.57,0,0,0-1.32.6,2.69,2.69,0,0,0-.47,1.68,1.65,1.65,0,0,0,.67,1.53,1.71,1.71,0,0,0,.33.17l.33.09.3,0,.21,0h1.58v-1.62a5.12,5.12,0,0,0-.1-1,2.75,2.75,0,0,0-.24-.72,1.23,1.23,0,0,0-.33-.43,1.4,1.4,0,0,0-.36-.22,1.51,1.51,0,0,0-.34-.08Z"/><path class="cls-1" d="M261.59,278.5h-.37a3.62,3.62,0,0,1-1.51-.32,6.44,6.44,0,0,1-.33,2.13,4.17,4.17,0,0,1-2.55,2.59,6.22,6.22,0,0,1-2.15.34H253.5v-1.61h1.18a4.9,4.9,0,0,0,1.52-.21,2.57,2.57,0,0,0,1.07-.65,2.74,2.74,0,0,0,.63-1.11,5.77,5.77,0,0,0,.2-1.6v-5.33h1.61v2.82a1.26,1.26,0,0,0,.2.75,1.28,1.28,0,0,0,.47.4,1.71,1.71,0,0,0,.5.16l.34,0h.37Z"/><path class="cls-1" d="M261.24,278.5v-1.61h3.28a7,7,0,0,0,1.54-.14,3.22,3.22,0,0,0,.91-.34,1.17,1.17,0,0,0,.44-.45,1.47,1.47,0,0,0,.14-.47h-1.79l-.57-.07a3.9,3.9,0,0,1-.59-.14A2.75,2.75,0,0,1,264,275a3.24,3.24,0,0,1-.47-.34,2.22,2.22,0,0,1-.43-.51,3.1,3.1,0,0,1-.31-.71,3.5,3.5,0,0,1-.13-1,3.58,3.58,0,0,1,.24-1.31,3,3,0,0,1,1.7-1.74,3.12,3.12,0,0,1,1.22-.23,3,3,0,0,1,1.37.31,2.87,2.87,0,0,1,1.05.91,4,4,0,0,1,.68,1.52,8.62,8.62,0,0,1,.23,2.07v1.18a3.32,3.32,0,0,1-.34,1.51,2.73,2.73,0,0,1-1,1.06,6.06,6.06,0,0,1-3.28.73Zm2.94-12.71,1.46-1.47,1.48,1.49-1.47,1.47Zm1.65,5a1.67,1.67,0,0,0-.57.1,1.46,1.46,0,0,0-.53.3,1.48,1.48,0,0,0-.39.52,1.73,1.73,0,0,0-.15.75,1.63,1.63,0,0,0,.06.47.87.87,0,0,0,.16.32,1.23,1.23,0,0,0,.19.2l.2.13a2.29,2.29,0,0,0,.61.21,5.17,5.17,0,0,0,.84.06h1.32a6.37,6.37,0,0,0-.18-1.48,3.16,3.16,0,0,0-.43-1A1.32,1.32,0,0,0,265.83,270.82Z"/><path class="cls-2" d="M242.44,84.06a8.18,8.18,0,1,0,6.43-6.42A8.2,8.2,0,0,0,242.44,84.06Z"/><path class="cls-2" d="M181.11,84.06a8.18,8.18,0,1,0,6.43-6.42A8.2,8.2,0,0,0,181.11,84.06Z"/><path class="cls-2" d="M197.32,85.66h4.13a2,2,0,0,0,2-2V52.91a2,2,0,0,0-2-2H186.61a2,2,0,0,0-1.94,1.52l-3.55,14.2a2,2,0,0,1-.66,1.05l-4.91,4.1a2,2,0,0,0-.72,1.53V83.66a2,2,0,0,0,2,2H181"/><path class="cls-2" d="M258.64,85.66h8.22a2,2,0,0,0,2-2V34.51a2,2,0,0,0-2-2H193.18a2,2,0,0,0-2,2v8.27a2,2,0,0,0,2,2h12.31"/><line class="cls-3" x1="242.29" y1="85.66" x2="202.31" y2="85.66"/><line class="cls-2" x1="180.96" y1="67.27" x2="203.45" y2="67.27"/><rect class="cls-2" x="232.07" y="44.78" width="24.53" height="24.53" rx="2" transform="translate(488.67 114.09) rotate(-180)"/><path class="cls-2" d="M250.47,55l-5-3.35a2,2,0,0,0-2.22,0l-5,3.35"/><line class="cls-2" x1="244.33" y1="50.91" x2="244.33" y2="65.22"/><line class="cls-2" x1="270.91" y1="96.84" x2="172.79" y2="96.84"/></g></g></svg>