<svg xmlns="http://www.w3.org/2000/svg" viewBox="0 0 36.49 69.01"><defs><style>.cls-1{fill:#fff;}</style></defs><title>Asset 9</title><g id="Layer_2" data-name="Layer 2"><g id="Layer_1-2" data-name="Layer 1"><path class="cls-1" d="M29.26,18.57a.32.32,0,0,1,.33.32V50.65a.33.33,0,0,1-.33.33H3.33A.33.33,0,0,1,3,50.65V18.89a.32.32,0,0,1,.33-.32H29.26m0-3H3.33A3.33,3.33,0,0,0,0,18.89V50.65A3.33,3.33,0,0,0,3.33,54H29.26a3.33,3.33,0,0,0,3.33-3.33V18.89a3.33,3.33,0,0,0-3.33-3.32Z"/><path class="cls-1" d="M22.64,69H9.89a3.1,3.1,0,0,1-3.06-2.63L6.31,62.9a34.73,34.73,0,0,0-.78-4.54L4.8,55.24h23A54.88,54.88,0,0,0,26,64.33l-.34,2.09A3.09,3.09,0,0,1,22.64,69Z"/><path class="cls-1" d="M10,0H22.72a3.08,3.08,0,0,1,3.05,2.63l.53,3.48a36.47,36.47,0,0,0,.77,4.54l.74,3.12h-23A54.88,54.88,0,0,0,6.58,4.68l.34-2.09A3.09,3.09,0,0,1,10,0Z"/><path class="cls-1" d="M33.67,25.17h1.56a1.25,1.25,0,0,1,1.25,1.25v3.12a1.25,1.25,0,0,1-1.25,1.25H33.67a0,0,0,0,1,0,0V25.17a0,0,0,0,1,0,0Z"/></g></g></svg>