<?xml version="1.0" encoding="utf-8"?>
<!-- Generator: Adobe Illustrator 18.0.0, SVG Export Plug-In . SVG Version: 6.00 Build 0)  -->
<!DOCTYPE svg PUBLIC "-//W3C//DTD SVG 1.1//EN" "http://www.w3.org/Graphics/SVG/1.1/DTD/svg11.dtd">
<svg version="1.1" id="Layer_1" xmlns="http://www.w3.org/2000/svg" xmlns:xlink="http://www.w3.org/1999/xlink" x="0px" y="0px"
	 viewBox="0 0 103.2 102.3" enable-background="new 0 0 103.2 102.3" xml:space="preserve">
<g>
	
		<path fill="none" stroke="#C8C8C8" stroke-width="2.5" stroke-linecap="round" stroke-linejoin="round" stroke-miterlimit="22.9256" d="
		M60.8,66.5c-5.5,8.2,3.4,17.1,11.6,11.6c0.4-0.3,0.8-0.6,1-1C79,68.8,70.1,60,61.9,65.5C61.5,65.7,61.1,66.1,60.8,66.5z"/>
	
		<path fill="none" stroke="#C8C8C8" stroke-width="2.5" stroke-linecap="round" stroke-linejoin="round" stroke-miterlimit="22.9256" d="
		M12.7,66.5c-5.5,8.2,3.4,17.1,11.6,11.6c0.4-0.3,0.8-0.6,1-1C30.9,68.8,22,60,13.8,65.5C13.4,65.7,13,66.1,12.7,66.5z"/>
	
		<polyline fill="none" stroke="#C8C8C8" stroke-width="2.5" stroke-linecap="round" stroke-linejoin="round" stroke-miterlimit="22.9256" points="
		27.1,71.8 33.1,71.8 33.1,37.7 15,37.7 11,53.7 5,58.7 5,71.8 11,71.8 	"/>
	
		<line fill="none" stroke="#C8C8C8" stroke-width="2.5" stroke-linecap="round" stroke-linejoin="round" stroke-miterlimit="22.9256" x1="79.2" y1="55.7" x2="99.2" y2="55.7"/>
	
		<line fill="none" stroke="#C8C8C8" stroke-width="2.5" stroke-linecap="round" stroke-linejoin="round" stroke-miterlimit="22.9256" x1="91.2" y1="41.7" x2="79.2" y2="41.7"/>
	
		<polyline fill="none" stroke="#C8C8C8" stroke-width="2.5" stroke-linecap="round" stroke-linejoin="round" stroke-miterlimit="22.9256" points="
		73.2,19.7 21.1,19.7 21.1,31.7 35.1,31.7 	"/>
	
		<polyline fill="none" stroke="#C8C8C8" stroke-width="2.5" stroke-linecap="round" stroke-linejoin="round" stroke-miterlimit="22.9256" points="
		75.2,71.8 85.2,71.8 85.2,55.7 	"/>
	
		<line fill="none" stroke="#C8C8C8" stroke-width="2.5" stroke-linecap="round" stroke-linejoin="round" stroke-miterlimit="22.9256" x1="59.1" y1="71.8" x2="39.1" y2="71.8"/>
	
		<line fill="none" stroke="#C8C8C8" stroke-width="2.5" stroke-linecap="round" stroke-linejoin="round" stroke-miterlimit="22.9256" x1="11" y1="53.7" x2="33.1" y2="53.7"/>
	
		<line fill="none" stroke="#C8C8C8" stroke-width="2.5" stroke-linecap="round" stroke-linejoin="round" stroke-miterlimit="22.9256" x1="39.1" y1="71.8" x2="33.1" y2="71.8"/>
	
		<polyline fill="none" stroke="#C8C8C8" stroke-width="2.5" stroke-linecap="round" stroke-linejoin="round" stroke-miterlimit="22.9256" points="
		69.2,31.7 49.1,31.7 49.1,55.7 73.2,55.7 	"/>
	
		<polyline fill="none" stroke="#C8C8C8" stroke-width="2.5" stroke-linecap="round" stroke-linejoin="round" stroke-miterlimit="22.9256" points="
		67.1,41.7 61.1,37.7 55.1,41.7 	"/>
	
		<line fill="none" stroke="#C8C8C8" stroke-width="2.5" stroke-linecap="round" stroke-linejoin="round" stroke-miterlimit="22.9256" x1="61.1" y1="37.7" x2="61.1" y2="51.7"/>
	
		<line fill="none" stroke="#C8C8C8" stroke-width="2.5" stroke-linecap="round" stroke-linejoin="round" stroke-miterlimit="22.9256" x1="99.2" y1="79.8" x2="3" y2="79.8"/>
	
		<line fill="none" stroke="#C8C8C8" stroke-width="2.5" stroke-linecap="round" stroke-linejoin="round" stroke-miterlimit="22.9256" x1="95.2" y1="41.7" x2="99.2" y2="41.7"/>
	
		<line fill="none" stroke="#C8C8C8" stroke-width="2.5" stroke-linecap="round" stroke-linejoin="round" stroke-miterlimit="22.9256" x1="77.2" y1="19.7" x2="89.2" y2="19.7"/>
	
		<line fill="none" stroke="#C8C8C8" stroke-width="2.5" stroke-linecap="round" stroke-linejoin="round" stroke-miterlimit="22.9256" x1="73.2" y1="31.7" x2="85.2" y2="31.7"/>
	
		<line fill="none" stroke="#C8C8C8" stroke-width="2.5" stroke-linecap="round" stroke-linejoin="round" stroke-miterlimit="22.9256" x1="89.2" y1="31.7" x2="93.2" y2="31.7"/>
</g>
</svg>
