<svg xmlns="http://www.w3.org/2000/svg" viewBox="0 0 25.4 25.4"><defs><style>.cls-1{fill:#fff;}</style></defs><title>Asset 1</title><g id="Layer_2" data-name="Layer 2"><g id="Layer_1-2" data-name="Layer 1"><path class="cls-1" d="M3.26,0H22.14A3.27,3.27,0,0,1,25.4,3.26V22.14a3.26,3.26,0,0,1-3.26,3.26H3.26A3.27,3.27,0,0,1,0,22.14V3.26A3.27,3.27,0,0,1,3.26,0ZM18.51,2.82A1.16,1.16,0,0,0,17.36,4V6.7a1.16,1.16,0,0,0,1.15,1.15h2.87A1.15,1.15,0,0,0,22.52,6.7V4a1.15,1.15,0,0,0-1.14-1.15Zm4,7.92H20.3a7.46,7.46,0,0,1,.32,2.18,7.77,7.77,0,0,1-7.89,7.65,7.78,7.78,0,0,1-7.9-7.65,7.15,7.15,0,0,1,.33-2.18H2.82V21.47a1,1,0,0,0,1,1H21.52a1,1,0,0,0,1-1Zm-9.8-3a5,5,0,0,0-5.11,5,5,5,0,0,0,5.11,4.94,5,5,0,0,0,5.1-4.94A5,5,0,0,0,12.73,7.7Z"/></g></g></svg>