<svg xmlns="http://www.w3.org/2000/svg" viewBox="0 0 25.66 25.66"><defs><style>.cls-1{fill:#fff;}</style></defs><title>Asset 3</title><g id="Layer_2" data-name="Layer 2"><g id="Layer_1-2" data-name="Layer 1"><path class="cls-1" d="M12.83,0A12.83,12.83,0,0,0,7.68,24.58a11,11,0,0,1,.22-2.94c.25-1.05,1.65-7,1.65-7a4.88,4.88,0,0,1-.41-2c0-1.9,1.11-3.32,2.48-3.32a1.72,1.72,0,0,1,1.73,1.93c0,1.17-.75,2.93-1.13,4.55a2,2,0,0,0,2,2.47c2.43,0,4.07-3.12,4.07-6.82,0-2.81-1.89-4.91-5.34-4.91a6.08,6.08,0,0,0-6.32,6.14,3.69,3.69,0,0,0,.85,2.52.6.6,0,0,1,.18.71c-.06.24-.2.81-.26,1a.43.43,0,0,1-.64.32C5,16.5,4.15,14.54,4.15,12.33c0-3.64,3.08-8,9.17-8,4.9,0,8.13,3.54,8.13,7.35,0,5-2.8,8.79-6.93,8.79a3.67,3.67,0,0,1-3.13-1.6s-.75,3-.9,3.53a11.25,11.25,0,0,1-1.3,2.75A12.83,12.83,0,1,0,12.83,0Z"/></g></g></svg>