<svg xmlns="http://www.w3.org/2000/svg" viewBox="0 0 28.5 28.5"><defs><style>.cls-1{stroke:#000;stroke-miterlimit:10;stroke-width:0.5px;}</style></defs><title>Asset 1</title><g id="Layer_2" data-name="Layer 2"><g id="Layer_1-2" data-name="Layer 1"><path class="cls-1" d="M14.25,28.25a14,14,0,1,1,14-14A14,14,0,0,1,14.25,28.25Zm0-27a13,13,0,1,0,13,13A13,13,0,0,0,14.25,1.25Z"/><path class="cls-1" d="M21.18,14.25c0,.17,0,.33,0,.48H8.6a5.86,5.86,0,0,0,6,5.9,6.76,6.76,0,0,0,5.15-2.29l.64.73a7.37,7.37,0,0,1-5.85,2.56,6.91,6.91,0,0,1-7.09-7.27,7,7,0,0,1,7-7.28C18.24,7.08,21.1,10.08,21.18,14.25ZM8.6,13.75H20.05c-.2-3.29-2.54-5.67-5.55-5.67A5.91,5.91,0,0,0,8.6,13.75Z"/></g></g></svg>