<svg xmlns="http://www.w3.org/2000/svg" viewBox="0 0 98.12 64.33"><defs><style>.cls-1{fill:none;stroke:#fff;stroke-miterlimit:10;stroke-width:3px;}</style></defs><title>Asset 14</title><g id="Layer_2" data-name="Layer 2"><g id="Layer_1-2" data-name="Layer 1"><path class="cls-1" d="M71.26,49.26c-5.65,8.4,3.42,17.46,11.81,11.81a3.88,3.88,0,0,0,1-1c5.65-8.4-3.41-17.46-11.81-11.81A3.88,3.88,0,0,0,71.26,49.26Z"/><path class="cls-1" d="M9.93,49.26c-5.64,8.4,3.42,17.46,11.81,11.81a3.92,3.92,0,0,0,1-1c5.64-8.4-3.42-17.46-11.81-11.81A3.78,3.78,0,0,0,9.93,49.26Z"/><polyline class="cls-1" points="24.53 54.65 30.66 54.65 30.66 19.9 12.27 19.9 8.18 36.25 2.04 41.36 2.04 54.65 8.18 54.65"/><polyline class="cls-1" points="85.86 54.65 96.08 54.65 96.08 1.5 18.4 1.5 18.4 13.77 32.71 13.77"/><line class="cls-1" x1="69.5" y1="54.65" x2="36.8" y2="54.65"/><line class="cls-1" x1="8.18" y1="36.25" x2="30.66" y2="36.25"/><line class="cls-1" x1="36.8" y1="54.65" x2="30.66" y2="54.65"/><rect class="cls-1" x="59.28" y="13.77" width="24.53" height="24.53" transform="translate(143.1 52.06) rotate(-180)"/><polyline class="cls-1" points="77.68 23.99 71.55 19.9 65.42 23.99"/><line class="cls-1" x1="71.55" y1="19.9" x2="71.55" y2="34.21"/><line class="cls-1" x1="98.12" y1="62.83" y2="62.83"/></g></g></svg>