<?xml version="1.0" encoding="utf-8"?>
<!-- Generator: Adobe Illustrator 18.0.0, SVG Export Plug-In . SVG Version: 6.00 Build 0)  -->
<!DOCTYPE svg PUBLIC "-//W3C//DTD SVG 1.1//EN" "http://www.w3.org/Graphics/SVG/1.1/DTD/svg11.dtd">
<svg version="1.1" id="Layer_1" xmlns="http://www.w3.org/2000/svg" xmlns:xlink="http://www.w3.org/1999/xlink" x="0px" y="0px"
	 viewBox="0 0 103.2 102.3" enable-background="new 0 0 103.2 102.3" xml:space="preserve">
<path fill="none" stroke="#C8C8C8" stroke-width="2.5" stroke-linecap="round" stroke-linejoin="round" stroke-miterlimit="22.9256" d="
	M21.4,26.6h57.9c2.2,0,4,1.8,4,4v46.2c0,2.2-1.8,4-4,4H21.4c-2.2,0-4-1.8-4-4V30.6C17.5,28.4,19.2,26.6,21.4,26.6L21.4,26.6z
	 M30.3,22.2v9.2 M43.7,22.2v9.2 M57.1,22.2v9.2 M70.5,22.2v9.2 M29.3,46.1v2.3 M39.9,46.1v2.3 M50.4,46.1v2.3 M61,46.1v2.3
	 M29.3,69.4v2.4 M39.9,69.4v2.4 M50.4,69.4v2.4 M71.5,46v2.3 M29.3,57.7v2.4 M58.6,54.8h4.6c1.1,0,1.9,0.9,1.9,1.9v4.6
	c0,1.1-0.9,1.9-1.9,1.9h-4.6c-1.1,0-1.9-0.9-1.9-1.9v-4.6C56.7,55.6,57.5,54.8,58.6,54.8L58.6,54.8z M71.5,57.7v2.4 M50.4,57.7v2.4
	 M39.8,57.7v2.4"/>
</svg>
