<svg xmlns="http://www.w3.org/2000/svg" viewBox="0 0 122.48 15.98"><title>Asset 7</title><g id="Layer_2" data-name="Layer 2"><g id="Layer_1-2" data-name="Layer 1"><rect x="0.49" y="5.32" width="14.99" height="5.32"/><rect width="5.32" height="15.94"/><rect y="5.32" width="5.32" height="5.32"/><rect y="10.65" width="5.32" height="5.32"/><rect x="10.65" width="5.32" height="15.94"/><rect x="10.65" y="5.32" width="5.32" height="5.32"/><rect x="10.65" y="10.65" width="5.32" height="5.32"/><rect x="24.44" width="9.7" height="5.32"/><rect x="21.3" width="5.32" height="15.94"/><rect x="21.3" y="5.32" width="5.32" height="5.32"/><rect x="21.3" y="10.65" width="5.32" height="5.32"/><rect x="31.95" width="5.32" height="15.94"/><rect x="31.95" y="5.32" width="5.32" height="5.32"/><rect x="31.95" y="10.65" width="5.32" height="5.32"/><rect x="45.23" y="5.32" width="10.72" height="5.32"/><rect x="42.6" width="5.32" height="15.94"/><rect x="42.6" y="5.32" width="5.32" height="5.32"/><rect x="42.6" y="10.65" width="5.32" height="5.32"/><rect x="53.25" width="5.32" height="15.98"/><rect x="53.25" y="5.32" width="5.32" height="5.32"/><rect x="53.25" y="10.65" width="5.32" height="5.32"/><rect x="69.22" width="5.32" height="5.32"/><rect x="63.92" y="10.65" width="15.97" height="5.32"/><rect x="63.9" width="15.95" height="5.32"/><rect x="63.9" y="2.58" width="5.32" height="10.81"/><rect x="63.9" y="10.65" width="5.32" height="5.32"/><rect x="74.55" width="5.32" height="5.32"/><rect x="74.55" y="2.67" width="5.32" height="10.63"/><rect x="74.55" y="10.65" width="5.32" height="5.32"/><rect x="90.52" width="5.32" height="5.32"/><rect x="90.52" y="10.65" width="5.32" height="5.32"/><rect x="85.2" width="15.97" height="5.32"/><rect x="85.2" y="3.48" width="5.32" height="10.43"/><rect x="85.2" y="10.65" width="15.95" height="5.32"/><rect x="95.85" width="5.32" height="5.32"/><rect x="95.85" y="2.98" width="5.32" height="10.55"/><rect x="95.85" y="10.65" width="5.32" height="5.32"/><rect x="111.82" y="5.32" width="5.32" height="5.32"/><rect x="111.82" width="5.32" height="5.32"/><rect x="111.82" y="3.99" width="5.32" height="11.98"/><rect x="106.5" width="15.98" height="5.32"/><rect x="117.15" width="5.32" height="5.32"/></g></g></svg>