<?xml version="1.0" encoding="utf-8"?>
<!-- Generator: Adobe Illustrator 18.0.0, SVG Export Plug-In . SVG Version: 6.00 Build 0)  -->
<!DOCTYPE svg PUBLIC "-//W3C//DTD SVG 1.1//EN" "http://www.w3.org/Graphics/SVG/1.1/DTD/svg11.dtd">
<svg version="1.1" id="Layer_1" xmlns="http://www.w3.org/2000/svg" xmlns:xlink="http://www.w3.org/1999/xlink" x="0px" y="0px"
	 viewBox="0 0 17 17" enable-background="new 0 0 17 17" xml:space="preserve">
<path fill="#C8C8C8" d="M2.8,0.8h11.5c1.1,0,2,0.9,2,2v11.5c0,1.1-0.9,2-2,2H2.8c-1.1,0-2-0.9-2-2V2.8C0.8,1.7,1.7,0.8,2.8,0.8z
	 M12.1,2.5c-0.4,0-0.7,0.3-0.7,0.7v1.7c0,0.4,0.3,0.7,0.7,0.7h1.8c0.4,0,0.7-0.3,0.7-0.7V3.2c0-0.4-0.3-0.7-0.7-0.7H12.1z M14.5,7.3
	h-1.4c0.1,0.4,0.2,0.9,0.2,1.3c0,2.6-2.2,4.7-4.8,4.7c-2.7,0-4.8-2.1-4.8-4.7c0-0.5,0.1-0.9,0.2-1.3H2.5v6.5c0,0.3,0.3,0.6,0.6,0.6
	h10.8c0.3,0,0.6-0.3,0.6-0.6V7.3z M8.5,5.5c-1.7,0-3.1,1.3-3.1,3c0,1.7,1.4,3,3.1,3c1.7,0,3.1-1.4,3.1-3C11.6,6.8,10.2,5.5,8.5,5.5z
	"/>
</svg>
