<svg xmlns="http://www.w3.org/2000/svg" viewBox="0 0 187.31 199.6"><defs><style>.cls-1,.cls-2{fill:none;stroke:#fff;stroke-linejoin:round;stroke-width:4px;}.cls-2{stroke-linecap:round;}</style></defs><title>Asset 10</title><g id="Layer_2" data-name="Layer 2"><g id="Layer_1-2" data-name="Layer 1"><path class="cls-1" d="M92,100.13C88.3,92.46,79.9,74.29,79.9,68.35a13.75,13.75,0,1,1,27.5,0c0,5.91-8.31,24-12,31.68"/><path class="cls-2" d="M67,73.59C73.86,76.8,93.09,101,93.09,101s-30.87.76-37.75-2.46A13.75,13.75,0,1,1,67,73.59Z"/><path class="cls-2" d="M120.34,73.59C113.45,76.8,94.22,101,94.22,101s30.87.76,37.76-2.46a13.75,13.75,0,0,0-11.64-24.91Z"/><polyline class="cls-1" points="36.77 142.9 36.77 197.6 150.54 197.6 150.54 142.9"/><polyline class="cls-1" points="103.74 128.92 159.33 128.92 159.33 100.96 27.98 100.96 27.98 128.92 83.54 128.92"/><line class="cls-1" x1="83.95" y1="101.65" x2="83.95" y2="197.2"/><line class="cls-1" x1="103.36" y1="101.65" x2="103.36" y2="197.2"/><line class="cls-1" x1="93.66" x2="93.66" y2="11.27"/><line class="cls-1" x1="93.66" y1="24.12" x2="93.66" y2="35.39"/><line class="cls-1" x1="111.35" y1="17.7" x2="100.08" y2="17.7"/><line class="cls-1" x1="87.23" y1="17.7" x2="75.96" y2="17.7"/><line class="cls-1" x1="169.62" y1="47.39" x2="169.62" y2="58.66"/><line class="cls-1" x1="169.62" y1="71.51" x2="169.62" y2="82.78"/><line class="cls-1" x1="187.31" y1="65.08" x2="176.04" y2="65.08"/><line class="cls-1" x1="163.19" y1="65.08" x2="151.92" y2="65.08"/><line class="cls-1" x1="17.7" y1="47.39" x2="17.7" y2="58.66"/><line class="cls-1" x1="17.7" y1="71.51" x2="17.7" y2="82.78"/><line class="cls-1" x1="35.39" y1="65.08" x2="24.12" y2="65.08"/><line class="cls-1" x1="11.27" y1="65.08" y2="65.08"/><line class="cls-2" x1="128.67" y1="47.83" x2="143.99" y2="25.68"/><line class="cls-2" x1="58.65" y1="47.83" x2="43.32" y2="25.68"/></g></g></svg>