<?xml version="1.0" encoding="utf-8"?>
<!-- Generator: Adobe Illustrator 18.0.0, SVG Export Plug-In . SVG Version: 6.00 Build 0)  -->
<!DOCTYPE svg PUBLIC "-//W3C//DTD SVG 1.1//EN" "http://www.w3.org/Graphics/SVG/1.1/DTD/svg11.dtd">
<svg version="1.1" id="Layer_1" xmlns="http://www.w3.org/2000/svg" xmlns:xlink="http://www.w3.org/1999/xlink" x="0px" y="0px"
	 viewBox="0 0 103.2 102.3" enable-background="new 0 0 103.2 102.3" xml:space="preserve">
<g>
	
		<path fill="none" stroke="#C8C8C8" stroke-width="2.5" stroke-linecap="round" stroke-linejoin="round" stroke-miterlimit="22.9256" d="
		M14.7,56.7h6c0,0,4.5,6,10,6h8"/>
	
		<path fill="none" stroke="#C8C8C8" stroke-width="2.5" stroke-linecap="round" stroke-linejoin="round" stroke-miterlimit="22.9256" d="
		M62.8,40.7l-8-10c-2.6-2.8-4.1-4-8-4H33.1l-18.5,0"/>
	
		<rect x="4.7" y="22.7" fill="none" stroke="#C8C8C8" stroke-width="2.5" stroke-linecap="round" stroke-linejoin="round" stroke-miterlimit="22.9256" width="10" height="38.1"/>
	
		<path fill="none" stroke="#C8C8C8" stroke-width="2.5" stroke-linecap="round" stroke-linejoin="round" stroke-miterlimit="22.9256" d="
		M40.7,34.7c0,0,12.3,12.3,16,16c3.7,3.7-5.5,9.4-11,5c-2.2-2.2-5-5-5-5c-0.9,0-5.2,0-6,0c-7.9,0-8-6.8-8-8"/>
	
		<path fill="none" stroke="#C8C8C8" stroke-width="2.5" stroke-linecap="round" stroke-linejoin="round" stroke-miterlimit="22.9256" d="
		M48.8,40.7h44.1c2.2,0,4,1.8,4,4v32.1c0,2.2-1.8,4-4,4H42.7c-2.2,0-4-1.8-4-4V50.7"/>
	
		<line fill="none" stroke="#C8C8C8" stroke-width="2.5" stroke-linecap="round" stroke-linejoin="round" stroke-miterlimit="22.9256" x1="96.8" y1="70.8" x2="38.7" y2="70.8"/>
</g>
</svg>
