<?xml version="1.0" encoding="utf-8"?>
<!-- Generator: Adobe Illustrator 18.0.0, SVG Export Plug-In . SVG Version: 6.00 Build 0)  -->
<!DOCTYPE svg PUBLIC "-//W3C//DTD SVG 1.1//EN" "http://www.w3.org/Graphics/SVG/1.1/DTD/svg11.dtd">
<svg version="1.1" id="Layer_1" xmlns="http://www.w3.org/2000/svg" xmlns:xlink="http://www.w3.org/1999/xlink" x="0px" y="0px"
	 viewBox="0 0 18.2 18.2" enable-background="new 0 0 18.2 18.2" xml:space="preserve">
<path fill="#C8C8C8" d="M8.5,1.3c-4.3,0-7.8,3.5-7.8,7.8c0,3.2,1.9,6,4.7,7.2c0-0.5,0-1.2,0.1-1.8c0.2-0.6,1-4.3,1-4.3
	S6.2,9.8,6.2,9c0-1.2,0.7-2,1.5-2c0.7,0,1.1,0.5,1.1,1.2c0,0.7-0.5,1.8-0.7,2.8c-0.2,0.8,0.4,1.5,1.2,1.5c1.5,0,2.5-1.9,2.5-4.2
	c0-1.7-1.2-3-3.3-3C6.2,5.3,4.7,7.1,4.7,9c0,0.7,0.2,1.2,0.5,1.5c0.1,0.2,0.2,0.2,0.1,0.4c0,0.1-0.1,0.5-0.2,0.6
	c-0.1,0.2-0.2,0.3-0.4,0.2c-1.1-0.4-1.6-1.6-1.6-3C3.2,6.6,5.1,4,8.8,4c3,0,5,2.2,5,4.5c0,3.1-1.7,5.4-4.2,5.4c-0.8,0-1.6-0.5-1.9-1
	c0,0-0.5,1.8-0.6,2.2c-0.2,0.6-0.5,1.2-0.8,1.7C7,16.9,7.7,17,8.5,17c4.3,0,7.8-3.5,7.8-7.8C16.3,4.8,12.8,1.3,8.5,1.3z"/>
</svg>
