<?xml version="1.0" encoding="utf-8"?>
<!-- Generator: Adobe Illustrator 18.0.0, SVG Export Plug-In . SVG Version: 6.00 Build 0)  -->
<!DOCTYPE svg PUBLIC "-//W3C//DTD SVG 1.1//EN" "http://www.w3.org/Graphics/SVG/1.1/DTD/svg11.dtd">
<svg version="1.1" id="Layer_1" xmlns="http://www.w3.org/2000/svg" xmlns:xlink="http://www.w3.org/1999/xlink" x="0px" y="0px"
	 viewBox="0 0 18.2 18.2" enable-background="new 0 0 18.2 18.2" xml:space="preserve">
<path fill="#C8C8C8" d="M16.7,2.6L1,8.7C0.5,8.9,0.5,9.6,1,9.8L5,11l1.5,4.7c0.2,0.5,0.8,0.6,1.1,0.3l2.1-2.1l4.1,3
	c0.5,0.4,1.2,0.1,1.3-0.5l2.7-12.8C17.9,2.9,17.3,2.3,16.7,2.6L16.7,2.6z M14.7,5.4l-7.3,6.5c-0.1,0.1-0.1,0.2-0.1,0.3L7,14.6
	c0,0.1-0.1,0.1-0.1,0l-1.2-3.7c-0.1-0.2,0-0.4,0.2-0.5l8.6-5.4C14.7,5,14.9,5.3,14.7,5.4L14.7,5.4z M14.7,5.4"/>
</svg>
