<svg xmlns="http://www.w3.org/2000/svg" viewBox="0 0 55.3 58.79"><defs><style>.cls-1{fill:#ff00e6;}.cls-2{fill:#0052ff;}</style></defs><title>Asset 6</title><g id="Layer_2" data-name="Layer 2"><g id="Layer_1-2" data-name="Layer 1"><polygon class="cls-1" points="16.38 24.35 31.61 41.2 31.61 25.47 25.58 18.78 16.08 18.78 16.38 24.35"/><polygon points="35.39 41.09 30.36 41.09 30.36 25.75 24.74 20.27 16.08 20.27 16.08 15.23 26.79 15.23 35.39 23.63 35.39 41.09"/><rect class="cls-2" x="11.78" y="2.74" width="5.03" height="38.42"/><rect x="40.16" y="51.69" width="7.09" height="7.09"/><rect x="11.78" y="51.69" width="7.09" height="7.09"/><polygon points="47.18 44.77 11.77 44.77 0 31.61 0 0 35.39 0 35.39 5.03 5.03 5.03 5.03 29.69 14.02 39.73 42.15 39.73 42.15 8.31 55.3 0.15 55.3 6.08 47.18 11.11 47.18 44.77"/></g></g></svg>