<svg xmlns="http://www.w3.org/2000/svg" width="229.714" height="75.103" viewBox="0 0 229.714 75.103"><g transform="translate(-846 -504)"><g transform="translate(767.609 -3211.894)"><rect width="18.214" height="6.469" transform="translate(159.908 3722.362)" fill="#fff"/><rect width="6.469" height="19.365" transform="translate(159.312 3715.894)" fill="#fff"/><rect width="6.469" height="6.469" transform="translate(159.312 3722.362)" fill="#fff"/><rect width="6.469" height="6.469" transform="translate(159.312 3728.831)" fill="#fff"/><rect width="6.469" height="19.365" transform="translate(172.249 3715.894)" fill="#fff"/><rect width="6.469" height="6.469" transform="translate(172.249 3722.362)" fill="#fff"/><rect width="6.469" height="6.469" transform="translate(172.249 3728.831)" fill="#fff"/><rect width="11.787" height="6.469" transform="translate(188.997 3715.894)" fill="#fff"/><rect width="6.469" height="19.365" transform="translate(185.187 3715.894)" fill="#fff"/><rect width="6.469" height="6.469" transform="translate(185.187 3722.362)" fill="#fff"/><rect width="6.469" height="6.469" transform="translate(185.187 3728.831)" fill="#fff"/><rect width="6.469" height="19.365" transform="translate(198.125 3715.894)" fill="#fff"/><rect width="6.469" height="6.469" transform="translate(198.125 3722.362)" fill="#fff"/><rect width="6.469" height="6.469" transform="translate(198.125 3728.831)" fill="#fff"/><rect width="13.017" height="6.469" transform="translate(214.257 3722.362)" fill="#fff"/><rect width="6.469" height="19.367" transform="translate(211.063 3715.894)" fill="#fff"/><rect width="6.469" height="6.469" transform="translate(211.063 3722.362)" fill="#fff"/><rect width="6.469" height="6.469" transform="translate(211.063 3728.831)" fill="#fff"/><rect width="6.469" height="19.407" transform="translate(224.001 3715.894)" fill="#fff"/><rect width="6.469" height="6.469" transform="translate(224.001 3722.362)" fill="#fff"/><rect width="6.469" height="6.469" transform="translate(224.001 3728.831)" fill="#fff"/><rect width="6.469" height="6.469" transform="translate(243.407 3715.894)" fill="#fff"/><rect width="19.4" height="6.469" transform="translate(236.964 3728.831)" fill="#fff"/><rect width="19.377" height="6.469" transform="translate(236.938 3715.894)" fill="#fff"/><rect width="6.469" height="13.132" transform="translate(236.938 3719.031)" fill="#fff"/><rect width="6.469" height="6.469" transform="translate(236.938 3728.831)" fill="#fff"/><rect width="6.469" height="6.469" transform="translate(249.876 3715.894)" fill="#fff"/><rect width="6.469" height="12.91" transform="translate(249.876 3719.142)" fill="#fff"/><rect width="6.469" height="6.469" transform="translate(249.876 3728.831)" fill="#fff"/><rect width="6.469" height="6.469" transform="translate(269.283 3715.894)" fill="#fff"/><rect width="6.469" height="6.469" transform="translate(269.283 3728.831)" fill="#fff"/><rect width="19.396" height="6.469" transform="translate(262.814 3715.894)" fill="#fff"/><rect width="6.469" height="12.674" transform="translate(262.814 3720.119)" fill="#fff"/><rect width="19.373" height="6.469" transform="translate(262.814 3728.831)" fill="#fff"/><rect width="6.469" height="6.469" transform="translate(275.752 3715.894)" fill="#fff"/><rect width="6.469" height="12.812" transform="translate(275.752 3719.509)" fill="#fff"/><rect width="6.469" height="6.469" transform="translate(275.752 3728.831)" fill="#fff"/><rect width="6.469" height="6.469" transform="translate(295.158 3722.362)" fill="#fff"/><rect width="6.469" height="6.469" transform="translate(295.158 3715.894)" fill="#fff"/><rect width="6.469" height="14.557" transform="translate(295.158 3720.743)" fill="#fff"/><rect width="19.415" height="6.469" transform="translate(288.689 3715.894)" fill="#fff"/><rect width="6.469" height="6.469" transform="translate(301.627 3715.894)" fill="#fff"/><text transform="translate(158.268 3761.997)" fill="#afafaf" font-size="19.213" font-family="SegoeUI, Segoe UI" letter-spacing="0.2em"><tspan x="0" y="0">Online </tspan><tspan x="0" y="23.055">Store</tspan></text><path d="M98.391,3745.3,117,3765.948V3746.83l-7.533-8.466H97.921Z" fill="#ff00e6"/><path d="M121.388,3765.807h-6.116v-18.629l-6.822-6.662H97.921V3734.4h13.02l10.447,10.2Z" fill="#fff"/><rect width="6.116" height="46.674" transform="translate(92.704 3719.218)" fill="#0052ff"/><rect width="8.615" height="8.615" transform="translate(127.174 3778.692)" fill="#fff"/><rect width="8.615" height="8.615" transform="translate(92.704 3778.692)" fill="#fff"/><path d="M135.708,3770.276H92.687l-14.3-15.979v-38.4h43v6.115H84.507v29.951l10.915,12.2h34.171v-38.177l15.982-9.9,0,7.2-9.862,6.109Z" fill="#fff"/></g></g></svg>