<svg xmlns="http://www.w3.org/2000/svg" viewBox="0 0 28 28"><defs><style>.cls-1{fill:none;stroke:#fff;stroke-miterlimit:10;}.cls-2{fill:#fff;}</style></defs><title>Asset 5</title><g id="Layer_2" data-name="Layer 2"><g id="Layer_1-2" data-name="Layer 1"><circle class="cls-1" cx="14" cy="14" r="13.5"/><path class="cls-2" d="M20.93,14c0,.17,0,.32,0,.48H8.35a5.86,5.86,0,0,0,6,5.9,6.76,6.76,0,0,0,5.15-2.29l.64.73a7.37,7.37,0,0,1-5.85,2.56,6.91,6.91,0,0,1-7.09-7.27,7,7,0,0,1,7-7.29C18,6.82,20.85,9.83,20.93,14ZM8.35,13.5H19.8c-.2-3.29-2.54-5.67-5.55-5.67A5.91,5.91,0,0,0,8.35,13.5Z"/></g></g></svg>