<svg xmlns="http://www.w3.org/2000/svg" viewBox="0 0 28.21 23.77"><defs><style>.cls-1{fill:#fff;}</style></defs><title>Asset 2</title><g id="Layer_2" data-name="Layer 2"><g id="Layer_1-2" data-name="Layer 1"><path class="cls-1" d="M26.4.09.6,10.15a.94.94,0,0,0,.08,1.78l6.55,1.93,2.45,7.77a1.13,1.13,0,0,0,1.88.45L15,18.62,21.6,23.5a1.39,1.39,0,0,0,2.18-.84L28.19,1.6A1.33,1.33,0,0,0,26.4.09ZM23.17,4.77l-12,10.6a.63.63,0,0,0-.21.41l-.46,4.1a.12.12,0,0,1-.24,0l-1.9-6.12a.63.63,0,0,1,.27-.73L22.8,4.27a.31.31,0,0,1,.37.5Z"/></g></g></svg>