<?xml version="1.0" encoding="utf-8"?>
<!-- Generator: Adobe Illustrator 18.0.0, SVG Export Plug-In . SVG Version: 6.00 Build 0)  -->
<!DOCTYPE svg PUBLIC "-//W3C//DTD SVG 1.1//EN" "http://www.w3.org/Graphics/SVG/1.1/DTD/svg11.dtd">
<svg version="1.1" id="Layer_1" xmlns="http://www.w3.org/2000/svg" xmlns:xlink="http://www.w3.org/1999/xlink" x="0px" y="0px"
	 viewBox="0 0 89.1 88.3" enable-background="new 0 0 89.1 88.3" xml:space="preserve">
<g>
	<g>
		
			<path fill="none" stroke="#C8C8C8" stroke-width="2.5" stroke-linecap="round" stroke-linejoin="round" stroke-miterlimit="22.9256" d="
			M4.9,21.9c0-2.8,2.3-5,5-5l69.9,0c2.8,0,5,2.2,5,5l0,44.7c0,2.8-2.3,5-5,5l-69.9,0c-2.8,0-5-2.2-5-5V21.9z"/>
	</g>
	<g>
		
			<line fill="none" stroke="#C8C8C8" stroke-width="2.5" stroke-linecap="round" stroke-linejoin="round" stroke-miterlimit="22.9256" x1="5.1" y1="40.3" x2="48.9" y2="40.3"/>
	</g>
	<g>
		
			<line fill="none" stroke="#C8C8C8" stroke-width="2.5" stroke-linecap="round" stroke-linejoin="round" stroke-miterlimit="22.9256" x1="61.6" y1="40.3" x2="84.8" y2="40.3"/>
	</g>
	<g>
		
			<line fill="none" stroke="#C8C8C8" stroke-width="2.5" stroke-linecap="round" stroke-linejoin="round" stroke-miterlimit="22.9256" x1="59.6" y1="17.3" x2="59.6" y2="26.6"/>
	</g>
	<g>
		
			<line fill="none" stroke="#C8C8C8" stroke-width="2.5" stroke-linecap="round" stroke-linejoin="round" stroke-miterlimit="22.9256" x1="59.6" y1="39.9" x2="59.6" y2="71.3"/>
	</g>
	<g>
		
			<path fill="none" stroke="#C8C8C8" stroke-width="2.5" stroke-linecap="round" stroke-linejoin="round" stroke-miterlimit="22.9256" d="
			M51.9,24.2c2.4,2.1,7.2,14.1,7.2,14.1s-12.4-3.4-14.8-5.5c-2.4-2.1-2.6-5.7-0.5-8.1C45.9,22.3,49.5,22.1,51.9,24.2z"/>
		
			<path fill="none" stroke="#C8C8C8" stroke-width="2.5" stroke-linecap="round" stroke-linejoin="round" stroke-miterlimit="22.9256" d="
			M67.4,24.2c-2.4,2.1-7.2,14.1-7.2,14.1s12.4-3.4,14.8-5.5c2.4-2.1,2.6-5.7,0.5-8.1C73.4,22.3,69.8,22.1,67.4,24.2z"/>
	</g>
	<g>
		
			<path fill="none" stroke="#C8C8C8" stroke-width="2.5" stroke-linecap="round" stroke-linejoin="round" stroke-miterlimit="22.9256" d="
			M59.4,39.4c0,0-5.6,7.2-12.1,9"/>
		
			<path fill="none" stroke="#C8C8C8" stroke-width="2.5" stroke-linecap="round" stroke-linejoin="round" stroke-miterlimit="22.9256" d="
			M59.9,39.4c0,0,5.6,7.2,12.1,9"/>
	</g>
	<g>
		
			<line fill="none" stroke="#C8C8C8" stroke-width="2.5" stroke-linecap="round" stroke-linejoin="round" stroke-miterlimit="22.9256" x1="14.2" y1="52.8" x2="37.9" y2="52.8"/>
	</g>
	<g>
		
			<line fill="none" stroke="#C8C8C8" stroke-width="2.5" stroke-linecap="round" stroke-linejoin="round" stroke-miterlimit="22.9256" x1="14.2" y1="60.1" x2="29.8" y2="60.1"/>
	</g>
</g>
</svg>
