<svg xmlns="http://www.w3.org/2000/svg" viewBox="0 0 83.25 89.8"><defs><style>.cls-1,.cls-2{fill:none;stroke:#fff;stroke-linejoin:round;stroke-width:3px;}.cls-2{stroke-linecap:round;}</style></defs><title>Asset 1</title><g id="Layer_2" data-name="Layer 2"><g id="Layer_1-2" data-name="Layer 1"><polyline class="cls-1" points="42.09 72.38 42.09 88.3 78.9 88.3 78.9 72.38"/><polyline class="cls-1" points="64.78 65.82 81.75 65.82 81.75 56.77 39.25 56.77 39.25 65.82 56.22 65.82"/><line class="cls-1" x1="56.22" y1="57" x2="56.22" y2="88.17"/><line class="cls-1" x1="64.77" y1="57" x2="64.77" y2="88.17"/><path class="cls-2" d="M60.52,56.63c1.17-7.92,4.54-12.71,9-12.71a6.43,6.43,0,1,1,0,12.85"/><path class="cls-2" d="M60.48,56.63c-1.18-7.92-4.55-12.71-9-12.71a6.43,6.43,0,1,0,0,12.85"/><path class="cls-1" d="M23.06,19V14.72a13.16,13.16,0,1,1,26.31,0V19"/><polyline class="cls-1" points="35.42 88.3 1.5 88.3 4.54 25.29 67.88 25.29 68.51 38.22"/></g></g></svg>