<svg xmlns="http://www.w3.org/2000/svg" viewBox="0 0 62.68 74.31"><defs><style>.cls-1{fill:none;stroke:#fff;stroke-linecap:round;stroke-linejoin:round;stroke-width:3px;}</style></defs><title>Asset 3</title><g id="Layer_2" data-name="Layer 2"><g id="Layer_1-2" data-name="Layer 1"><path class="cls-1" d="M9.22,52.33,11,71.62a1.26,1.26,0,0,0,1.2,1.19H36a1.25,1.25,0,0,0,1.19-1.19L38.9,52.33M42,42.73H6.18A1.16,1.16,0,0,0,5,43.92l.7,6.38a1.26,1.26,0,0,0,1.2,1.2H41.25a1.27,1.27,0,0,0,1.2-1.2l.69-6.38A1.16,1.16,0,0,0,42,42.73Zm-5.81-.11a21.4,21.4,0,0,0,7-15.44h.11c5.58,0,11.75-4.08,13.79-9.11S56.19,9,50.6,9a16.18,16.18,0,0,0-11.19,5.15A18.11,18.11,0,0,0,24.49,5.89c-10.31,0-18.66,9.23-18.66,20.62a21.53,21.53,0,0,0,6.7,15.83M24.27,1.5V42.74M14.44,4.67,16,7M1.88,19.3l2.83.76m1.62-9.39,2.41,1.56M1.5,28.53l2.92-.4m-.69,9.18L6.29,36M35.13,4.74,33.59,7.06M59.84,9.49l-16,10.36m1.8,16.39-2.68-1.15m9.35-30-.67,2.64M43.19,7l1.54,2.32m16.45,10-2.8-.85m-4,5.57,1.54,2.31m-8.14,1.45.61,2.65m-9-16.31c1.1.8,2.91,5.45,3.73,13.05M29.36,42.72c2.93-3.22,4.91-9.3,4.91-16.27,0-10.34-4.35-18.72-9.71-18.72s-9.7,8.38-9.7,18.72c0,6.51,1.72,12.25,4.34,15.6"/></g></g></svg>