<?xml version="1.0" encoding="utf-8"?>
<!-- Generator: Adobe Illustrator 18.0.0, SVG Export Plug-In . SVG Version: 6.00 Build 0)  -->
<!DOCTYPE svg PUBLIC "-//W3C//DTD SVG 1.1//EN" "http://www.w3.org/Graphics/SVG/1.1/DTD/svg11.dtd">
<svg version="1.1" id="Layer_1" xmlns="http://www.w3.org/2000/svg" xmlns:xlink="http://www.w3.org/1999/xlink" x="0px" y="0px"
	 viewBox="0 0 199.4 75.3" enable-background="new 0 0 199.4 75.3" xml:space="preserve">
<g>
	<g>
		<rect x="74.7" y="10.7" width="15" height="5.3"/>
		<rect x="74.2" y="5.4" width="5.3" height="15.9"/>
		<rect x="74.2" y="10.7" width="5.3" height="5.3"/>
		<rect x="74.2" y="16" width="5.3" height="5.3"/>
		<rect x="84.8" y="5.4" width="5.3" height="15.9"/>
		<rect x="84.8" y="10.7" width="5.3" height="5.3"/>
		<rect x="84.8" y="16" width="5.3" height="5.3"/>
		<rect x="98.6" y="5.4" width="9.7" height="5.3"/>
		<rect x="95.5" y="5.4" width="5.3" height="15.9"/>
		<rect x="95.5" y="10.7" width="5.3" height="5.3"/>
		<rect x="95.5" y="16" width="5.3" height="5.3"/>
		<rect x="106.1" y="5.4" width="5.3" height="15.9"/>
		<rect x="106.1" y="10.7" width="5.3" height="5.3"/>
		<rect x="106.1" y="16" width="5.3" height="5.3"/>
		<rect x="119.4" y="10.7" width="10.7" height="5.3"/>
		<rect x="116.8" y="5.4" width="5.3" height="15.9"/>
		<rect x="116.8" y="10.7" width="5.3" height="5.3"/>
		<rect x="116.8" y="16" width="5.3" height="5.3"/>
		<rect x="127.4" y="5.4" width="5.3" height="16"/>
		<rect x="127.4" y="10.7" width="5.3" height="5.3"/>
		<rect x="127.4" y="16" width="5.3" height="5.3"/>
		<rect x="143.4" y="5.4" width="5.3" height="5.3"/>
		<rect x="138.1" y="16" width="16" height="5.3"/>
		<rect x="138.1" y="5.4" width="16" height="5.3"/>
		<rect x="138.1" y="8" width="5.3" height="10.8"/>
		<rect x="138.1" y="16" width="5.3" height="5.3"/>
		<rect x="148.7" y="5.4" width="5.3" height="5.3"/>
		<rect x="148.7" y="8.1" width="5.3" height="10.6"/>
		<rect x="148.7" y="16" width="5.3" height="5.3"/>
		<rect x="164.7" y="5.4" width="5.3" height="5.3"/>
		<rect x="164.7" y="16" width="5.3" height="5.3"/>
		<rect x="159.4" y="5.4" width="16" height="5.3"/>
		<rect x="159.4" y="8.9" width="5.3" height="10.4"/>
		<rect x="159.4" y="16" width="15.9" height="5.3"/>
		<rect x="170" y="5.4" width="5.3" height="5.3"/>
		<rect x="170" y="8.4" width="5.3" height="10.5"/>
		<rect x="170" y="16" width="5.3" height="5.3"/>
		<rect x="186" y="10.7" width="5.3" height="5.3"/>
		<rect x="186" y="5.4" width="5.3" height="5.3"/>
		<rect x="186" y="9.4" width="5.3" height="12"/>
		<rect x="180.7" y="5.4" width="16" height="5.3"/>
		<rect x="191.3" y="5.4" width="5.3" height="5.3"/>
	</g>
	<g>
		<g>
			<path fill="#AFAFAF" d="M79.6,43.5c-3,0-5.6-2-5.6-5.7s2.7-5.7,5.7-5.7c2.9,0,5.6,2,5.6,5.7C85.3,41.2,83,43.5,79.6,43.5z
				 M79.6,41.4c1.7,0,3.3-1.1,3.3-3.6c0-2.4-1.5-3.5-3.3-3.5c-1.7,0-3.3,1.2-3.3,3.5C76.4,40.2,77.9,41.4,79.6,41.4z"/>
			<path fill="#AFAFAF" d="M92.8,37v6.3h-2.4V32.2h0.7l6.2,6.3v-6.3h2.4v11.1H99L92.8,37z"/>
			<path fill="#AFAFAF" d="M107.8,41.2h4.6v2.1h-7V32.3h2.4V41.2z"/>
			<path fill="#AFAFAF" d="M122.1,41.5v1.9h-5.5v-1.9h1.6v-7.4h-1.4v-1.8h5.2v1.8h-1.4v7.4H122.1z"/>
			<path fill="#AFAFAF" d="M129.6,37v6.3h-2.4V32.2h0.7l6.2,6.3v-6.3h2.4v11.1h-0.7L129.6,37z"/>
			<path fill="#AFAFAF" d="M149.1,34.4h-4.4v2.2h4.1v2.1h-4.1v2.5h4.5v2.1h-6.9V32.3h6.8V34.4z"/>
			<path fill="#AFAFAF" d="M76.2,60.5c0,1,1.2,1.4,2.2,1.4c1,0,2.1-0.2,2.1-1.4c0-1.3-1.4-1.4-2.4-1.5c-2-0.2-4-0.9-4-3.1
				c0-2.5,2-3.5,4.2-3.5c2.1,0,4.2,0.9,4.2,3.4h-2.2c-0.1-0.9-1.1-1.3-2-1.3c-0.9,0-1.9,0.5-1.9,1.4c0,1,1,1.2,2.1,1.3
				c2.3,0.2,4.3,0.7,4.3,3.3c0,2.6-2.3,3.4-4.4,3.5c-2.2,0-4.5-1.1-4.5-3.5H76.2z"/>
			<path fill="#AFAFAF" d="M87,54.7v-2.1h8.2v2.1h-2.9v9H90v-9H87z"/>
			<path fill="#AFAFAF" d="M105,63.9c-3,0-5.6-2-5.6-5.7c0-3.7,2.7-5.7,5.7-5.7c2.9,0,5.6,2,5.6,5.7C110.6,61.6,108.3,63.9,105,63.9
				z M105,61.8c1.7,0,3.3-1.1,3.3-3.6c0-2.4-1.5-3.5-3.3-3.5c-1.7,0-3.3,1.2-3.3,3.5C101.7,60.6,103.2,61.8,105,61.8z"/>
			<path fill="#AFAFAF" d="M124.9,63.4v0.3h-2.5l-2.3-3.7h-2v3.7h-2.4V52.6c1.6,0,3.1,0,4.7,0c2.5,0,3.9,1.8,3.9,3.8
				c0,1.4-0.7,2.6-2,3.3L124.9,63.4z M120.5,58.1c1,0,1.6-0.8,1.6-1.7c0-0.9-0.6-1.7-1.6-1.7h-2.4v3.4H120.5z"/>
			<path fill="#AFAFAF" d="M136.6,54.7h-4.4V57h4.1V59h-4.1v2.5h4.5v2.1h-6.9V52.7h6.8V54.7z"/>
		</g>
	</g>
	<g>
		<polygon fill="#FF00E6" points="24.1,29.9 39.5,46.6 39.5,30.9 33.2,24.5 23.6,24.5 		"/>
		<g>
			<polygon points="43,46.5 37.9,46.5 37.9,31.2 32.3,25.7 23.6,25.7 23.6,20.6 34.4,20.6 43,29 			"/>
		</g>
		<g>
			<rect x="19.4" y="8.1" fill="#0052FF" width="5" height="38.4"/>
		</g>
		<rect x="47.7" y="57.1" width="7.1" height="7.1"/>
		<rect x="19.4" y="57.1" width="7.1" height="7.1"/>
		<g>
			<polygon points="54.8,50.2 19.3,50.2 7.6,37 7.6,5.4 43,5.4 43,10.4 12.6,10.4 12.6,35.1 21.6,45.1 49.7,45.1 49.7,13.7 
				62.9,5.6 62.9,11.5 54.8,16.5 			"/>
		</g>
	</g>
</g>
</svg>
