<svg xmlns="http://www.w3.org/2000/svg" viewBox="0 0 87.41 96.95"><defs><style>.cls-1,.cls-2{fill:none;stroke:#fff;stroke-linejoin:round;}.cls-1{stroke-width:4.11px;}.cls-2{stroke-width:4px;}.cls-3{fill:#fff;}</style></defs><title>Asset 7</title><g id="Layer_2" data-name="Layer 2"><g id="Layer_1-2" data-name="Layer 1"><path class="cls-1" d="M25,20.69V16.13a14,14,0,1,1,28,0v4.56"/><polyline class="cls-1" points="38.17 94.47 2.06 94.47 5.3 27.38 72.73 27.38 73.4 41.15"/><line class="cls-2" x1="2.76" y1="84.19" x2="32.76" y2="84.19"/><path class="cls-3" d="M78.38,52.87l4.92,6.52V71.71L60.76,91.48,38.22,71.71V59.39l4.92-6.52h6.19l8.3,9.76a4.1,4.1,0,0,0,6.26,0l8.3-9.76h6.19m2.05-4.12H70.29L60.76,60,51.23,48.75H41.09l-7,9.26V73.57L60.76,97,87.41,73.57V58l-7-9.26Z"/></g></g></svg>