<svg xmlns="http://www.w3.org/2000/svg" viewBox="0 0 70.98 71.42"><defs><style>.cls-1{fill:none;stroke:#fff;stroke-linecap:round;stroke-linejoin:round;stroke-width:3px;}</style></defs><title>Asset 5</title><g id="Layer_2" data-name="Layer 2"><g id="Layer_1-2" data-name="Layer 1"><path class="cls-1" d="M13.13,52.53C7.85,47.82,1.5,46.4,1.5,42.54c0-5.68,6.08-5.54,9.31-3.25m3.12-5.63H38.28c1.63,0,3.34,1.31,3.1,3-.07.52-.17,1.26-.28,2.15-.45,3.53-1,7.07-1.72,10.54-1.08,5-1.23,9.53-7.31,9.65-3.83.07-8.1.07-11.93,0-4.28-.08-5.62-2.36-6.42-5.45L11.22,39.6c-.17-1.26-.3-2.29-.39-3-.24-1.68,1.47-3,3.1-3Zm12.3-6.56V20.36H10.78a3.28,3.28,0,0,1-3.27-3.27V4.77A3.28,3.28,0,0,1,10.78,1.5H66.21a3.28,3.28,0,0,1,3.27,3.27V66.65a3.28,3.28,0,0,1-3.27,3.27H10.78a3.28,3.28,0,0,1-3.27-3.27V62.71a3.28,3.28,0,0,1,3.27-3.27H46.54V20.36H26.91"/></g></g></svg>