<svg xmlns="http://www.w3.org/2000/svg" viewBox="0 0 37.95 33.97"><defs><style>.cls-1{fill:none;stroke:#000;stroke-miterlimit:10;stroke-width:1.3px;}</style></defs><title>Asset 2</title><g id="Layer_2" data-name="Layer 2"><g id="Layer_1-2" data-name="Layer 1"><path class="cls-1" d="M30.13,12.6V2.24A1.59,1.59,0,0,0,28.54.65H2.24A1.59,1.59,0,0,0,.65,2.24V18.18a1.59,1.59,0,0,0,1.59,1.59h4"/><line class="cls-1" x1="30.13" y1="4.63" x2="0.65" y2="4.63"/><line class="cls-1" x1="30.13" y1="9.42" x2="0.65" y2="9.42"/><rect class="cls-1" x="7.82" y="14.2" width="29.48" height="19.12" rx="1.59"/><line class="cls-1" x1="11.01" y1="27.74" x2="14.99" y2="27.74"/><line class="cls-1" x1="17.38" y1="27.74" x2="21.37" y2="27.74"/><line class="cls-1" x1="23.76" y1="27.74" x2="27.74" y2="27.74"/><line class="cls-1" x1="30.13" y1="27.74" x2="34.12" y2="27.74"/><path class="cls-1" d="M33.32,21a2.79,2.79,0,0,1-2.79,2.79h-.8A2.78,2.78,0,0,1,27,21h0a2.78,2.78,0,0,1,2.78-2.79h.8A2.79,2.79,0,0,1,33.32,21Z"/></g></g></svg>