<svg xmlns="http://www.w3.org/2000/svg" viewBox="0 0 72.21 71.37"><defs><style>.cls-1{fill:none;stroke:#fff;stroke-linecap:round;stroke-linejoin:round;stroke-width:3px;}</style></defs><title>Asset 8</title><g id="Layer_2" data-name="Layer 2"><g id="Layer_1-2" data-name="Layer 1"><path class="cls-1" d="M70.63,23l-.28,42.67a4.17,4.17,0,0,1-4.06,4.23H42.9a4.16,4.16,0,0,1-4.07-4.23V20.82a4.17,4.17,0,0,1,4.07-4.24H66.29c1.75,0,4.53.61,4.42,4.15L70.63,23ZM52,64.31h5.12M39.5,58.65H69.44M40,23.39H70M39.09,58.16H6a4.52,4.52,0,0,1-4.5-4.5V6A4.52,4.52,0,0,1,6,1.5H46.19c2,0,5,.65,4.9,4.41L51,8.29,51,16.05M23.26,52.24h5.67M2.24,46.86H38.82M2.81,8.11H51"/></g></g></svg>