<svg xmlns="http://www.w3.org/2000/svg" viewBox="0 0 303.55 303.55"><defs><style>.cls-1{fill:#08f0ab;}.cls-2{fill:#fff;}.cls-3,.cls-4{fill:none;stroke:#fff;stroke-linejoin:round;stroke-width:4px;}.cls-4{stroke-linecap:round;}</style></defs><g id="Layer_2" data-name="Layer 2"><g id="Layer_1-2" data-name="Layer 1"><path class="cls-1" d="M0,0H278.55a25,25,0,0,1,25,25V303.55a0,0,0,0,1,0,0H25a25,25,0,0,1-25-25V0A0,0,0,0,1,0,0Z"/><path class="cls-2" d="M132.79,279a3,3,0,0,1,.35.67,1.88,1.88,0,0,1,.13.66,2.74,2.74,0,0,1-.46,1.55,4.25,4.25,0,0,1-1.27,1.18,7,7,0,0,1-1.87.75,9.07,9.07,0,0,1-2.25.27h-2.36a5.68,5.68,0,0,1-1.44-.18,5.38,5.38,0,0,1-1.3-.5,5.74,5.74,0,0,1-1.11-.79,5.27,5.27,0,0,1-.89-1.05,6.39,6.39,0,0,1-.91-3.45,12.1,12.1,0,0,1,.06-1.21,9.71,9.71,0,0,1,.24-1.22,10,10,0,0,1,.42-1.32,16,16,0,0,1,.65-1.48l2,1c-.22.45-.39.87-.54,1.24s-.25.73-.34,1.06a7.52,7.52,0,0,0-.19,1,7.25,7.25,0,0,0,0,.93,4.19,4.19,0,0,0,.58,2.27,2.92,2.92,0,0,0,1.16,1.07,3.51,3.51,0,0,0,1.62.37h2.36a6,6,0,0,0,1.3-.13,4.5,4.5,0,0,0,1.09-.36,2.62,2.62,0,0,0,.76-.53,1.09,1.09,0,0,0,.34-.65,2.45,2.45,0,0,0-.67-.48,5.62,5.62,0,0,0-.93-.33,8.81,8.81,0,0,0-1.13-.2c-.4-.05-.82-.08-1.25-.1l.06-2.28h8.35V279Z"/><path class="cls-2" d="M134.75,276.67h1.18a3.44,3.44,0,0,0,.88-.09,1.2,1.2,0,0,0,.53-.27.92.92,0,0,0,.25-.44,2.61,2.61,0,0,0,.06-.59v-2.67h2.29v2.63a1.42,1.42,0,0,0,.36,1.08,1.6,1.6,0,0,0,1.14.35h0a1.64,1.64,0,0,0,.34-.05,1.17,1.17,0,0,0,.39-.19,1.29,1.29,0,0,0,.32-.42,1.65,1.65,0,0,0,.13-.73v-2.67h2.28v2.63a1.45,1.45,0,0,0,.36,1.09,1.65,1.65,0,0,0,1.17.34,1.29,1.29,0,0,0,.43-.07,1,1,0,0,0,.4-.23,1.19,1.19,0,0,0,.28-.42,1.84,1.84,0,0,0,.13-.63h0v-2.72H150v2.72a1.25,1.25,0,0,0,.43,1,2,2,0,0,0,1.27.32h.9V279h-.9a5.68,5.68,0,0,1-1.64-.21,2.93,2.93,0,0,1-1.21-.67,3.14,3.14,0,0,1-1.1.66,3.79,3.79,0,0,1-1.28.22,5,5,0,0,1-1.52-.21,3.13,3.13,0,0,1-1.15-.68,3.57,3.57,0,0,1-1.07.65,3.21,3.21,0,0,1-1.2.24,4.43,4.43,0,0,1-1.52-.22,3.5,3.5,0,0,1-1.14-.63,4.52,4.52,0,0,1-2.89.85h-1.18Zm8.85-7.87L142,270.38l-1.56-1.56,1.56-1.58Zm1.92-2.63-1.47,1.47-1.46-1.45,1.47-1.47Zm2,2.59L146,270.33l-1.61-1.55L146,267.2Z"/><path class="cls-2" d="M152.13,279v-2.29h5.78a2.85,2.85,0,0,0,.51-.08,1.29,1.29,0,0,0,.43-.17.36.36,0,0,0,.18-.32,2.1,2.1,0,0,0-.3-.95,9.54,9.54,0,0,0-.77-1.2,16.46,16.46,0,0,0-1.05-1.28c-.39-.44-.78-.84-1.16-1.23s-.75-.72-1.08-1a10,10,0,0,0-.81-.66l.18-2.08,8-3.66.84,2-6.73,3,.78.77c.3.29.59.6.9.92s.61.66.92,1,.59.7.85,1a11.18,11.18,0,0,1,.71,1,5.68,5.68,0,0,1,.49.94,3.1,3.1,0,0,1,.22.74,3.21,3.21,0,0,1,.07.65,3.08,3.08,0,0,1-.07.65c-.05.18-.1.34-.15.47a4.19,4.19,0,0,1-.34.56,2.6,2.6,0,0,1-.64.58,4.3,4.3,0,0,1-1,.45,5.53,5.53,0,0,1-1.51.18Z"/><path class="cls-2" d="M179,279h-.26a7,7,0,0,1-1.38-.13,5.15,5.15,0,0,1-1.22-.41,3.88,3.88,0,0,1-1-.69,3.42,3.42,0,0,1-.71-1,2.68,2.68,0,0,1-.57.6,4,4,0,0,1-.75.44,4.71,4.71,0,0,1-.83.26,4.12,4.12,0,0,1-.83.09,3.81,3.81,0,0,1-1.39-.26,3.57,3.57,0,0,1-1.16-.73,3.39,3.39,0,0,1-.78-1.16,3.73,3.73,0,0,1-.29-1.53,3.86,3.86,0,0,1,.37-1.75,4.47,4.47,0,0,1,1-1.32,6,6,0,0,1,1.44-1,15.56,15.56,0,0,1,1.68-.69l-.22-.88,2.25-.53,1.67,6.51a2.17,2.17,0,0,0,.48,1,2.55,2.55,0,0,0,.72.57,2.68,2.68,0,0,0,.8.26,3.94,3.94,0,0,0,.71.07H179Zm-5.66-4.57a2.24,2.24,0,0,0,0-.52,4.19,4.19,0,0,0-.08-.56c0-.19-.1-.4-.17-.63s-.15-.48-.23-.76a7.14,7.14,0,0,0-2.23,1.06,1.79,1.79,0,0,0-.75,1.47,1.19,1.19,0,0,0,.15.6,1.28,1.28,0,0,0,.39.44,1.55,1.55,0,0,0,.55.26,1.5,1.5,0,0,0,.6,0,2.75,2.75,0,0,0,1.15-.41A1.49,1.49,0,0,0,173.36,274.39Z"/><path class="cls-2" d="M186.78,279H178.5v-2.29h2.61a3.38,3.38,0,0,1-.36-.63,3.17,3.17,0,0,1-.19-.6,2.52,2.52,0,0,1-.08-.53c0-.17,0-.32,0-.45a3.62,3.62,0,0,1,.32-1.51,3.88,3.88,0,0,1,.85-1.22,4.08,4.08,0,0,1,1.25-.81,4,4,0,0,1,1.51-.29,4.46,4.46,0,0,1,.85.08,3.88,3.88,0,0,1,.78.24,6,6,0,0,1,.86.41l1,.59-1.15,2-.53-.33c-.2-.11-.4-.22-.61-.32A3.81,3.81,0,0,0,185,273a1.83,1.83,0,0,0-.59-.1,2,2,0,0,0-.62.1,2.19,2.19,0,0,0-.57.29,1.45,1.45,0,0,0-.43.49,1.34,1.34,0,0,0-.13.92,1.82,1.82,0,0,0,.11.33,2.31,2.31,0,0,0,.24.37,2.89,2.89,0,0,0,.39.4h0a3.54,3.54,0,0,0,1.49.65,10.73,10.73,0,0,0,2.18.2h1V279Z"/><path class="cls-2" d="M196.05,279h-.35a5.48,5.48,0,0,1-.72,0,1.56,1.56,0,0,1-.65-.26,6.86,6.86,0,0,1-.55,2.15,5.26,5.26,0,0,1-1.15,1.65,5,5,0,0,1-1.73,1.06,6.36,6.36,0,0,1-2.25.38H187.5v-2.29h1.15a5.74,5.74,0,0,0,1.53-.18,2.45,2.45,0,0,0,1-.59,2.37,2.37,0,0,0,.62-1.06,5.12,5.12,0,0,0,.2-1.57v-5.6h2.29v2.75a1.16,1.16,0,0,0,.18.68,1.45,1.45,0,0,0,.42.4,1.55,1.55,0,0,0,.45.19,1.7,1.7,0,0,0,.31,0h.35Z"/><path class="cls-2" d="M195.38,279v-2.29h3.75a7.85,7.85,0,0,0,1.3-.09,3.58,3.58,0,0,0,.85-.22,1.48,1.48,0,0,0,.49-.31,1.18,1.18,0,0,0,.24-.34,8.17,8.17,0,0,1-2.2,0,4.23,4.23,0,0,1-1.65-.55,2.87,2.87,0,0,1-1-1.12,3.5,3.5,0,0,1-.37-1.68,3.72,3.72,0,0,1,.29-1.45,3.59,3.59,0,0,1,2-2,3.46,3.46,0,0,1,1.52-.25,3.71,3.71,0,0,1,1.3.26,3.28,3.28,0,0,1,1,.6,3.49,3.49,0,0,1,.69.88,5.75,5.75,0,0,1,.46,1.08,7.85,7.85,0,0,1,.24,1.21,10.69,10.69,0,0,1,.09,1.27l0,.68a5.29,5.29,0,0,1-.51,2.12,3.67,3.67,0,0,1-1.15,1.31,4.25,4.25,0,0,1-1.6.67,8.94,8.94,0,0,1-1.9.19Zm3-11.75-1.54-1.57,1.52-1.58,1.58,1.58Zm2.2,3.77a2,2,0,0,0-.64,0,1.47,1.47,0,0,0-.55.26,1.42,1.42,0,0,0-.38.46,1.39,1.39,0,0,0-.14.63,1.2,1.2,0,0,0,.84,1.15,4.57,4.57,0,0,0,2.43.1c0-.27,0-.55-.07-.84a3.25,3.25,0,0,0-.2-.83,1.88,1.88,0,0,0-.46-.65A1.34,1.34,0,0,0,200.54,271Zm1.66-3.78-1.55-1.56,1.53-1.59,1.58,1.59Z"/><path class="cls-2" d="M215.5,278.4a7.06,7.06,0,0,1-.47,2.29,5.32,5.32,0,0,1-1.14,1.73,4.94,4.94,0,0,1-1.76,1.09,6.54,6.54,0,0,1-2.33.39h-1.14v-2.29h1.14a5.74,5.74,0,0,0,1.53-.18,2.55,2.55,0,0,0,1.06-.59,2.45,2.45,0,0,0,.61-1.06,5.1,5.1,0,0,0,.21-1.57v-5.6h2.29Z"/><path class="cls-2" d="M220.35,279a5.32,5.32,0,0,1-.69,0,5.46,5.46,0,0,1-.69-.1,7.27,7.27,0,0,1-.72-.16l-.77-.21-1.09-.34.66-2.2c.53.18,1.09.34,1.66.48a9.18,9.18,0,0,0,1.62.28,4.56,4.56,0,0,0,1.31-.06,1,1,0,0,0,.75-.53.42.42,0,0,0,0-.32,1.36,1.36,0,0,0-.2-.4l-3.43-5,1.93-1.25.63,1,0,.05.13.2.27.41c.12.19.28.42.48.72l.72,1.09,1,1.55a3.42,3.42,0,0,1,.58,1.46,2.58,2.58,0,0,1-.19,1.43,2.66,2.66,0,0,1-.42.68,2.92,2.92,0,0,1-.61.55,4,4,0,0,1-1.57.61A7.5,7.5,0,0,1,220.35,279Z"/><path class="cls-2" d="M248.35,272.61v2.69a1.47,1.47,0,0,0,.09.55,1.27,1.27,0,0,0,.25.37.88.88,0,0,0,.34.24,1.78,1.78,0,0,0,.36.14l.3.06h.77V279h-.57a5.33,5.33,0,0,1-.67,0,4.34,4.34,0,0,1-.7-.14,3.38,3.38,0,0,1-.69-.26,2.78,2.78,0,0,1-.59-.4,4.15,4.15,0,0,1-2.72.84H233.91a3.44,3.44,0,0,1-1.29-.23,3.37,3.37,0,0,1-1.08-.67,5.5,5.5,0,0,1-.38-.42,2.79,2.79,0,0,1-.35-.59,3.86,3.86,0,0,1-.26-.77,4,4,0,0,1-.1-1,6.08,6.08,0,0,1,.09-1c.06-.36.13-.7.21-1s.15-.6.21-.83.11-.38.13-.43l1.1.34,1.08.34c-.05.17-.11.37-.17.6l-.18.71c0,.25-.1.48-.13.71a3.46,3.46,0,0,0-.06.59,1.78,1.78,0,0,0,.12.71,1.13,1.13,0,0,0,.31.41.89.89,0,0,0,.39.19,1.89,1.89,0,0,0,.38.05h10.53a3.13,3.13,0,0,0,.86-.1,1.06,1.06,0,0,0,.53-.28,1,1,0,0,0,.22-.69v-3Zm-11-.77-1.54-1.56,1.52-1.58,1.58,1.58Zm3.86,0-1.55-1.56,1.53-1.58,1.58,1.58Z"/><path class="cls-2" d="M250.13,279v-2.29h5.79a2.74,2.74,0,0,0,.5-.08,1.29,1.29,0,0,0,.43-.17.36.36,0,0,0,.18-.32,2.1,2.1,0,0,0-.3-.95,9.54,9.54,0,0,0-.77-1.2,16.46,16.46,0,0,0-1.05-1.28c-.39-.44-.78-.84-1.16-1.23s-.74-.72-1.08-1a10,10,0,0,0-.81-.66l.18-2.08,8-3.66.83,2-6.73,3c.23.23.49.49.79.77l.89.92c.31.32.61.66.92,1s.59.7.85,1,.51.69.72,1a5.58,5.58,0,0,1,.48.94,3.1,3.1,0,0,1,.22.74,3.21,3.21,0,0,1,.07.65,2.54,2.54,0,0,1-.07.65c0,.18-.1.34-.15.47a4.19,4.19,0,0,1-.34.56,2.6,2.6,0,0,1-.64.58,4.13,4.13,0,0,1-1,.45,5.53,5.53,0,0,1-1.51.18Z"/><path class="cls-2" d="M266.38,279H266a5.33,5.33,0,0,1-.71,0,1.66,1.66,0,0,1-.66-.26,6.6,6.6,0,0,1-.54,2.15,5.26,5.26,0,0,1-1.15,1.65,5.07,5.07,0,0,1-1.73,1.06,6.4,6.4,0,0,1-2.25.38h-1.15v-2.29H259a5.61,5.61,0,0,0,1.52-.18,2.31,2.31,0,0,0,1.68-1.65,5.45,5.45,0,0,0,.2-1.57v-5.6h2.29v2.75a1.16,1.16,0,0,0,.18.68,1.55,1.55,0,0,0,.41.4,1.6,1.6,0,0,0,.46.19,1.73,1.73,0,0,0,.3,0h.35Z"/><path class="cls-2" d="M272.9,278.94a3.86,3.86,0,0,1-2.66-.87,3.22,3.22,0,0,1-1.13.68,3.89,3.89,0,0,1-1.27.21h-2.07v-2.29h2.07l.32,0a1.27,1.27,0,0,0,.42-.18,1.44,1.44,0,0,0,.36-.43,1.61,1.61,0,0,0,.16-.77v-2.65h2.29v2.61a1.47,1.47,0,0,0,.35,1.1,1.61,1.61,0,0,0,1.16.34,1.52,1.52,0,0,0,.32,0,1,1,0,0,0,.41-.19A1.33,1.33,0,0,0,274,276a1.75,1.75,0,0,0,.15-.78v-2.61h2.28v2.61a1.51,1.51,0,0,0,.37,1.11,1.66,1.66,0,0,0,1.18.35,1.76,1.76,0,0,0,.33-.05,1.11,1.11,0,0,0,.75-.64,1.67,1.67,0,0,0,.15-.77,4.73,4.73,0,0,0,0-.49c0-.19-.05-.39-.08-.6l-.12-.65c0-.21-.08-.42-.13-.62s-.08-.37-.12-.53-.07-.28-.1-.38l2.16-.7a2.79,2.79,0,0,1,.08.29c0,.15.08.34.13.57s.11.48.16.75.11.56.15.84.09.55.12.81a6.45,6.45,0,0,1,0,.71,4.17,4.17,0,0,1-.3,1.64,3.59,3.59,0,0,1-.81,1.17,3.18,3.18,0,0,1-1.12.69A3.52,3.52,0,0,1,278,279a3.86,3.86,0,0,1-2.7-.9,3.18,3.18,0,0,1-1.12.68A4.15,4.15,0,0,1,272.9,278.94Zm2.17-10.4-1.56,1.58L272,268.56l1.56-1.58Zm1.92-2.63-1.47,1.47-1.46-1.45,1.47-1.47Zm2,2.59-1.55,1.57-1.61-1.55,1.59-1.58Z"/><path class="cls-2" d="M48.18,272.27l.13,0c.57.53,2.29,1.58,2.6,2.62a3.22,3.22,0,0,1,.14,1,3.1,3.1,0,0,1-.5,1.7,2.49,2.49,0,0,1-1.89.85,2,2,0,0,1-1.1-.28,2.27,2.27,0,0,1-1-2,3.77,3.77,0,0,1,.56-1.76,5.91,5.91,0,0,1,.91-1.16A5.75,5.75,0,0,1,48.18,272.27Zm-1,3.7a1.45,1.45,0,0,0,1.53,1.24,2.41,2.41,0,0,0,1.43-.5.79.79,0,0,0,.41-.61,1.93,1.93,0,0,0-.5-1,5.58,5.58,0,0,0-1.48-1.19A3,3,0,0,0,47.18,276Z"/><path class="cls-2" d="M55.07,278.31H55a2,2,0,0,1-1.57-.52c-.56-.57-.57-1.22-.57-2.57,0-1.74-.1-3.56-.24-5.51a8.46,8.46,0,0,1,.86-.85l.07,0c.15,2,.15,4.38.15,6.64v.52a1,1,0,0,0,.68,1,1.94,1.94,0,0,0,.59.1h.13Z"/><path class="cls-2" d="M55.27,277.14c.68,0,1.21-.47,1.54-1.62a2.72,2.72,0,0,1,.68-1.11,1.74,1.74,0,0,1,1.16-.53c1.12,0,1.78,1.54,1.92,3.14-.19.84-.53,1.18-1,1.18a4.66,4.66,0,0,1-2.72-1.08h-.07a1.5,1.5,0,0,1-1.58,1.19h-.16a.59.59,0,0,1-.64-.61.57.57,0,0,1,.64-.56Zm3.21-.37a2.87,2.87,0,0,0,1.09.27c.14,0,.26,0,.3-.1-.27-1.39-.88-2-1.45-2a1.31,1.31,0,0,0-1.23.9A2.7,2.7,0,0,0,58.48,276.77Z"/><path class="cls-2" d="M68.71,275.16c.52,1.26,1,2,2.06,2h.17v1.17h-.19a1.28,1.28,0,0,1-.93-.29h0c0,.11,0,.22,0,.32a3,3,0,0,1-.37,1.42c-.72,1.28-1.51,1.83-2.19,1.83a5.28,5.28,0,0,1-2.29-.72l.14-.31a2.41,2.41,0,0,0,1,.2,3.62,3.62,0,0,0,3-2.75,2.25,2.25,0,0,0-.25-.41,8.44,8.44,0,0,1-.8-1.37c.19-.42.35-.76.51-1.06Z"/><path class="cls-2" d="M72,277.14c.15-.64.3-1.28.49-1.95a8.13,8.13,0,0,1,1-2.36l.08,0a4.84,4.84,0,0,0,.34.55,5.1,5.1,0,0,1,1.2,2.58,3.89,3.89,0,0,1-.17,1.21h1.79v1.17H76.5a2.81,2.81,0,0,1-.77-.09l0,0a2.44,2.44,0,0,1,.38,1.24,2.2,2.2,0,0,1-.29,1.1,1.73,1.73,0,0,1-1.38.86,2.51,2.51,0,0,1-1.3-.36,2.86,2.86,0,0,1-1.25-2.36v-.45a5.58,5.58,0,0,1-.72,0h-.18a.59.59,0,0,1-.64-.61.57.57,0,0,1,.64-.56Zm1,2.42a2.46,2.46,0,0,0,1.75.92c.35,0,.53-.19.53-.45a1.84,1.84,0,0,0-.35-1.1,1.71,1.71,0,0,0-1.47-.72,6.09,6.09,0,0,0-1,.09A2.38,2.38,0,0,0,73,279.56Zm1-2.55c.44-.12.61-.29.61-.46a5,5,0,0,0-1.14-2.22h0c-.32.91-.61,1.85-.87,2.81A5.75,5.75,0,0,0,73.91,277Z"/><path class="cls-2" d="M76.94,277.14c.68,0,1.21-.47,1.54-1.62a2.72,2.72,0,0,1,.68-1.11,1.74,1.74,0,0,1,1.16-.53c1.12,0,1.78,1.54,1.92,3.14-.19.84-.53,1.18-1,1.18a4.68,4.68,0,0,1-2.72-1.08h-.07a1.5,1.5,0,0,1-1.58,1.19h-.16a.59.59,0,0,1-.64-.61.57.57,0,0,1,.64-.56Zm3.21-.37a2.87,2.87,0,0,0,1.09.27c.14,0,.26,0,.3-.1-.27-1.39-.87-2-1.45-2a1.31,1.31,0,0,0-1.23.9A2.7,2.7,0,0,0,80.15,276.77Z"/><path class="cls-2" d="M88.1,278.58a9,9,0,0,1-1.25-.12l0-.15a15.94,15.94,0,0,0,2.87-1.1,2.15,2.15,0,0,1-.44-1.59,2.82,2.82,0,0,1,.58-1.67,2.91,2.91,0,0,1,.9-.85,5.11,5.11,0,0,1,.17-.92H91a35.15,35.15,0,0,0,3.24,2.46,2.28,2.28,0,0,1,1.12,2,1.64,1.64,0,0,1-1.82,1.71,8.62,8.62,0,0,1-2.69-.54A6.39,6.39,0,0,1,88.1,278.58Zm4.07-3c0-.77-.56-1.49-1-1.49a2,2,0,0,0-1.52,1.45c0,.3.46.81,1.16,1.08C91.3,276.48,92.17,276,92.17,275.61Zm1.6,1.68c.52,0,1-.18,1-.41,0-.6-.82-1.25-2-2a4.66,4.66,0,0,1-.69,2.1A5,5,0,0,0,93.77,277.29Z"/><path class="cls-2" d="M98.51,275.16c.52,1.26,1,2,2.06,2h.17v1.17h-.19a1.28,1.28,0,0,1-.93-.29h0c0,.11,0,.22,0,.32a3,3,0,0,1-.37,1.42c-.72,1.28-1.51,1.83-2.19,1.83a5.28,5.28,0,0,1-2.29-.72l.14-.31a2.38,2.38,0,0,0,1,.2A3.62,3.62,0,0,0,99,278a2.25,2.25,0,0,0-.25-.41,8.44,8.44,0,0,1-.8-1.37c.19-.42.35-.76.51-1.06Zm-1.29-1c-.38-.35-.71-.65-1.08-.95a8.55,8.55,0,0,1,.73-.87,7.88,7.88,0,0,1,1,1A4.42,4.42,0,0,1,97.22,274.12Zm.49-1.95c-.37-.36-.7-.65-1.07-.95a8.77,8.77,0,0,1,.72-.87,7.94,7.94,0,0,1,1,1A5.18,5.18,0,0,1,97.71,272.17ZM99,274c-.38-.35-.71-.65-1.08-.95a8.55,8.55,0,0,1,.73-.87,7.92,7.92,0,0,1,1,1A4.42,4.42,0,0,1,99,274Z"/><path class="cls-2" d="M100.9,277.14a6.11,6.11,0,0,0,1.8-.17c.32-.12.53-.25.53-.41a7.5,7.5,0,0,0-.92-2.26,7.22,7.22,0,0,1,.69-1h0a6.49,6.49,0,0,1,.92,2.8,2.75,2.75,0,0,1-.64,1.7c-.42.42-1.07.55-2.47.55h-.11a.59.59,0,0,1-.64-.61.57.57,0,0,1,.64-.56Zm.9,4.83c-.38-.35-.71-.65-1.08-1a8.55,8.55,0,0,1,.73-.87,9.41,9.41,0,0,1,1,1A4.42,4.42,0,0,1,101.8,282Zm1.76-.12c-.37-.35-.7-.65-1.07-1a8.55,8.55,0,0,1,.73-.87,9.41,9.41,0,0,1,1,1A4.09,4.09,0,0,1,103.56,281.85Z"/><path class="cls-2" d="M108.63,277.35c-1.07,0-2-.5-2-1.72a2.51,2.51,0,0,1,.59-1.58,2,2,0,0,1,1.31-.76,1.67,1.67,0,0,1,1.38,1,5.24,5.24,0,0,1,.59,2.52,4.3,4.3,0,0,1-.7,2.41c-.81,1.24-1.59,1.74-2.35,1.74a4.6,4.6,0,0,1-2.64-.9l.14-.29a2.85,2.85,0,0,0,1.34.31,3.71,3.71,0,0,0,2.7-1.4,3.08,3.08,0,0,0,.86-1.53A4.59,4.59,0,0,1,108.63,277.35Zm-.41-2.91c-.43,0-1,.48-1,.82,0,.57.81,1,1.56,1a3.93,3.93,0,0,0,1-.12C109.55,275.19,109,274.44,108.22,274.44Z"/><path class="cls-3" d="M147.44,129.56c-3.58-7.49-11.78-25.25-11.78-31a13.43,13.43,0,1,1,26.86,0c0,5.77-8.12,23.4-11.73,31"/><path class="cls-4" d="M123,103.62c4.43,2.07,14.1,13,20.18,20.25a4,4,0,0,1-3.07,6.57c-9.45,0-24-.4-28.48-2.47A13.44,13.44,0,0,1,123,103.62Z"/><path class="cls-4" d="M175.16,103.62c-4.43,2.07-14.09,13-20.17,20.25a4,4,0,0,0,3.07,6.57c9.44,0,24-.4,28.47-2.47a13.44,13.44,0,0,0-11.37-24.35Z"/><path class="cls-3" d="M93.51,171.34v49.45a4,4,0,0,0,4,4H200.67a4,4,0,0,0,4-4V171.34"/><path class="cls-3" d="M158.94,157.69h50.32a4,4,0,0,0,4-4V134.37a4,4,0,0,0-4-4H88.93a4,4,0,0,0-4,4v19.32a4,4,0,0,0,4,4h50.28"/><line class="cls-3" x1="139.61" y1="131.05" x2="139.61" y2="224.39"/><line class="cls-3" x1="158.57" y1="131.05" x2="158.57" y2="224.39"/><line class="cls-4" x1="149.09" y1="31.73" x2="149.09" y2="42.74"/><line class="cls-4" x1="149.09" y1="55.3" x2="149.09" y2="66.31"/><line class="cls-4" x1="166.38" y1="49.02" x2="155.37" y2="49.02"/><line class="cls-4" x1="142.81" y1="49.02" x2="131.8" y2="49.02"/><line class="cls-4" x1="223.31" y1="78.03" x2="223.31" y2="89.04"/><line class="cls-4" x1="223.31" y1="101.6" x2="223.31" y2="112.61"/><line class="cls-4" x1="240.6" y1="95.32" x2="229.58" y2="95.32"/><line class="cls-4" x1="217.03" y1="95.32" x2="206.02" y2="95.32"/><line class="cls-4" x1="74.88" y1="78.03" x2="74.88" y2="89.04"/><line class="cls-4" x1="74.88" y1="101.6" x2="74.88" y2="112.61"/><line class="cls-4" x1="92.17" y1="95.32" x2="81.16" y2="95.32"/><line class="cls-4" x1="68.6" y1="95.32" x2="57.59" y2="95.32"/><line class="cls-4" x1="183.3" y1="78.46" x2="198.27" y2="56.82"/><line class="cls-4" x1="114.89" y1="78.46" x2="99.91" y2="56.82"/></g></g></svg>